<?xml version="1.0" standalone="no"?>
<!DOCTYPE svg PUBLIC "-//W3C//DTD SVG 20010904//EN"
 "http://www.w3.org/TR/2001/REC-SVG-20010904/DTD/svg10.dtd">
<svg version="1.0" xmlns="http://www.w3.org/2000/svg"
 width="512.000000pt" height="512.000000pt" viewBox="0 0 512.000000 512.000000"
 preserveAspectRatio="xMidYMid meet">

<g transform="translate(0.000000,512.000000) scale(0.100000,-0.100000)"
fill="#000000" stroke="none">
<path d="M1345 4814 c-16 -9 -40 -26 -52 -37 -22 -19 -24 -19 -81 -3 -212 59
-362 -61 -434 -349 -27 -109 -28 -272 -8 -697 l14 -278 53 0 c34 0 53 4 53 12
0 6 21 32 48 57 l47 46 -3 175 -4 175 -41 20 c-105 50 -96 194 14 226 l39 12
0 70 c0 67 1 69 23 64 12 -3 96 -9 187 -12 180 -8 370 5 459 31 44 13 56 13
63 2 5 -7 7 -110 6 -228 -3 -215 -3 -215 -32 -274 -49 -99 -133 -169 -241
-201 -34 -10 -40 -17 -43 -43 -3 -25 3 -35 35 -58 21 -16 47 -39 58 -52 18
-20 27 -23 80 -20 l59 3 57 146 c143 371 166 467 155 650 -16 274 -115 464
-284 546 -72 34 -180 42 -227 17z"/>
<path d="M1310 4144 c-18 -21 -1 -69 24 -69 26 0 40 27 32 58 -7 31 -36 36
-56 11z"/>
<path d="M1567 4154 c-13 -13 -7 -61 8 -74 23 -19 47 6 43 44 -2 22 -9 32 -23
34 -12 2 -24 0 -28 -4z"/>
<path d="M3596 3538 c-85 -8 -174 -39 -241 -84 -118 -78 -157 -201 -100 -313
33 -65 132 -153 211 -188 l64 -27 0 -93 c0 -81 3 -96 21 -114 12 -12 25 -17
29 -13 4 5 18 56 29 113 25 124 35 135 90 106 73 -37 80 -157 14 -227 -23 -25
-25 -31 -18 -89 15 -125 54 -192 138 -234 94 -46 220 -24 288 51 77 85 201
313 240 444 44 145 25 237 -67 330 -25 25 -59 67 -77 95 -39 61 -107 114 -213
166 -134 65 -273 92 -408 77z"/>
<path d="M975 3460 c-3 -5 -1 -10 4 -10 6 0 11 5 11 10 0 6 -2 10 -4 10 -3 0
-8 -4 -11 -10z"/>
<path d="M3370 2850 c0 -53 14 -67 24 -26 6 23 -7 76 -19 76 -3 0 -5 -22 -5
-50z"/>
<path d="M372 1818 c-9 -12 -142 -505 -142 -528 0 -6 368 -10 1002 -10 l1002
0 -54 56 c-30 31 -95 87 -145 126 -105 82 -125 108 -125 166 0 86 56 142 140
142 25 -1 56 -7 70 -15 39 -22 51 -19 40 11 -7 17 -7 32 0 45 11 19 -2 19
-883 19 -704 0 -897 -3 -905 -12z"/>
<path d="M2239 1803 c11 -16 30 -46 44 -68 20 -32 54 -57 176 -129 84 -48 154
-87 156 -84 2 2 33 72 68 156 l65 152 -264 0 -265 0 20 -27z"/>
<path d="M220 1187 c0 -59 5 -89 16 -105 l15 -22 1100 0 1100 0 -98 105 -98
105 -1017 0 -1018 0 0 -83z"/>
</g>
</svg>
