<svg width="143" height="172" viewBox="0 0 143 172" fill="none" xmlns="http://www.w3.org/2000/svg">
<path fill-rule="evenodd" clip-rule="evenodd" d="M54.0639 0.0770261C53.6968 0.117879 53.3965 0.224525 53.3965 0.31354C53.3965 0.402555 53.1845 0.47566 52.9253 0.47566C52.6662 0.47566 52.4542 0.553064 52.4542 0.64767C52.4542 0.742275 52.3128 0.81968 52.1401 0.81968C51.9673 0.81968 51.826 0.897084 51.826 0.99169C51.826 1.0863 51.6847 1.1637 51.5119 1.1637C51.3391 1.1637 51.1978 1.2282 51.1978 1.30647C51.1978 1.38516 51.0035 1.55889 50.7659 1.69263C50.5284 1.82594 50.2198 2.07148 50.08 2.23747C49.9402 2.40389 49.7636 2.54021 49.6874 2.54064C49.5606 2.5415 48.4601 3.76879 47.3894 5.10359C47.1518 5.39945 46.9575 5.7568 46.9575 5.89699C46.9575 6.03718 46.8868 6.15199 46.8004 6.15199C46.7141 6.15199 46.6434 6.3068 46.6434 6.49601C46.6434 6.68523 46.5727 6.84004 46.4863 6.84004C46.4 6.84004 46.3293 6.99484 46.3293 7.18406C46.3293 7.37327 46.2586 7.52808 46.1722 7.52808C46.0859 7.52808 46.0152 7.64977 46.0152 7.79856C46.0152 8.54939 45.9155 8.56014 38.9684 8.56014C34.7391 8.56014 32.3355 8.62206 32.2735 8.73215C32.2201 8.82675 31.9684 8.90416 31.7144 8.90416C31.4603 8.90416 31.2526 8.98156 31.2526 9.07617C31.2526 9.17077 31.1113 9.24818 30.9385 9.24818C30.7658 9.24818 30.6245 9.32558 30.6245 9.42019C30.6245 9.51479 30.4831 9.5922 30.3104 9.5922C30.1376 9.5922 29.9963 9.6696 29.9963 9.76421C29.9963 9.85881 29.8902 9.93622 29.7607 9.93622C29.6311 9.93622 29.5251 10.0136 29.5251 10.1082C29.5251 10.2028 29.4572 10.2802 29.374 10.2802C29.1427 10.2802 27.3264 12.3005 27.3264 12.5581C27.3264 12.6824 27.1851 12.8961 27.0123 13.0324C26.8396 13.1687 26.6982 13.4134 26.6982 13.5764C26.6982 13.7389 26.6276 13.92 26.5412 13.9785C26.4548 14.0369 26.3841 14.2739 26.3841 14.5048C26.3841 14.7357 26.3135 14.9245 26.2271 14.9245C26.1407 14.9245 26.07 15.2294 26.07 15.6022C26.07 15.9751 25.9994 16.3281 25.913 16.3866C25.8266 16.4451 25.7559 17.1078 25.7559 17.859V19.2248H20.5733C17.2231 19.2248 15.3907 19.2854 15.3907 19.3968C15.3907 19.4991 14.792 19.5688 13.9082 19.5688C13.0888 19.5688 12.3821 19.6458 12.3283 19.7408C12.2749 19.8354 12.0276 19.9128 11.7786 19.9128C11.5297 19.9128 11.2824 19.9902 11.229 20.0848C11.1756 20.1794 10.9239 20.2568 10.6699 20.2568C10.4158 20.2568 10.2082 20.3342 10.2082 20.4288C10.2082 20.5234 10.1014 20.6008 9.97061 20.6008C9.73779 20.6008 9.10724 20.9302 8.95176 21.1332C8.90857 21.19 8.684 21.2867 8.45235 21.3487C8.2207 21.4106 7.92545 21.5774 7.79628 21.7193C7.66671 21.8608 7.4653 21.9769 7.34869 21.9769C7.23208 21.9769 7.03459 22.1317 6.91013 22.3209C6.78567 22.5102 6.59132 22.665 6.47864 22.665C6.11979 22.665 3.25993 25.7672 2.79154 26.6642C2.60661 27.019 2.39735 27.3092 2.32667 27.3092C2.25639 27.3092 2.19868 27.4641 2.19868 27.6533C2.19868 27.8425 2.12801 27.9973 2.04163 27.9973C1.95525 27.9973 1.88458 28.1521 1.88458 28.3413C1.88458 28.5305 1.81391 28.6853 1.72753 28.6853C1.64116 28.6853 1.57048 28.8401 1.57048 29.0293C1.57048 29.2186 1.49981 29.3734 1.41344 29.3734C1.32706 29.3734 1.25639 29.5282 1.25639 29.7174C1.25639 29.9066 1.18572 30.0614 1.09934 30.0614C1.01296 30.0614 0.942291 30.2936 0.942291 30.5774C0.942291 30.8613 0.871619 31.0935 0.785242 31.0935C0.698866 31.0935 0.628194 31.3257 0.628194 31.6095C0.628194 31.8933 0.557522 32.1255 0.471146 32.1255C0.384769 32.1255 0.314097 32.4738 0.314097 32.8996C0.314097 33.3253 0.243425 33.6736 0.157048 33.6736C0.0553594 33.6736 0 35.7949 0 39.694C0 43.593 0.0553594 45.7143 0.157048 45.7143C0.243425 45.7143 0.314097 45.8253 0.314097 45.9607C0.314097 46.0962 0.455441 46.2562 0.628194 46.3164C0.800947 46.3766 0.942291 46.4978 0.942291 46.586C0.942291 46.6741 1.08363 46.7464 1.25639 46.7464C1.42914 46.7464 1.57048 46.8238 1.57048 46.9184C1.57048 47.1747 2.09542 47.1261 2.44367 46.838C2.61132 46.6991 2.8787 46.583 3.0381 46.58C4.45625 46.5529 4.71067 45.5655 4.71695 40.0548C4.72284 35.2165 4.7837 34.5629 5.4115 32.5831C6.31138 29.7475 8.48258 27.1871 11.1504 25.8158C13.1736 24.776 13.8038 24.7037 20.3378 24.7626L26.1486 24.8151L26.2271 31.0075C26.3091 37.4699 26.4941 38.9625 27.3264 39.866C27.37 39.9133 27.6048 40.2736 27.8482 40.6663C29.0579 42.6207 31.1313 43.9564 33.5404 44.3331C35.4121 44.6259 81.3162 44.4922 82.2934 44.1912C84.2223 43.5965 86.0814 42.1425 87.1328 40.4061C88.5647 38.0405 88.7253 36.9969 88.7292 30.0184L88.7324 24.7291H94.7552C98.0677 24.7291 100.983 24.7975 101.233 24.8809C101.484 24.9647 102.007 25.1355 102.396 25.2606C105.877 26.383 108.857 29.8197 109.782 33.7807C110.125 35.2488 110.28 71.3675 109.945 71.5945C109.864 71.6492 109.316 71.4939 108.727 71.2497C107.442 70.7169 104.001 69.7437 102.474 69.4814C99.6696 69.0002 98.9291 68.9357 96.1922 68.9357C93.4611 68.9357 92.5938 69.0101 89.9888 69.4694C84.9797 70.3518 79.8226 72.609 75.4041 75.8531C71.6702 78.5941 67.6616 83.0113 65.2513 87.0398L64.6596 88.0288H55.4401C47.3996 88.0288 46.1577 88.0632 45.729 88.2972C44.2983 89.0794 44.0607 91.0158 45.2437 92.2577L45.7215 92.7591L53.8649 92.8451C58.3439 92.8924 62.0534 92.9806 62.1087 93.0412C62.1637 93.1018 62.0565 93.5276 61.8704 93.9873C61.3137 95.3616 61.2784 95.4631 60.9277 96.7153C60.7424 97.3776 60.5061 98.1129 60.4032 98.3494L60.2163 98.7795L53.0486 98.8655C46.1106 98.9489 45.8668 98.9631 45.4377 99.3075C44.0831 100.396 44.2048 102.471 45.6764 103.371C46.1314 103.649 46.782 103.682 52.7318 103.723L59.2858 103.768L59.21 104.714C59.0569 106.622 59.1378 113.594 59.3286 114.948C59.6364 117.131 59.9913 119.081 60.2842 120.195C60.3714 120.526 60.4884 120.99 60.5445 121.227C60.6011 121.463 60.7212 121.826 60.8119 122.032C61.2238 122.971 61.4201 122.947 53.3717 122.947H45.9563L45.4369 123.334C44.1813 124.269 44.1385 126.274 45.354 127.222C45.8244 127.588 45.8919 127.591 54.049 127.593C63.5736 127.596 62.7672 127.488 63.4448 128.849C63.7358 129.435 64.426 130.705 64.9784 131.673C65.5304 132.641 65.938 133.512 65.8834 133.609C65.8182 133.724 62.3836 133.784 55.7483 133.784H45.7117L45.1644 134.383C43.8774 135.792 44.4404 137.91 46.2331 138.405C46.7266 138.541 50.4314 138.601 58.5308 138.605L70.1221 138.609L71.143 139.654C74.161 142.743 79.0009 146.02 82.9192 147.629C85.6648 148.756 87.8804 149.378 91.3237 149.988C92.9637 150.278 99.5597 150.274 101.061 149.981C103.539 149.498 104.083 149.379 104.908 149.138C105.383 149 105.949 148.849 106.165 148.804C106.381 148.759 106.699 148.662 106.871 148.587C107.044 148.513 107.468 148.359 107.814 148.245C108.159 148.131 108.583 147.975 108.756 147.898C110.257 147.233 110.126 146.754 110.061 152.646C110.009 157.325 109.998 157.465 109.587 158.742C108.52 162.061 106.015 165.012 103.338 166.104C103.036 166.227 102.647 166.388 102.474 166.46C101.259 166.969 100.193 166.981 57.3439 166.981C32.7265 166.981 13.8277 166.916 13.569 166.83C13.3185 166.746 12.7955 166.576 12.4068 166.452C8.90465 165.334 5.97766 161.886 5.02869 157.762C4.72048 156.42 4.71617 155.748 4.71381 105.866C4.71185 61.3006 4.68358 55.2708 4.47588 54.8313C4.18259 54.2095 3.29763 53.4548 2.8626 53.4548C2.68239 53.4548 2.41226 53.3202 2.26189 53.1555C2.06519 52.94 1.97017 52.916 1.92345 53.0695C1.88772 53.1869 1.68435 53.2828 1.47154 53.2828C1.08599 53.2828 0.314097 53.9657 0.314097 54.3071C0.314097 54.406 0.243425 54.4868 0.157048 54.4868C0.0526111 54.4868 0 71.8599 0 106.262C0 140.664 0.0526111 158.037 0.157048 158.037C0.243425 158.037 0.314097 158.381 0.314097 158.801C0.314097 159.221 0.384769 159.613 0.471146 159.671C0.557522 159.73 0.628194 159.962 0.628194 160.187C0.628194 160.412 0.698866 160.645 0.785242 160.703C0.871619 160.762 0.942291 160.999 0.942291 161.229C0.942291 161.46 1.01296 161.649 1.09934 161.649C1.18572 161.649 1.25639 161.804 1.25639 161.993C1.25639 162.182 1.32706 162.337 1.41344 162.337C1.49981 162.337 1.57048 162.492 1.57048 162.681C1.57048 162.87 1.64116 163.025 1.72753 163.025C1.81391 163.025 1.88458 163.18 1.88458 163.369C1.88458 163.558 1.95525 163.713 2.04163 163.713C2.12801 163.713 2.19868 163.868 2.19868 164.057C2.19868 164.247 2.25639 164.401 2.32667 164.401C2.39735 164.401 2.61839 164.72 2.81823 165.11C3.33296 166.112 6.06796 169.046 6.48806 169.046C6.59564 169.046 6.78567 169.2 6.91013 169.39C7.03459 169.579 7.26231 169.734 7.41583 169.734C7.56974 169.734 7.69537 169.811 7.69537 169.906C7.69537 170 7.83672 170.078 8.00947 170.078C8.18222 170.078 8.32357 170.155 8.32357 170.25C8.32357 170.344 8.46491 170.422 8.63767 170.422C8.81042 170.422 8.95176 170.48 8.95176 170.552C8.95176 170.623 9.18145 170.783 9.46217 170.907C9.74289 171.031 10.0955 171.205 10.2454 171.293C10.3954 171.382 10.6899 171.454 10.8996 171.454C11.1096 171.454 11.3106 171.551 11.3468 171.669C11.4429 171.985 103.517 171.985 103.613 171.669C103.649 171.551 103.884 171.454 104.136 171.454C104.388 171.454 104.594 171.376 104.594 171.282C104.594 171.187 104.767 171.11 104.977 171.11C105.188 171.11 105.405 171.032 105.458 170.938C105.511 170.843 105.692 170.766 105.86 170.766C106.028 170.766 106.165 170.707 106.165 170.636C106.165 170.564 106.394 170.396 106.675 170.262C106.956 170.128 107.3 169.876 107.44 169.704C107.579 169.531 107.793 169.39 107.915 169.39C108.037 169.39 108.239 169.235 108.363 169.046C108.488 168.856 108.663 168.701 108.751 168.699C109.087 168.695 110.793 166.999 111.346 166.121C111.555 165.79 111.852 165.394 112.007 165.241C112.162 165.088 112.29 164.872 112.29 164.761C112.29 164.65 112.431 164.393 112.604 164.19C112.777 163.987 112.918 163.719 112.918 163.595C112.918 163.471 112.989 163.369 113.075 163.369C113.161 163.369 113.232 163.265 113.232 163.137C113.232 162.922 113.529 162.13 113.87 161.436C113.951 161.272 114.017 160.986 114.017 160.802C114.017 160.617 114.088 160.418 114.174 160.359C114.261 160.301 114.331 159.986 114.331 159.661C114.331 159.335 114.402 159.069 114.488 159.069C114.575 159.069 114.645 158.61 114.645 158.037C114.645 157.464 114.715 157.005 114.802 157.005C114.904 157.005 114.959 155.199 114.959 151.931C114.959 149.14 114.993 146.856 115.034 146.856C115.076 146.856 117.548 149.527 120.529 152.791C123.51 156.055 126.056 158.725 126.186 158.725C126.317 158.725 126.424 158.802 126.424 158.897C126.424 158.992 126.565 159.069 126.738 159.069C126.911 159.069 127.052 159.128 127.052 159.199C127.052 159.271 127.282 159.43 127.563 159.555C127.843 159.678 128.196 159.852 128.346 159.94C128.496 160.029 128.792 160.101 129.004 160.101C129.216 160.101 129.433 160.178 129.486 160.273C129.545 160.376 130.587 160.445 132.087 160.445C133.651 160.445 134.591 160.381 134.591 160.273C134.591 160.178 134.834 160.101 135.131 160.101C135.428 160.101 135.715 160.024 135.768 159.929C135.822 159.834 136.003 159.757 136.17 159.757C136.338 159.757 136.475 159.68 136.475 159.585C136.475 159.49 136.616 159.413 136.789 159.413C136.962 159.413 137.103 159.336 137.103 159.241C137.103 159.146 137.245 159.069 137.417 159.069C137.59 159.069 137.732 159.005 137.732 158.926C137.732 158.848 137.926 158.673 138.163 158.539C138.401 158.405 138.843 158.01 139.145 157.662C140.601 155.985 141.03 155.424 141.03 155.192C141.03 155.054 141.1 154.941 141.187 154.941C141.273 154.941 141.344 154.786 141.344 154.597C141.344 154.408 141.397 154.252 141.461 154.251C141.621 154.25 141.972 153.399 141.972 153.014C141.972 152.844 142.042 152.705 142.129 152.705C142.215 152.705 142.286 152.477 142.286 152.199C142.286 151.921 142.357 151.645 142.443 151.587C142.536 151.523 142.6 150.438 142.6 148.91C142.6 147.312 142.541 146.34 142.443 146.34C142.357 146.34 142.286 146.031 142.286 145.652C142.286 145.274 142.215 144.964 142.129 144.964C142.042 144.964 141.972 144.775 141.972 144.544C141.972 144.314 141.901 144.077 141.815 144.018C141.728 143.96 141.658 143.761 141.658 143.578C141.658 143.394 141.599 143.244 141.527 143.244C141.456 143.244 141.297 143.031 141.175 142.771C141.053 142.511 140.829 142.173 140.677 142.02C140.525 141.867 140.401 141.65 140.401 141.539C140.401 141.427 137.928 138.631 134.905 135.324C131.881 132.018 129.408 129.251 129.408 129.175C129.408 128.924 129.798 128.11 129.918 128.108C129.983 128.108 130.036 127.99 130.036 127.847C130.036 127.704 130.107 127.433 130.193 127.245C130.28 127.057 130.421 126.749 130.507 126.561C130.594 126.373 130.664 126.102 130.664 125.959C130.664 125.816 130.735 125.699 130.821 125.699C130.908 125.699 130.978 125.544 130.978 125.355C130.978 125.166 131.049 125.011 131.135 125.011C131.222 125.011 131.293 124.822 131.293 124.591C131.293 124.36 131.363 124.123 131.45 124.065C131.536 124.006 131.607 123.77 131.607 123.539C131.607 123.308 131.677 123.119 131.764 123.119C131.85 123.119 131.921 122.887 131.921 122.603C131.921 122.319 131.991 122.087 132.078 122.087C132.164 122.087 132.235 121.859 132.235 121.581C132.235 121.303 132.305 121.027 132.392 120.969C132.478 120.91 132.549 120.596 132.549 120.27C132.549 119.945 132.62 119.679 132.706 119.679C132.792 119.679 132.863 119.403 132.863 119.065C132.863 118.728 132.941 118.293 133.035 118.099C133.419 117.315 132.318 115.034 131.557 115.034C131.426 115.034 131.293 114.951 131.262 114.848C131.225 114.725 131.048 114.752 130.739 114.928C130.482 115.074 130.066 115.239 129.815 115.296C128.998 115.48 128.397 116.348 128.089 117.787C127.758 119.335 127.36 120.811 127.037 121.7C126.959 121.913 126.824 122.28 126.738 122.517C126.652 122.753 126.519 123.121 126.443 123.334C124.655 128.34 120.019 134.963 116.238 137.912C115.692 138.337 115.058 138.86 114.828 139.073C114.598 139.285 114.327 139.459 114.226 139.46C114.126 139.46 114.02 139.519 113.991 139.591C113.835 139.985 108.382 143.072 107.843 143.072C107.732 143.072 107.574 143.136 107.492 143.213C107.343 143.354 105.745 143.91 104.476 144.262C104.109 144.365 103.544 144.522 103.22 144.612C99.1855 145.739 93.6492 145.734 89.0465 144.6C81.6943 142.79 75.3998 138.406 70.3004 131.547C67.9262 128.354 65.3004 122.433 64.4075 118.26C63.6254 114.604 63.5395 113.746 63.5406 109.616C63.5414 105.068 63.7471 103.431 64.8587 99.1235C67.2003 90.0512 73.6286 81.8038 81.7437 77.4618C84.2828 76.1029 84.5223 76.0002 87.5545 74.9677C92.032 73.4428 99.5444 73.3551 104.28 74.772C104.583 74.8627 105.077 75.0094 105.38 75.098C106.103 75.3104 107.4 75.786 107.892 76.0199C108.108 76.1223 108.426 76.2638 108.599 76.3343C115.283 79.0594 122.162 86.0197 125.429 93.3611C127.296 97.5573 128.13 100.551 128.708 105.139C129 107.453 129.621 108.495 130.709 108.498C130.863 108.498 131.176 108.632 131.404 108.796C131.708 109.014 131.835 109.037 131.883 108.882C131.918 108.765 132.046 108.67 132.168 108.67C132.532 108.67 133.027 108.114 133.375 107.313L133.704 106.558L133.416 103.873C133.258 102.396 133.069 101.114 132.996 101.024C132.923 100.934 132.863 100.571 132.863 100.217C132.863 99.8635 132.792 99.526 132.706 99.4675C132.62 99.409 132.549 99.1381 132.549 98.8655C132.549 98.5928 132.478 98.3219 132.392 98.2634C132.305 98.2049 132.235 97.934 132.235 97.6614C132.235 97.3888 132.164 97.1178 132.078 97.0594C131.991 97.0009 131.921 96.8018 131.921 96.6169C131.921 96.4319 131.839 96.1077 131.739 95.8961C131.348 95.0679 131.293 94.9019 131.293 94.5674C131.293 94.3769 131.235 94.2212 131.164 94.2212C131.093 94.2212 130.939 93.8342 130.821 93.3611C130.704 92.8881 130.55 92.5011 130.479 92.5011C130.408 92.5011 130.35 92.3463 130.35 92.1571C130.35 91.9679 130.28 91.813 130.193 91.813C130.107 91.813 130.036 91.6582 130.036 91.469C130.036 91.2798 129.965 91.125 129.879 91.125C129.793 91.125 129.722 90.9702 129.722 90.781C129.722 90.5918 129.651 90.437 129.565 90.437C129.479 90.437 129.408 90.3209 129.408 90.1789C129.408 90.037 129.337 89.9209 129.251 89.9209C129.165 89.9209 129.094 89.8014 129.094 89.6556C129.094 89.5098 128.952 89.2243 128.78 89.0213C128.607 88.8183 128.466 88.5504 128.466 88.4266C128.466 88.3023 128.395 88.2008 128.309 88.2008C128.222 88.2008 128.152 88.0632 128.152 87.8947C128.152 87.7265 128.01 87.4771 127.837 87.3408C127.665 87.2045 127.523 86.9722 127.523 86.8248C127.523 86.6773 127.382 86.445 127.209 86.3087C127.037 86.1724 126.895 85.9415 126.895 85.7961C126.895 85.6504 126.718 85.3227 126.503 85.0672C126.287 84.8122 126.11 84.5417 126.11 84.4661C126.11 84.3904 125.827 83.9999 125.482 83.5983C125.136 83.1966 124.854 82.8272 124.854 82.7774C124.854 82.6238 120.827 78.3524 119.95 77.5766C119.494 77.1728 118.914 76.6546 118.66 76.425C118.406 76.1954 117.964 75.8694 117.678 75.7004C117.392 75.5319 117.158 75.334 117.158 75.2609C117.158 75.1878 117.017 75.1281 116.844 75.1281C116.671 75.1281 116.53 75.0507 116.53 74.956C116.53 74.8614 116.437 74.784 116.324 74.784C116.211 74.784 115.966 74.6292 115.781 74.44C115.596 74.2508 115.335 74.096 115.202 74.096C114.985 74.096 114.959 72.0302 114.959 54.4008C114.959 41.3853 114.906 34.7057 114.802 34.7057C114.716 34.7057 114.645 34.2847 114.645 33.7699C114.645 33.2552 114.575 32.786 114.488 32.7276C114.402 32.6691 114.331 32.3547 114.331 32.0292C114.331 31.7037 114.261 31.4375 114.174 31.4375C114.088 31.4375 114.017 31.256 114.017 31.0337C114.017 30.6699 113.782 29.981 113.379 29.1605C113.298 28.9962 113.232 28.7447 113.232 28.6015C113.232 28.4583 113.17 28.3413 113.093 28.3413C113.017 28.3413 112.915 28.2058 112.867 28.0403C112.738 27.5922 112.249 26.7463 111.936 26.4294C111.785 26.2763 111.661 26.1009 111.661 26.0394C111.661 25.8265 108.995 23.009 108.793 23.009C108.681 23.009 108.488 22.8542 108.363 22.665C108.239 22.4758 108.037 22.3209 107.915 22.3209C107.793 22.3209 107.579 22.1795 107.44 22.007C107.3 21.8342 106.956 21.583 106.675 21.4489C106.394 21.3147 106.165 21.1465 106.165 21.0747C106.165 21.0034 106.028 20.9449 105.86 20.9449C105.692 20.9449 105.511 20.8675 105.458 20.7729C105.405 20.6783 105.188 20.6008 104.977 20.6008C104.767 20.6008 104.594 20.5234 104.594 20.4288C104.594 20.3342 104.382 20.2568 104.123 20.2568C103.864 20.2568 103.652 20.1794 103.652 20.0848C103.652 19.9902 103.369 19.9128 103.024 19.9128C102.678 19.9128 102.396 19.8354 102.396 19.7408C102.396 19.6389 101.823 19.5688 100.992 19.5688C100.219 19.5688 99.5436 19.4914 99.4902 19.3968C99.4286 19.2875 97.4733 19.2248 94.1411 19.2248H88.8894V17.4187C88.8894 16.3294 88.827 15.6126 88.7324 15.6126C88.646 15.6126 88.5753 15.3803 88.5753 15.0965C88.5753 14.8127 88.5047 14.5805 88.4183 14.5805C88.3319 14.5805 88.2612 14.3483 88.2612 14.0645C88.2612 13.7806 88.1906 13.5484 88.1042 13.5484C88.0178 13.5484 87.9471 13.4323 87.9471 13.2904C87.9471 13.1485 87.8937 13.0324 87.8286 13.0324C87.763 13.0324 87.6177 12.8053 87.5058 12.5276C87.2659 11.9345 86.1772 10.6243 85.924 10.6243C85.8274 10.6243 85.7485 10.5469 85.7485 10.4522C85.7485 10.3576 85.6746 10.2802 85.5847 10.2802C85.4948 10.2802 85.2695 10.1254 85.0841 9.93622C84.8988 9.74701 84.6542 9.5922 84.5412 9.5922C84.4277 9.5922 84.335 9.51479 84.335 9.42019C84.335 9.32558 84.123 9.24818 83.8639 9.24818C83.6048 9.24818 83.3927 9.17077 83.3927 9.07617C83.3927 8.98156 83.1807 8.90416 82.9216 8.90416C82.6625 8.90416 82.4504 8.82675 82.4504 8.73215C82.4504 8.62034 80.0947 8.56014 75.6974 8.56014C69.0491 8.56014 68.9443 8.55498 68.9443 8.21612C68.9443 8.02691 68.8736 7.8721 68.7872 7.8721C68.7009 7.8721 68.6302 7.71729 68.6302 7.52808C68.6302 7.33886 68.5595 7.18406 68.4731 7.18406C68.3868 7.18406 68.3161 7.02925 68.3161 6.84004C68.3161 6.65082 68.2454 6.49601 68.159 6.49601C68.0727 6.49601 68.002 6.35067 68.002 6.17307C68.002 5.99547 67.896 5.75379 67.7664 5.63596C67.6368 5.51814 67.5308 5.32893 67.5308 5.2154C67.5308 4.92384 64.5862 1.85174 64.3066 1.85174C64.1798 1.85174 64.0758 1.77434 64.0758 1.67973C64.0758 1.58513 63.9666 1.50772 63.8335 1.50772C63.7004 1.50772 63.4397 1.35291 63.2544 1.1637C63.0691 0.974489 62.7538 0.81968 62.5544 0.81968C62.3545 0.81968 62.1912 0.742275 62.1912 0.64767C62.1912 0.553064 62.064 0.47566 61.9085 0.47566C61.753 0.47566 61.5375 0.378904 61.4295 0.260647C61.2332 0.0452042 55.6113 -0.0949841 54.0639 0.0770261ZM59.0793 5.1939C61.8465 5.91849 63.9038 8.1615 64.6388 11.2551C65.2458 13.8112 64.9128 13.7192 73.5321 13.72C82.5459 13.7204 83.0433 13.8675 83.9793 16.8089C84.2475 17.6522 84.2628 35.5855 83.9962 36.443C83.6864 37.4385 82.9448 38.4607 82.1705 38.9591L81.4296 39.436L57.8013 39.4811C31.5192 39.5314 33.2739 39.6067 32.0316 38.3772C30.7391 37.0983 30.7815 37.4961 30.7815 26.616C30.7815 12.8178 30.0194 13.7209 41.665 13.72C50.1189 13.7192 49.5103 13.9264 50.4039 10.7382C51.5421 6.67663 55.3784 4.22505 59.0793 5.1939ZM44.9944 19.3035C44.908 19.3318 44.5193 19.4583 44.1306 19.5843C37.4545 21.7503 38.2158 32.6179 45.1408 34.003C46.4498 34.2649 67.7126 34.2585 69.3699 33.9957C76.7358 32.8278 77.4496 21.5207 70.2855 19.4901C69.4492 19.2531 45.6823 19.0777 44.9944 19.3035ZM69.5383 24.4087C71.2627 25.323 71.2808 27.9582 69.5693 28.8999C69.0636 29.1786 68.1551 29.2005 57.4012 29.1983L45.7796 29.1958L45.1632 28.8113C43.5429 27.8016 43.6179 25.2911 45.2951 24.3993C46.3387 23.8445 68.4904 23.8527 69.5383 24.4087ZM37.5185 53.8452C35.9928 54.9616 35.9099 60.5665 37.4015 61.7302C38.4223 62.5262 39.9013 62.1895 40.4985 61.0254C40.9857 60.0755 41.0006 55.5649 40.5193 54.7001C39.8483 53.4952 38.5161 53.1155 37.5185 53.8452ZM75.194 53.7369C74.0425 54.4021 73.4319 59.5986 74.3342 61.0542C75.2447 62.5236 77.2199 62.4797 78.0602 60.9708C78.5215 60.1417 78.5172 55.5322 78.0539 54.7001C77.4335 53.5859 76.1838 53.1649 75.194 53.7369ZM61.8606 57.3667C61.6356 57.4011 61.051 57.7998 60.5618 58.2526C59.6341 59.1118 59.3419 59.2984 58.411 59.6235C57.6969 59.8725 56.9858 59.8725 56.4271 59.6231C55.2233 59.0855 54.9242 58.895 54.1613 58.1821C51.7667 55.9433 48.9206 58.9617 51.038 61.4941C54.2171 65.2955 59.3812 65.5441 63.2623 62.0832C65.4794 60.1056 64.5438 56.9573 61.8606 57.3667ZM93.7579 83.9195C77.2078 85.9724 67.62 105.385 75.2537 121.385C78.8317 128.885 84.9039 133.627 92.8812 135.154C94.8384 135.528 99.1686 135.345 101.178 134.803C102.371 134.481 103.11 134.257 103.416 134.125C103.589 134.051 103.978 133.896 104.28 133.781C115.395 129.543 121.983 115.789 118.967 103.117C116.055 90.8829 105.069 82.5163 93.7579 83.9195ZM34.001 87.5971C33.7419 87.7226 33.1836 88.2387 32.7603 88.744C32.3371 89.2497 31.595 90.1282 31.1113 90.6971C30.6276 91.2661 29.3838 92.735 28.3472 93.9614C27.3107 95.1879 26.0905 96.619 25.6358 97.1415L24.8093 98.0914L24.3794 97.5582C23.8105 96.8525 23.5506 96.4917 23.0916 95.7693C22.8808 95.4382 22.666 95.1285 22.6142 95.0812C22.562 95.0339 21.8341 94.0143 20.9958 92.8159C18.9923 89.9506 17.9432 89.4604 16.5918 90.7586C15.3409 91.9605 15.5199 92.8838 17.578 95.8441C18.8568 97.6833 19.3134 98.3335 21.271 101.102C21.7724 101.811 22.3684 102.675 22.5953 103.023C23.0504 103.719 24.0115 104.37 24.5855 104.37C25.4367 104.37 25.8466 104.03 27.8117 101.699C29.8478 99.2847 32.7124 95.8991 33.701 94.7402C37.1604 90.6842 36.9735 90.9646 36.9735 89.8315C36.9735 88.0224 35.4647 86.888 34.001 87.5971ZM98.2036 88.7229C99.4706 88.9224 100.708 89.1907 101.296 89.3937C101.512 89.4681 101.972 89.6238 102.317 89.7403C105.422 90.784 109.605 94.0862 111.33 96.8547C111.459 97.0619 111.608 97.2701 111.66 97.3174C112.376 97.9641 114.103 101.912 114.671 104.198C115.253 106.545 115.479 110.932 115.112 112.765C115.023 113.209 114.875 113.959 114.782 114.432C113.857 119.15 110.803 123.992 106.95 126.851C104.674 128.539 102.614 129.484 99.6473 130.201C98.4144 130.499 93.6523 130.496 92.5801 130.197C90.8769 129.721 90.507 129.602 89.6747 129.262C83.6118 126.786 78.8862 120.981 77.6024 114.432C77.5097 113.959 77.3613 113.209 77.2722 112.765C76.8438 110.623 77.1061 106.516 77.8532 103.682C80.3562 94.1829 89.6229 87.3713 98.2036 88.7229ZM32.5247 123.936C31.6936 124.858 30.555 126.16 29.9943 126.829C29.434 127.498 28.209 128.946 27.2726 130.046C26.3362 131.147 25.4446 132.206 25.2911 132.399C24.9173 132.871 24.5903 132.843 24.2714 132.31C24.1266 132.067 23.9106 131.738 23.7921 131.579C23.1599 130.729 22.0818 129.208 21.0414 127.699C20.3978 126.765 19.6244 125.778 19.3225 125.506C17.5667 123.921 14.9671 126.412 16.1532 128.543C16.3892 128.966 18.7492 132.405 19.5164 133.443C19.6228 133.587 20.165 134.361 20.7214 135.163C21.2781 135.965 22.0359 137.057 22.4061 137.589C24.2895 140.298 24.8773 140.021 29.9185 134.045C32.4643 131.027 33.6629 129.614 34.8086 128.283C35.3394 127.666 35.9743 126.89 36.2197 126.559C36.4651 126.228 36.7109 125.918 36.7662 125.871C37.204 125.497 37.0587 123.733 36.5385 123.103C35.3402 121.653 34.4077 121.846 32.5247 123.936ZM132.809 140.741C136.919 145.162 137.347 145.781 137.733 147.854C138.621 152.623 133.6 156.733 129.549 154.554C128.778 154.139 118.444 143.149 118.305 142.596C118.287 142.526 118.735 142.088 119.301 141.622C120.865 140.33 123.309 137.714 124.894 135.631L126.319 133.761L127.667 135.21C128.409 136.007 130.723 138.496 132.809 140.741Z" fill="#060606"/>
<path fill-rule="evenodd" clip-rule="evenodd" d="M47.9304 28.9855C48.8542 29.016 50.409 29.016 51.3855 28.9859C52.3619 28.9558 51.6061 28.9308 49.7058 28.9304C47.8055 28.9304 47.0065 28.9554 47.9304 28.9855ZM91.9519 74.1093C89.708 74.5294 89.0253 74.6782 87.9471 74.9836C78.2647 77.7237 69.821 85.7471 66.066 95.7766C65.9081 96.1984 65.7173 96.6981 65.6419 96.8873C65.4649 97.332 65.0161 98.8057 64.8559 99.4675C64.7872 99.7513 64.6274 100.409 64.5006 100.93C64.3738 101.45 64.1857 102.417 64.0828 103.08C63.98 103.742 63.8304 104.703 63.7503 105.216C62.9909 110.072 63.9505 117.528 66.1084 123.541C71.7366 139.223 88.5722 148.434 104.022 144.284C105.547 143.874 105.692 143.75 104.493 143.883C103.987 143.938 103.55 144.049 103.521 144.13C103.492 144.21 103.196 144.276 102.863 144.276C102.53 144.276 102.213 144.354 102.16 144.448C102.107 144.543 101.678 144.62 101.208 144.62C100.738 144.62 100.354 144.698 100.354 144.792C100.354 144.902 98.8914 144.964 96.2801 144.964C93.7332 144.964 92.1698 144.9 92.1089 144.792C92.0555 144.698 91.5918 144.62 91.0787 144.62C90.5616 144.62 90.1458 144.544 90.1458 144.448C90.1458 144.354 89.8674 144.276 89.527 144.276C89.1866 144.276 88.8643 144.199 88.8109 144.104C88.7575 144.01 88.4705 143.932 88.1733 143.932C87.8761 143.932 87.633 143.855 87.633 143.76C87.633 143.665 87.3857 143.588 87.0834 143.588C86.781 143.588 86.5337 143.511 86.5337 143.416C86.5337 143.321 86.3217 143.244 86.0625 143.244C85.8034 143.244 85.5914 143.167 85.5914 143.072C85.5914 142.977 85.4544 142.9 85.2867 142.9C85.1191 142.9 84.9381 142.823 84.8847 142.728C84.8313 142.633 84.6149 142.556 84.4041 142.556C84.1933 142.556 84.0209 142.479 84.0209 142.384C84.0209 142.289 83.9141 142.212 83.7834 142.212C83.6526 142.212 83.4229 142.14 83.273 142.053C83.123 141.965 82.364 141.548 81.5867 141.126C79.5046 139.996 78.8383 139.585 78.8383 139.428C78.8383 139.351 78.7127 139.288 78.5588 139.288C78.4053 139.288 78.1775 139.133 78.0531 138.944C77.9286 138.755 77.7511 138.6 77.6589 138.6C77.5662 138.6 77.1783 138.29 76.7967 137.912C76.4151 137.533 76.0448 137.224 75.9741 137.224C75.9039 137.224 75.5415 136.895 75.1693 136.493C74.7967 136.091 74.2156 135.481 73.8775 135.138C72.7908 134.036 70.8288 131.709 70.8288 131.522C70.8288 131.423 70.6168 131.125 70.3577 130.859C70.0986 130.594 69.8865 130.271 69.8865 130.14C69.8865 130.01 69.7452 129.792 69.5725 129.655C69.3997 129.519 69.2584 129.323 69.2584 129.22C69.2584 129.116 69.1347 128.878 68.9835 128.69C68.4735 128.055 66.9026 124.818 66.9026 124.402C66.9026 124.264 66.832 124.151 66.7456 124.151C66.6592 124.151 66.5885 123.996 66.5885 123.807C66.5885 123.618 66.5179 123.463 66.4315 123.463C66.3451 123.463 66.2744 123.274 66.2744 123.043C66.2744 122.812 66.2038 122.575 66.1174 122.517C66.031 122.458 65.9603 122.26 65.9603 122.076C65.9603 121.893 65.8897 121.743 65.8033 121.743C65.7169 121.743 65.6462 121.511 65.6462 121.227C65.6462 120.943 65.5756 120.711 65.4892 120.711C65.4028 120.711 65.3321 120.522 65.3321 120.291C65.3321 120.06 65.2615 119.823 65.1751 119.765C65.0887 119.706 65.018 119.392 65.018 119.066C65.018 118.741 64.9474 118.475 64.861 118.475C64.7746 118.475 64.7039 118.165 64.7039 117.787C64.7039 117.408 64.6333 117.099 64.5469 117.099C64.4605 117.099 64.3899 116.711 64.3899 116.238C64.3899 115.765 64.3192 115.378 64.2328 115.378C64.1421 115.378 64.0758 114.834 64.0758 114.088C64.0758 113.343 64.0094 112.798 63.9187 112.798C63.8198 112.798 63.7617 111.626 63.7617 109.626C63.7617 107.697 63.8233 106.412 63.9187 106.348C64.0051 106.289 64.0758 105.704 64.0758 105.047C64.0758 104.366 64.1433 103.854 64.2328 103.854C64.3192 103.854 64.3899 103.467 64.3899 102.994C64.3899 102.521 64.4605 102.134 64.5469 102.134C64.6333 102.134 64.7039 101.829 64.7039 101.456C64.7039 101.083 64.7746 100.73 64.861 100.672C64.9474 100.613 65.018 100.337 65.018 100.059C65.018 99.781 65.0887 99.5535 65.1751 99.5535C65.2615 99.5535 65.3321 99.326 65.3321 99.0478C65.3321 98.7695 65.4028 98.4939 65.4892 98.4354C65.5756 98.3769 65.6462 98.14 65.6462 97.9091C65.6462 97.6781 65.7169 97.4894 65.8033 97.4894C65.8897 97.4894 65.9603 97.3006 65.9603 97.0697C65.9603 96.8387 66.031 96.6018 66.1174 96.5433C66.2038 96.4848 66.2744 96.2866 66.2744 96.103C66.2744 95.9193 66.3451 95.7693 66.4315 95.7693C66.5179 95.7693 66.5885 95.6583 66.5885 95.5229C66.5885 95.3874 66.9066 94.5858 67.2953 93.7417C67.6839 92.8975 68.002 92.1183 68.002 92.01C68.002 91.9016 68.0726 91.813 68.159 91.813C68.2454 91.813 68.3161 91.6754 68.3161 91.5068C68.3161 91.3387 68.4574 91.0893 68.6302 90.953C68.8029 90.8167 68.9443 90.5844 68.9443 90.4369C68.9443 90.2894 69.0856 90.0572 69.2584 89.9209C69.4311 89.7846 69.5725 89.5932 69.5725 89.4961C69.5728 89.3984 69.7519 89.0867 69.9706 88.8029C70.4708 88.1544 71.1484 87.2578 71.7213 86.4872C71.9647 86.1595 72.6761 85.3179 73.3024 84.617C73.9286 83.916 74.441 83.2744 74.441 83.1914C74.441 83.1084 74.5332 83.0405 74.6459 83.0405C74.7586 83.0405 75.1296 82.77 75.4704 82.4393C76.2023 81.7294 76.2325 81.704 76.9918 81.1484C77.3153 80.9119 77.5804 80.6603 77.5807 80.5894C77.5815 80.5184 77.6746 80.4604 77.788 80.4604C77.9011 80.4604 78.1457 80.3055 78.331 80.1163C78.5164 79.9271 78.7284 79.7723 78.8022 79.7723C78.876 79.7723 79.0731 79.6326 79.2408 79.4618C79.408 79.2907 79.7747 79.04 80.0554 78.9037C80.3362 78.7678 80.5658 78.5979 80.5658 78.5261C80.5658 78.4547 80.7072 78.3962 80.8799 78.3962C81.0527 78.3962 81.194 78.3188 81.194 78.2242C81.194 78.1296 81.3354 78.0522 81.5081 78.0522C81.6809 78.0522 81.8222 77.9748 81.8222 77.8802C81.8222 77.7856 81.9636 77.7082 82.1363 77.7082C82.3091 77.7082 82.4504 77.6308 82.4504 77.5362C82.4504 77.4416 82.5918 77.3642 82.7645 77.3642C82.9373 77.3642 83.0786 77.2868 83.0786 77.1922C83.0786 77.0976 83.22 77.0202 83.3927 77.0202C83.5655 77.0202 83.7068 76.9427 83.7068 76.8481C83.7068 76.7535 83.8792 76.6761 84.09 76.6761C84.3009 76.6761 84.5172 76.5987 84.5706 76.5041C84.624 76.4095 84.805 76.3321 84.9726 76.3321C85.1403 76.3321 85.2773 76.2547 85.2773 76.1601C85.2773 76.0655 85.4893 75.9881 85.7484 75.9881C86.0076 75.9881 86.2196 75.9107 86.2196 75.8161C86.2196 75.7215 86.3971 75.6441 86.6142 75.6441C86.8313 75.6441 87.1316 75.5748 87.2816 75.4906C87.8529 75.1685 90.0736 74.7109 92.423 74.431C95.8902 74.0181 96.0571 73.9773 94.3076 73.9696C93.4438 73.9657 92.3837 74.0285 91.9519 74.1093ZM99.2546 74.096C99.4706 74.1717 99.8592 74.2323 100.118 74.2306L100.59 74.2271L100.118 74.096C99.8592 74.0237 99.4706 73.9631 99.2546 73.9614L98.862 73.9584L99.2546 74.096ZM101.689 74.44C101.862 74.5213 102.144 74.5853 102.317 74.5828C102.57 74.5789 102.554 74.5505 102.239 74.44C101.701 74.2516 101.289 74.2516 101.689 74.44ZM111.033 77.7873C111.033 77.8346 111.316 78.0311 111.661 78.2242C112.007 78.4173 112.29 78.5364 112.29 78.4891C112.29 78.4418 112.007 78.2453 111.661 78.0522C111.316 77.8591 111.033 77.74 111.033 77.7873ZM119.121 84.2446C119.721 84.9068 120.248 85.4486 120.291 85.4486C120.334 85.4486 119.878 84.9068 119.278 84.2446C118.678 83.5823 118.152 83.0405 118.109 83.0405C118.065 83.0405 118.521 83.5823 119.121 84.2446ZM93.0512 83.5565C92.9978 83.6511 92.5738 83.7285 92.1089 83.7285C91.644 83.7285 91.22 83.806 91.1666 83.9006C91.1132 83.9952 90.8305 84.0726 90.5384 84.0726C90.2463 84.0726 89.9636 84.15 89.9102 84.2446C89.8568 84.3392 89.6095 84.4166 89.3606 84.4166C89.1116 84.4166 88.8643 84.494 88.8109 84.5886C88.7575 84.6832 88.5455 84.7606 88.3397 84.7606C88.134 84.7606 87.922 84.838 87.8686 84.9326C87.8152 85.0272 87.6342 85.1046 87.4666 85.1046C87.2989 85.1046 87.1619 85.182 87.1619 85.2766C87.1619 85.3712 87.0382 85.4512 86.887 85.4542C86.7359 85.4568 86.1882 85.6981 85.6699 85.9896C85.1517 86.2812 84.569 86.6076 84.3754 86.7151C84.1819 86.8226 84.0229 86.9688 84.0221 87.0397C84.0213 87.1107 83.8796 87.1687 83.7068 87.1687C83.5341 87.1687 83.3927 87.2333 83.3927 87.3115C83.3927 87.3902 83.1984 87.5639 82.9608 87.6977C82.7233 87.831 82.4147 88.0765 82.2749 88.2425C82.1352 88.4089 81.9738 88.5448 81.9165 88.5448C81.8587 88.5448 81.5643 88.8157 81.262 89.1469C80.9596 89.478 80.6428 89.7489 80.558 89.7489C80.2702 89.7489 77.7633 92.6241 76.9569 93.8789C76.7449 94.2091 76.4806 94.5815 76.3699 94.7067C76.2592 94.8314 76.1685 94.9999 76.1685 95.0812C76.1685 95.1625 76.0754 95.3311 75.9616 95.4558C75.8477 95.5809 75.4147 96.4573 74.9997 97.4034C74.5843 98.3494 74.1826 99.258 74.1072 99.4223C74.0314 99.5866 73.9698 99.8382 73.9698 99.9814C73.9698 100.125 73.8991 100.242 73.8128 100.242C73.7264 100.242 73.6557 100.474 73.6557 100.758C73.6557 101.041 73.585 101.274 73.4987 101.274C73.4123 101.274 73.3416 101.506 73.3416 101.79C73.3416 102.073 73.2709 102.306 73.1846 102.306C73.0982 102.306 73.0275 102.615 73.0275 102.994C73.0275 103.372 72.9568 103.682 72.8705 103.682C72.7841 103.682 72.7134 104.069 72.7134 104.542C72.7134 105.015 72.6427 105.402 72.5564 105.402C72.4559 105.402 72.3993 106.893 72.3993 109.53C72.3993 112.167 72.4559 113.658 72.5564 113.658C72.6427 113.658 72.7134 114.041 72.7134 114.508C72.7134 114.975 72.7841 115.406 72.8705 115.464C72.9568 115.523 73.0275 115.833 73.0275 116.152C73.0275 116.472 73.0982 116.782 73.1846 116.84C73.2709 116.899 73.3416 117.175 73.3416 117.453C73.3416 117.731 73.4123 117.959 73.4987 117.959C73.585 117.959 73.6557 118.147 73.6557 118.378C73.6557 118.609 73.7264 118.846 73.8128 118.905C73.8991 118.963 73.9698 119.161 73.9698 119.345C73.9698 119.529 74.0405 119.679 74.1269 119.679C74.2132 119.679 74.2839 119.796 74.2839 119.939C74.2839 120.082 74.3467 120.334 74.4233 120.498C74.4998 120.662 74.7609 121.261 75.0032 121.829C75.4999 122.992 76.5505 124.784 76.982 125.203C77.139 125.356 77.2678 125.571 77.2678 125.681C77.2678 125.949 81.2015 130.227 81.8108 130.622C82.0763 130.793 82.2934 130.994 82.2934 131.068C82.2934 131.143 82.3578 131.203 82.4367 131.203C82.5156 131.203 82.9557 131.474 83.4147 131.805C83.8737 132.137 84.3393 132.407 84.4493 132.407C84.5592 132.407 84.6491 132.485 84.6491 132.579C84.6491 132.674 84.7904 132.751 84.9632 132.751C85.136 132.751 85.2773 132.829 85.2773 132.923C85.2773 133.018 85.4186 133.095 85.5914 133.095C85.7641 133.095 85.9055 133.173 85.9055 133.267C85.9055 133.362 86.0468 133.439 86.2196 133.439C86.3923 133.439 86.5337 133.517 86.5337 133.611C86.5337 133.706 86.7457 133.784 87.0048 133.784C87.264 133.784 87.476 133.861 87.476 133.956C87.476 134.05 87.613 134.128 87.7806 134.128C87.9483 134.128 88.1293 134.205 88.1827 134.3C88.2361 134.394 88.4481 134.472 88.6538 134.472C88.8596 134.472 89.0716 134.549 89.125 134.644C89.1784 134.738 89.4257 134.816 89.6747 134.816C89.9236 134.816 90.1709 134.893 90.2243 134.988C90.2777 135.082 90.6354 135.16 91.019 135.16C91.4026 135.16 91.7163 135.237 91.7163 135.332C91.7163 135.43 92.1874 135.504 92.8156 135.504C93.4438 135.504 93.915 135.577 93.915 135.676C93.915 135.782 94.7493 135.848 96.1042 135.848C97.3948 135.848 98.3335 135.777 98.3908 135.676C98.4442 135.581 98.9291 135.504 99.4682 135.504C100.007 135.504 100.515 135.434 100.597 135.348C100.679 135.263 100.888 135.149 101.061 135.096C101.233 135.043 101.057 135.037 100.668 135.083C100.279 135.129 99.2546 135.249 98.3908 135.35C89.1136 136.431 79.7484 130.906 75.3275 121.743C67.8257 106.194 76.1178 87.4151 91.9519 84.0932C93.1419 83.8434 96.1478 83.5832 96.7093 83.6812C97.0426 83.7393 97.0834 83.7161 96.8989 83.5724C96.5974 83.3385 93.1823 83.3243 93.0512 83.5565ZM97.383 83.6185C97.4191 83.6529 97.8726 83.7238 98.3908 83.7767C98.9762 83.8365 99.1843 83.8193 98.9405 83.7316C98.5526 83.5927 97.2566 83.4985 97.383 83.6185ZM100.432 84.0726C100.605 84.1538 100.853 84.2205 100.982 84.2205C101.131 84.2205 101.102 84.1659 100.904 84.0726C100.731 83.9913 100.484 83.9246 100.354 83.9246C100.206 83.9246 100.235 83.9793 100.432 84.0726ZM108.128 87.115C108.426 87.4349 110.426 88.8932 110.327 88.7186C110.273 88.6218 109.827 88.2473 109.335 87.886C108.299 87.1236 107.897 86.8664 108.128 87.115ZM122.969 89.1851C122.969 89.2849 123.115 89.5494 123.292 89.773L123.616 90.1789L123.34 89.6629C122.977 88.9839 122.969 88.9736 122.969 89.1851ZM113.703 92.2108C113.703 92.2405 113.933 92.492 114.213 92.7698L114.724 93.2751L114.263 92.7161C113.833 92.1949 113.703 92.0779 113.703 92.2108ZM115.028 93.9339C115.27 94.2809 115.5 94.5652 115.539 94.5652C115.648 94.5652 114.968 93.5589 114.767 93.423C114.669 93.3564 114.786 93.5864 115.028 93.9339ZM128.016 102.306C128.016 102.448 128.077 102.718 128.152 102.908C128.237 103.124 128.287 103.156 128.287 102.994C128.287 102.852 128.226 102.581 128.152 102.392C128.066 102.175 128.016 102.143 128.016 102.306ZM128.34 104.284C128.34 104.473 128.397 104.821 128.466 105.058C128.565 105.398 128.591 105.416 128.591 105.144C128.591 104.955 128.535 104.606 128.466 104.37C128.366 104.029 128.34 104.012 128.34 104.284ZM119.607 106.004C119.738 106.857 119.829 106.995 119.826 106.334C119.824 106.058 119.751 105.716 119.663 105.574C119.548 105.389 119.532 105.511 119.607 106.004ZM130.429 108.67C130.601 108.751 130.849 108.818 130.978 108.818C131.127 108.818 131.098 108.763 130.9 108.67C130.727 108.589 130.48 108.522 130.35 108.522C130.202 108.522 130.231 108.577 130.429 108.67ZM119.69 112.712C119.677 112.901 119.63 113.25 119.586 113.486L119.505 113.916L119.673 113.494C119.766 113.262 119.813 112.914 119.778 112.72C119.715 112.377 119.713 112.377 119.69 112.712ZM117.158 121.571C116.982 121.949 116.873 122.259 116.916 122.259C116.959 122.259 117.139 121.949 117.315 121.571C117.491 121.192 117.6 120.883 117.557 120.883C117.514 120.883 117.334 121.192 117.158 121.571ZM115.782 124.07C115.339 124.782 115.043 125.319 115.126 125.263C115.342 125.116 116.774 122.775 116.647 122.775C116.616 122.775 116.226 123.358 115.782 124.07ZM125.011 126.043C124.834 126.421 124.726 126.731 124.769 126.731C124.812 126.731 124.991 126.421 125.168 126.043C125.344 125.665 125.453 125.355 125.409 125.355C125.366 125.355 125.187 125.665 125.011 126.043ZM113.617 127.118L112.996 127.849L113.664 127.169C114.285 126.537 114.404 126.387 114.285 126.387C114.259 126.387 113.959 126.716 113.617 127.118ZM112.27 128.566C112.151 128.723 111.712 129.149 111.294 129.512C110.876 129.875 110.599 130.171 110.68 130.171C110.844 130.171 112.736 128.299 112.584 128.287C112.53 128.283 112.388 128.408 112.27 128.566ZM119.206 134.723L118.349 135.762L119.278 134.779C119.788 134.238 120.174 133.771 120.135 133.741C120.096 133.71 119.678 134.152 119.206 134.723ZM102.239 134.644C101.915 134.757 101.901 134.784 102.16 134.796C102.333 134.804 102.58 134.735 102.71 134.644C102.985 134.449 102.794 134.449 102.239 134.644ZM117.384 136.579L116.923 137.138L117.433 136.632C117.714 136.355 117.943 136.103 117.943 136.073C117.943 135.941 117.814 136.057 117.384 136.579Z" fill="#458FCB"/>
<path fill-rule="evenodd" clip-rule="evenodd" d="M49.0918 24.5141L45.3367 24.5635L44.9001 25.0641C44.0957 25.986 44.1106 27.4103 44.9339 28.2742L45.4074 28.7713L57.2548 28.8186C70.3565 28.8707 69.7256 28.921 70.364 27.7741C71.0797 26.4883 70.4025 24.782 69.0593 24.4878C68.6172 24.3907 57.3172 24.4057 49.0918 24.5141ZM14.4484 25.0731C14.3189 25.1647 14.006 25.2412 13.7527 25.2425C12.9765 25.2468 10.4747 26.3425 9.92192 26.9201C9.80806 27.0396 9.65023 27.1372 9.5717 27.1372C8.74445 27.1372 5.49669 32.0116 5.49669 33.253C5.49669 33.4023 5.41188 33.6934 5.30862 33.8998C5.17945 34.1574 5.09111 35.9824 5.02829 39.694C4.93171 45.3854 4.9054 45.587 4.1763 46.2884C3.77897 46.6707 2.89832 47.0904 2.49353 47.0904C2.21673 47.0904 2.19867 47.2671 2.19867 49.9526C2.19867 53.0961 2.24853 53.2656 3.18022 53.2772C3.41776 53.2802 3.61211 53.3602 3.61211 53.4548C3.61211 53.5494 3.71458 53.6268 3.83983 53.6268C3.96468 53.6268 4.26503 53.911 4.50728 54.2585L4.94702 54.8902L5.02554 106.163C5.09229 149.8 5.13705 157.524 5.3259 158.037C5.448 158.368 5.65727 158.983 5.79076 159.403C6.85241 162.744 10.1728 165.716 13.7417 166.52C15.123 166.831 99.6912 166.875 101.066 166.565C104.01 165.902 107.167 163.59 108.235 161.316C108.349 161.073 108.477 160.836 108.52 160.789C108.564 160.742 108.688 160.49 108.796 160.23C109.79 157.831 109.934 156.787 109.934 151.974C109.934 147.331 110.03 147.597 108.581 148.216C101.425 151.267 90.072 151.194 83.2749 148.052C83.0806 147.962 82.7626 147.821 82.5682 147.74C78.7099 146.112 74.5246 143.275 71.1901 140.027L69.9027 138.772H57.9831C44.9088 138.772 45.5346 138.82 44.7074 137.744C43.6524 136.371 44.3756 133.901 45.9367 133.547C46.1958 133.488 50.7365 133.443 56.027 133.447C61.3176 133.45 65.6463 133.401 65.6463 133.336C65.6463 133.272 65.2689 132.591 64.808 131.824C64.3467 131.057 63.7295 129.926 63.4366 129.311C63.1437 128.696 62.8791 128.154 62.8488 128.107C62.8182 128.06 58.9301 127.982 54.208 127.935C44.8091 127.841 45.3014 127.9 44.5967 126.774C43.8251 125.541 44.1671 123.894 45.3638 123.079C45.9351 122.69 45.9587 122.689 53.2787 122.639C57.6541 122.61 60.6207 122.525 60.6207 122.43C60.6207 122.343 60.5249 121.939 60.4079 121.534C59.0357 116.785 58.5339 111.342 58.9395 105.617L59.0647 103.854H52.4369H45.8095L45.2837 103.415C44.0226 102.361 43.8962 100.661 44.9901 99.4628L45.6929 98.6934H52.8959H60.0993L60.2995 97.9624C60.6804 96.5734 60.8044 96.189 61.2701 94.9522C61.5296 94.2625 61.68 93.8307 61.7793 93.4901C61.8622 93.2063 61.4373 93.1887 54.3729 93.1818C50.2512 93.1775 46.5609 93.107 46.1722 93.0253C44.0741 92.5836 43.5853 89.4281 45.4247 88.2C45.9202 87.8688 46.2339 87.8581 55.2194 87.8572L64.5025 87.8568L65.0942 86.8678C67.6486 82.598 71.4684 78.4547 75.7315 75.3297C76.6569 74.6512 77.4422 74.096 77.4763 74.096C77.5105 74.096 78.0252 73.8031 78.6204 73.4449C86.6264 68.6282 97.3528 67.3459 106.243 70.1423C106.589 70.2511 107.067 70.3814 107.305 70.4317C107.544 70.4821 107.778 70.5917 107.825 70.6756C107.872 70.7594 108.069 70.8278 108.263 70.8278C108.456 70.8278 108.682 70.897 108.764 70.9818C108.846 71.0665 109.143 71.1886 109.424 71.2535L109.934 71.3713V53.5115C109.934 32.8136 110.007 33.8676 108.36 30.6557C107.796 29.557 106.763 28.2944 105.708 27.4159C104.805 26.6646 102.913 25.5891 102.493 25.5891C102.363 25.5891 102.218 25.5199 102.17 25.4352C101.993 25.1213 100.602 25.0314 94.818 24.9613L88.8894 24.8891V30.5693C88.8894 35.9605 88.818 37.0781 88.3975 38.2749C87.284 41.442 85.1124 43.6128 82.2463 44.4242C80.9015 44.8052 33.7725 44.8143 32.4395 44.4341C29.6814 43.6472 27.485 41.4338 26.3527 38.3007C26.0367 37.426 26.0131 37.0067 25.9515 31.1365L25.8859 24.9011L20.2852 24.9037C16.94 24.9054 14.589 24.9733 14.4484 25.0731ZM39.7333 53.4548C39.7333 53.5494 39.8357 53.6268 39.961 53.6268C40.8507 53.6268 41.3316 56.154 41.0776 59.4949C40.8895 61.9714 39.2645 63.243 37.5986 62.2183C36.3559 61.4537 36.2782 61.1922 36.2782 57.7705V54.8567L36.9456 54.0697C37.6045 53.2931 39.7333 52.8235 39.7333 53.4548ZM77.6821 53.8715C79.0464 55.1504 79.1477 60.336 77.8348 61.6713C75.2513 64.2979 72.6604 60.1159 73.8509 55.2411C74.3161 53.3361 76.3397 52.6128 77.6821 53.8715ZM53.4459 57.2592C53.6348 57.365 54.0364 57.7064 54.3388 58.0178C56.3427 60.0819 58.3035 59.9778 60.9077 57.6695C63.2293 55.6118 65.9317 58.8305 64.1229 61.4988C61.0706 66.0012 52.572 65.5909 50.325 60.8319C49.3375 58.7406 51.557 56.2001 53.4459 57.2592ZM36.1938 87.5558C37.738 88.6644 37.7297 90.4516 36.1714 92.2633C35.4278 93.1276 32.7042 96.3395 31.8266 97.3862C29.447 100.226 27.7077 102.254 26.7583 103.295L25.6217 104.542H24.7445C23.573 104.542 23.0013 104.163 22.1454 102.822C21.9342 102.491 21.6884 102.135 21.5993 102.032C21.5101 101.929 21.2604 101.588 21.0445 101.274C20.8285 100.96 20.5804 100.619 20.4932 100.515C20.4061 100.412 19.7017 99.3987 18.9283 98.2634C18.1544 97.1282 17.4803 96.1606 17.43 96.1133C17.3798 96.066 17.1689 95.7564 16.9612 95.4253C16.7535 95.0941 16.5415 94.7845 16.4901 94.7372C14.8073 93.1917 15.8344 89.9209 18.0025 89.9209C19.1226 89.9209 19.5851 90.2787 20.8391 92.1175C21.3378 92.8485 21.8179 93.5314 21.9055 93.6351C21.9935 93.7383 22.242 94.0793 22.4579 94.3923C22.6739 94.7058 23.0272 95.2094 23.2432 95.5113C23.7076 96.1606 24.2432 96.9303 24.5482 97.3879C24.7548 97.6971 24.8294 97.6438 25.8506 96.459C27.593 94.4366 27.9527 94.0139 29.5251 92.1403C30.3457 91.1624 31.659 89.644 32.4438 88.7655L33.8706 87.1688H34.7623C35.4231 87.1688 35.7945 87.2694 36.1938 87.5558ZM93.9935 89.0811C91.9 89.3916 91.6319 89.4462 91.4886 89.5945C91.4065 89.6793 91.176 89.7489 90.9762 89.7489C90.7764 89.7489 90.4901 89.8173 90.3402 89.9007C90.1902 89.9846 89.8906 90.1299 89.6747 90.2245C88.7551 90.6262 86.4508 91.8892 86.4029 92.0173C86.3739 92.0943 86.2773 92.1571 86.1882 92.1571C85.7115 92.1571 81.194 96.582 81.194 97.0486C81.194 97.1002 80.9577 97.4816 80.6687 97.8962C76.9007 103.302 76.3071 112.05 79.2663 118.561C80.3161 120.87 80.3213 120.88 80.4481 120.881C80.5129 120.882 80.5659 120.999 80.5659 121.141C80.5659 121.283 80.6212 121.399 80.6891 121.399C80.7567 121.399 80.9467 121.65 81.1108 121.958C81.3919 122.484 83.8164 125.213 84.657 125.95C86.7669 127.799 89.9687 129.288 93.3743 130.004C94.4533 130.231 98.5958 130.134 99.7258 129.856C101.875 129.327 102.423 129.152 103.516 128.646C104.175 128.342 105.12 127.824 105.616 127.497C106.111 127.171 106.579 126.903 106.655 126.903C106.731 126.903 106.793 126.842 106.793 126.768C106.793 126.694 107.023 126.485 107.303 126.304C109.33 124.996 112.646 120.353 113.723 117.314C113.798 117.101 113.923 116.752 113.999 116.54C114.13 116.176 114.287 115.563 114.637 114.045C115.074 112.156 115.168 108.508 114.837 106.348C114.736 105.686 114.608 104.853 114.553 104.497C114.499 104.141 114.391 103.808 114.314 103.756C114.237 103.704 114.174 103.51 114.174 103.325C114.174 103.14 114.112 102.855 114.036 102.691C113.959 102.526 113.827 102.198 113.741 101.962C111.754 96.4668 106.87 91.4264 102.081 89.9304C101.693 89.8091 101.233 89.6466 101.061 89.5692C99.8875 89.0437 96.039 88.7779 93.9935 89.0811ZM35.4757 122.023C36.0469 122.148 36.915 122.991 37.1883 123.686C37.6987 124.984 37.372 125.706 35.0218 128.468C33.456 130.309 31.997 132.022 30.7815 133.448C27.7406 137.013 26.9047 138.01 26.7304 138.28C25.7838 139.743 23.3759 139.744 22.5698 138.281C22.4316 138.03 22.1536 137.632 21.9518 137.396C21.7504 137.159 21.4116 136.695 21.1992 136.364C20.9872 136.033 20.7245 135.646 20.6153 135.504C20.3923 135.212 19.7151 134.24 17.6711 131.273C16.8953 130.146 16.2062 129.199 16.1399 129.168C16.0731 129.136 16.0189 129.001 16.0189 128.867C16.0189 128.733 15.9483 128.623 15.8619 128.623C15.772 128.623 15.7048 128.107 15.7048 127.419C15.7048 125.508 16.7508 124.569 18.6122 124.807C19.3295 124.898 19.7437 125.332 21.3586 127.681C21.7473 128.247 22.136 128.797 22.2223 128.905C22.5215 129.278 22.8549 129.748 23.7622 131.074C24.8812 132.71 24.6429 132.748 26.4026 130.658C27.213 129.695 28.0881 128.666 28.3472 128.371C28.6064 128.075 29.5561 126.947 30.458 125.863C33.747 121.91 34.0171 121.703 35.4757 122.023Z" fill="#DFDFFB"/>
<path fill-rule="evenodd" clip-rule="evenodd" d="M47.4769 24.5137C48.4966 24.5438 50.122 24.5433 51.0891 24.5132C52.0557 24.4831 51.2214 24.4586 49.2347 24.4591C47.248 24.4591 46.4569 24.4836 47.4769 24.5137ZM56.9803 28.9864C59.1672 29.0134 62.7008 29.013 64.8328 28.9864C66.9647 28.9593 65.1751 28.9369 60.8563 28.9373C56.5375 28.9373 54.7934 28.9593 56.9803 28.9864ZM4.93643 40.124C4.93643 42.4892 4.95881 43.4804 4.9859 42.327C5.01299 41.1737 5.01299 39.2386 4.9859 38.0268C4.95881 36.815 4.93682 37.7589 4.93643 40.124ZM78.5863 57.8411C78.5863 59.1655 78.611 59.6846 78.6409 58.9944C78.6707 58.3046 78.6707 57.221 78.6405 56.5862C78.6102 55.952 78.5859 56.5166 78.5863 57.8411ZM4.94585 105.746C4.94585 133.323 4.96431 144.605 4.9863 130.816C5.00828 117.028 5.00828 94.4642 4.9863 80.6754C4.96431 66.8866 4.94585 78.1684 4.94585 105.746ZM73.7166 57.8411C73.717 59.0709 73.7421 59.5517 73.7724 58.9088C73.8026 58.2664 73.8026 57.2601 73.772 56.6727C73.7413 56.0857 73.7166 56.6112 73.7166 57.8411ZM41.0489 57.7551C41.0489 58.843 41.0745 59.2881 41.1059 58.7441C41.1369 58.2001 41.1369 57.31 41.1059 56.766C41.0745 56.222 41.0489 56.6671 41.0489 57.7551ZM63.596 62.0123L63.055 62.6573L63.6439 62.0648C63.9678 61.7384 64.2328 61.4481 64.2328 61.4197C64.2328 61.2881 64.1001 61.412 63.596 62.0123ZM37.9516 62.4423C37.9916 62.5133 38.2986 62.5713 38.6339 62.5713C38.9692 62.5713 39.2763 62.5133 39.3163 62.4423C39.3564 62.3714 39.0493 62.3133 38.6339 62.3133C38.2185 62.3133 37.9115 62.3714 37.9516 62.4423ZM95.9979 68.7151C96.237 68.7547 96.5903 68.7538 96.7831 68.713C96.9763 68.6721 96.7811 68.6394 96.3492 68.6407C95.9174 68.642 95.7591 68.6755 95.9979 68.7151ZM94.8573 74.1111C94.2958 74.1945 93.2004 74.3386 92.423 74.431C90.0736 74.711 87.8529 75.1685 87.2817 75.4906C87.1317 75.5749 86.8313 75.6441 86.6142 75.6441C86.3971 75.6441 86.2196 75.7215 86.2196 75.8161C86.2196 75.9107 86.0076 75.9881 85.7485 75.9881C85.4893 75.9881 85.2773 76.0655 85.2773 76.1601C85.2773 76.2547 85.1403 76.3322 84.9727 76.3322C84.805 76.3322 84.624 76.4096 84.5706 76.5042C84.5172 76.5988 84.3009 76.6762 84.09 76.6762C83.8792 76.6762 83.7068 76.7536 83.7068 76.8482C83.7068 76.9428 83.5655 77.0202 83.3927 77.0202C83.22 77.0202 83.0787 77.0976 83.0787 77.1922C83.0787 77.2868 82.9373 77.3642 82.7645 77.3642C82.5918 77.3642 82.4505 77.4416 82.4505 77.5362C82.4505 77.6308 82.3091 77.7082 82.1364 77.7082C81.9636 77.7082 81.8223 77.7856 81.8223 77.8802C81.8223 77.9748 81.6809 78.0523 81.5082 78.0523C81.3354 78.0523 81.1941 78.1297 81.1941 78.2243C81.1941 78.3189 81.0527 78.3963 80.88 78.3963C80.7072 78.3963 80.5659 78.4548 80.5659 78.5261C80.5659 78.598 80.3362 78.7678 80.0555 78.9037C79.7747 79.04 79.408 79.2907 79.2408 79.4619C79.0731 79.6326 78.876 79.7724 78.8022 79.7724C78.7284 79.7724 78.5164 79.9272 78.3311 80.1164C78.1458 80.3056 77.9012 80.4604 77.7881 80.4604C77.6746 80.4604 77.5816 80.5184 77.5808 80.5894C77.5804 80.6604 77.3154 80.9119 76.9918 81.1484C76.2325 81.704 76.2023 81.7294 75.4704 82.4394C75.1296 82.7701 74.7586 83.0405 74.6459 83.0405C74.5333 83.0405 74.441 83.1085 74.441 83.1915C74.441 83.2745 73.9286 83.9161 73.3024 84.617C72.6762 85.318 71.9647 86.1595 71.7213 86.4872C71.1485 87.2578 70.4708 88.1544 69.9706 88.8029C69.7519 89.0867 69.5729 89.3985 69.5725 89.4961C69.5725 89.5933 69.4311 89.7846 69.2584 89.9209C69.0856 90.0573 68.9443 90.2895 68.9443 90.437C68.9443 90.5845 68.8029 90.8167 68.6302 90.953C68.4574 91.0893 68.3161 91.3387 68.3161 91.5069C68.3161 91.6755 68.2454 91.8131 68.159 91.8131C68.0727 91.8131 68.002 91.9016 68.002 92.01C68.002 92.1184 67.684 92.8976 67.2953 93.7417C66.9066 94.5859 66.5886 95.3874 66.5886 95.5229C66.5886 95.6583 66.5179 95.7693 66.4315 95.7693C66.3451 95.7693 66.2745 95.9194 66.2745 96.103C66.2745 96.2866 66.2038 96.4849 66.1174 96.5433C66.031 96.6018 65.9604 96.8388 65.9604 97.0697C65.9604 97.3006 65.8897 97.4894 65.8033 97.4894C65.7169 97.4894 65.6463 97.6782 65.6463 97.9091C65.6463 98.14 65.5756 98.377 65.4892 98.4355C65.4028 98.4939 65.3322 98.7696 65.3322 99.0478C65.3322 99.326 65.2615 99.5535 65.1751 99.5535C65.0887 99.5535 65.0181 99.781 65.0181 100.059C65.0181 100.337 64.9474 100.613 64.861 100.672C64.7747 100.73 64.704 101.083 64.704 101.456C64.704 101.829 64.6333 102.134 64.5469 102.134C64.4606 102.134 64.3899 102.521 64.3899 102.994C64.3899 103.467 64.3192 103.854 64.2328 103.854C64.1433 103.854 64.0758 104.366 64.0758 105.048C64.0758 105.704 64.0051 106.289 63.9187 106.348C63.8233 106.412 63.7617 107.697 63.7617 109.626C63.7617 111.626 63.8198 112.798 63.9187 112.798C64.0094 112.798 64.0758 113.343 64.0758 114.088C64.0758 114.834 64.1421 115.378 64.2328 115.378C64.3192 115.378 64.3899 115.765 64.3899 116.238C64.3899 116.712 64.4606 117.099 64.5469 117.099C64.6333 117.099 64.704 117.408 64.704 117.787C64.704 118.165 64.7747 118.475 64.861 118.475C64.9474 118.475 65.0181 118.741 65.0181 119.066C65.0181 119.392 65.0887 119.706 65.1751 119.765C65.2615 119.823 65.3322 120.06 65.3322 120.291C65.3322 120.522 65.4028 120.711 65.4892 120.711C65.5756 120.711 65.6463 120.943 65.6463 121.227C65.6463 121.511 65.7169 121.743 65.8033 121.743C65.8897 121.743 65.9604 121.893 65.9604 122.077C65.9604 122.26 66.031 122.458 66.1174 122.517C66.2038 122.575 66.2745 122.812 66.2745 123.043C66.2745 123.274 66.3451 123.463 66.4315 123.463C66.5179 123.463 66.5886 123.618 66.5886 123.807C66.5886 123.996 66.6592 124.151 66.7456 124.151C66.832 124.151 66.9027 124.264 66.9027 124.402C66.9027 124.818 68.4735 128.055 68.9836 128.69C69.1347 128.878 69.2584 129.116 69.2584 129.22C69.2584 129.323 69.3997 129.519 69.5725 129.655C69.7452 129.792 69.8866 130.01 69.8866 130.14C69.8866 130.271 70.0986 130.594 70.3577 130.859C70.6169 131.125 70.8289 131.423 70.8289 131.522C70.8289 131.709 72.7908 134.036 73.8776 135.138C74.2156 135.481 74.7967 136.091 75.1693 136.493C75.5415 136.895 75.9039 137.224 75.9742 137.224C76.0448 137.224 76.4151 137.533 76.7967 137.912C77.1783 138.29 77.5662 138.6 77.6589 138.6C77.7512 138.6 77.9286 138.755 78.0531 138.944C78.1776 139.133 78.4053 139.288 78.5588 139.288C78.7127 139.288 78.8383 139.351 78.8383 139.428C78.8383 139.585 79.5046 139.996 81.5867 141.126C82.3641 141.548 83.123 141.965 83.273 142.053C83.423 142.14 83.6527 142.212 83.7834 142.212C83.9141 142.212 84.0209 142.289 84.0209 142.384C84.0209 142.479 84.1933 142.556 84.4041 142.556C84.615 142.556 84.8313 142.633 84.8847 142.728C84.9381 142.823 85.1191 142.9 85.2868 142.9C85.4544 142.9 85.5914 142.977 85.5914 143.072C85.5914 143.167 85.8034 143.244 86.0626 143.244C86.3217 143.244 86.5337 143.321 86.5337 143.416C86.5337 143.511 86.7811 143.588 87.0834 143.588C87.3857 143.588 87.6331 143.666 87.6331 143.76C87.6331 143.855 87.8761 143.932 88.1733 143.932C88.4705 143.932 88.7575 144.01 88.8109 144.104C88.8643 144.199 89.1867 144.276 89.5271 144.276C89.8675 144.276 90.1458 144.354 90.1458 144.448C90.1458 144.544 90.5616 144.62 91.0787 144.62C91.5919 144.62 92.0555 144.698 92.1089 144.792C92.1698 144.9 93.7332 144.964 96.2801 144.964C98.8915 144.964 100.354 144.902 100.354 144.792C100.354 144.698 100.738 144.62 101.208 144.62C101.678 144.62 102.107 144.543 102.16 144.448C102.213 144.354 102.536 144.276 102.876 144.276C103.217 144.276 103.495 144.21 103.495 144.128C103.495 144.047 103.901 143.939 104.398 143.888C106.091 143.716 110.932 141.563 112.868 140.121C113.229 139.852 113.6 139.632 113.692 139.632C113.784 139.632 113.86 139.567 113.86 139.489C113.86 139.41 114.055 139.236 114.292 139.102C114.53 138.968 114.759 138.816 114.802 138.764C114.846 138.712 115.128 138.481 115.431 138.25C116.058 137.772 116.31 137.545 117.852 136.082C119.082 134.914 120.556 133.239 121.395 132.058C121.695 131.636 121.986 131.251 122.042 131.203C122.581 130.747 125.024 126.16 126.027 123.721C126.26 123.153 126.516 122.554 126.595 122.39C126.674 122.226 126.738 121.94 126.738 121.755C126.738 121.57 126.809 121.371 126.895 121.313C126.982 121.254 127.052 121.055 127.052 120.87C127.052 120.685 127.114 120.4 127.19 120.236C127.419 119.738 127.68 118.731 127.68 118.343C127.68 118.143 127.751 117.931 127.837 117.873C127.924 117.814 127.995 117.573 127.995 117.338C127.995 116.528 129.071 115.037 129.658 115.034C130.928 115.025 131.115 114.624 131.239 111.637C131.28 110.668 131.364 109.874 131.425 109.874C132.029 109.874 131.511 109.008 130.765 108.771C129.421 108.342 128.623 107.431 128.623 106.324C128.623 105.887 128.549 105.367 128.128 102.822C127.875 101.296 127.399 99.2559 127.194 98.8246C127.116 98.6604 127.052 98.3748 127.052 98.1899C127.052 98.005 126.982 97.8059 126.895 97.7474C126.809 97.6889 126.738 97.5027 126.738 97.3337C126.738 97.1647 126.64 96.8014 126.52 96.5266C126.4 96.2522 126.18 95.7177 126.032 95.3393C123.961 90.0426 119.768 84.15 116.059 81.3256C115.757 81.0955 115.474 80.8552 115.431 80.7915C115.225 80.4888 112.504 78.6883 111.033 77.8807C108.441 76.4581 108.191 76.3322 107.954 76.3322C107.831 76.3322 107.608 76.2638 107.458 76.1803C107.006 75.9284 106.423 75.6794 106.008 75.5607C105.792 75.4992 105.368 75.3715 105.065 75.2769C101.76 74.2435 97.352 73.74 94.8573 74.1111ZM99.1184 83.729C101.593 84.2094 102.282 84.3904 103.888 84.9817C107.879 86.4519 111.073 88.8141 114.153 92.5751C115.681 94.4409 117.37 97.4739 118.182 99.8115C118.412 100.474 118.656 101.17 118.725 101.36C118.923 101.905 119.433 104.055 119.603 105.058C120.796 112.102 118.84 120.342 114.644 125.957C112.936 128.242 108.825 132.063 108.075 132.063C107.989 132.063 107.895 132.122 107.866 132.193C107.817 132.315 106.441 133.082 105.222 133.667C104.54 133.994 102.578 134.698 101.532 134.991C101.1 135.111 100.679 135.276 100.597 135.357C100.515 135.438 100.007 135.504 99.4682 135.504C98.9292 135.504 98.4443 135.581 98.3909 135.676C98.3336 135.777 97.3948 135.848 96.1043 135.848C94.7493 135.848 93.915 135.782 93.915 135.676C93.915 135.577 93.4438 135.504 92.8157 135.504C92.1875 135.504 91.7163 135.43 91.7163 135.332C91.7163 135.237 91.4026 135.16 91.019 135.16C90.6354 135.16 90.2777 135.082 90.2244 134.988C90.171 134.893 89.9236 134.816 89.6747 134.816C89.4258 134.816 89.1784 134.738 89.125 134.644C89.0716 134.549 88.8596 134.472 88.6539 134.472C88.4481 134.472 88.2361 134.394 88.1827 134.3C88.1293 134.205 87.9483 134.128 87.7807 134.128C87.613 134.128 87.476 134.05 87.476 133.956C87.476 133.861 87.264 133.784 87.0049 133.784C86.7457 133.784 86.5337 133.706 86.5337 133.612C86.5337 133.517 86.3924 133.44 86.2196 133.44C86.0469 133.44 85.9055 133.362 85.9055 133.268C85.9055 133.173 85.7642 133.095 85.5914 133.095C85.4187 133.095 85.2773 133.018 85.2773 132.923C85.2773 132.829 85.136 132.751 84.9632 132.751C84.7905 132.751 84.6491 132.674 84.6491 132.579C84.6491 132.485 84.5592 132.407 84.4493 132.407C84.3394 132.407 83.8737 132.137 83.4147 131.805C82.9558 131.474 82.5156 131.203 82.4367 131.203C82.3578 131.203 82.2934 131.143 82.2934 131.068C82.2934 130.994 82.0763 130.793 81.8109 130.622C81.2015 130.227 77.2679 125.949 77.2679 125.681C77.2679 125.571 77.1391 125.356 76.982 125.203C76.5505 124.784 75.4999 122.992 75.0032 121.829C74.761 121.261 74.4999 120.662 74.4233 120.498C74.3468 120.334 74.2839 120.082 74.2839 119.939C74.2839 119.796 74.2133 119.679 74.1269 119.679C74.0405 119.679 73.9698 119.529 73.9698 119.345C73.9698 119.161 73.8992 118.963 73.8128 118.905C73.7264 118.846 73.6557 118.609 73.6557 118.378C73.6557 118.147 73.5851 117.959 73.4987 117.959C73.4123 117.959 73.3416 117.731 73.3416 117.453C73.3416 117.175 73.271 116.899 73.1846 116.841C73.0982 116.782 73.0275 116.472 73.0275 116.153C73.0275 115.833 72.9569 115.523 72.8705 115.464C72.7841 115.406 72.7135 114.976 72.7135 114.508C72.7135 114.041 72.6428 113.658 72.5564 113.658C72.4559 113.658 72.3994 112.167 72.3994 109.53C72.3994 106.893 72.4559 105.402 72.5564 105.402C72.6428 105.402 72.7135 105.015 72.7135 104.542C72.7135 104.069 72.7841 103.682 72.8705 103.682C72.9569 103.682 73.0275 103.372 73.0275 102.994C73.0275 102.615 73.0982 102.306 73.1846 102.306C73.271 102.306 73.3416 102.073 73.3416 101.79C73.3416 101.506 73.4123 101.274 73.4987 101.274C73.5851 101.274 73.6557 101.041 73.6557 100.758C73.6557 100.474 73.7264 100.242 73.8128 100.242C73.8992 100.242 73.9698 100.125 73.9698 99.9814C73.9698 99.8382 74.0315 99.5866 74.1073 99.4224C74.1826 99.2581 74.5843 98.3494 74.9997 97.4034C75.4147 96.4573 75.8477 95.5809 75.9616 95.4558C76.0755 95.3311 76.1685 95.1625 76.1685 95.0813C76.1685 95 76.2592 94.8314 76.3699 94.7067C76.4807 94.5816 76.7449 94.2092 76.9569 93.8789C77.7633 92.6241 80.2702 89.7489 80.558 89.7489C80.6428 89.7489 80.9597 89.478 81.262 89.1469C81.5643 88.8158 81.8588 88.5449 81.9165 88.5449C81.9738 88.5449 82.1352 88.409 82.275 88.2426C82.4147 88.0766 82.7233 87.831 82.9609 87.6977C83.1984 87.564 83.3927 87.3903 83.3927 87.3116C83.3927 87.2333 83.5341 87.1688 83.7068 87.1688C83.8796 87.1688 84.0213 87.1107 84.0221 87.0398C84.0229 86.9688 84.1819 86.8226 84.3755 86.7151C84.569 86.6076 85.1517 86.2812 85.67 85.9897C86.1882 85.6981 86.7359 85.4569 86.8871 85.4543C87.0382 85.4513 87.1619 85.3713 87.1619 85.2767C87.1619 85.1821 87.2989 85.1047 87.4666 85.1047C87.6342 85.1047 87.8152 85.0273 87.8686 84.9327C87.922 84.8381 88.134 84.7606 88.3398 84.7606C88.5455 84.7606 88.7575 84.6832 88.8109 84.5886C88.8643 84.494 89.1117 84.4166 89.3606 84.4166C89.6095 84.4166 89.8569 84.3392 89.9103 84.2446C89.9637 84.15 90.2463 84.0726 90.5385 84.0726C90.8306 84.0726 91.1133 83.9952 91.1667 83.9006C91.22 83.806 91.6441 83.7286 92.1089 83.7286C92.5758 83.7286 93.0041 83.64 93.0658 83.5312C93.2024 83.2891 97.5919 83.4323 99.1184 83.729ZM37.2166 89.7141L37.2923 90.523L37.3457 89.8552C37.3748 89.4879 37.341 89.1241 37.27 89.0463C37.1989 88.9684 37.175 89.269 37.2166 89.7141ZM34.9335 93.5762L34.4721 94.1352L34.9826 93.6299C35.4584 93.159 35.5652 93.0171 35.4439 93.0171C35.4168 93.0171 35.1871 93.2687 34.9335 93.5762ZM50.3733 93.1461C52.4679 93.1732 55.8955 93.1732 57.9902 93.1461C60.0848 93.119 58.371 93.0967 54.1817 93.0967C49.9925 93.0967 48.2787 93.119 50.3733 93.1461ZM82.6809 95.1243L81.7437 96.1993L82.7253 95.1728C83.2651 94.6078 83.7068 94.124 83.7068 94.0978C83.7068 93.9705 83.5518 94.1257 82.6809 95.1243ZM25.827 96.5003L25.2063 97.2314L25.8737 96.5515C26.4945 95.9189 26.6134 95.7693 26.4945 95.7693C26.469 95.7693 26.1686 96.0983 25.827 96.5003ZM27.1608 102.779L26.6197 103.424L27.2087 102.831C27.7568 102.279 27.8698 102.134 27.7497 102.134C27.7238 102.134 27.4588 102.424 27.1608 102.779ZM77.4614 112.454C77.4614 112.785 77.4936 112.921 77.5333 112.755C77.5725 112.59 77.5725 112.319 77.5333 112.153C77.4936 111.988 77.4614 112.123 77.4614 112.454ZM32.8145 123.076L32.2735 123.721L32.8624 123.128C33.4105 122.576 33.5236 122.431 33.4034 122.431C33.3775 122.431 33.1125 122.721 32.8145 123.076ZM109.374 124.366L108.913 124.925L109.424 124.42C109.704 124.142 109.934 123.89 109.934 123.861C109.934 123.728 109.804 123.845 109.374 124.366ZM37.2633 124.667C37.2633 125.093 37.2939 125.267 37.3312 125.054C37.3689 124.841 37.3689 124.493 37.3312 124.28C37.2939 124.067 37.2633 124.241 37.2633 124.667ZM30.8526 125.398L30.2318 126.129L30.8993 125.449C31.52 124.817 31.639 124.667 31.52 124.667C31.4945 124.667 31.1942 124.996 30.8526 125.398ZM36.1899 126.946L35.7285 127.505L36.2389 127C36.5197 126.722 36.7493 126.471 36.7493 126.441C36.7493 126.308 36.6198 126.425 36.1899 126.946ZM33.9912 129.526L33.5299 130.085L34.0403 129.58C34.5161 129.109 34.6229 128.967 34.5016 128.967C34.4745 128.967 34.2448 129.219 33.9912 129.526ZM27.0811 129.87L26.6197 130.429L27.1301 129.924C27.606 129.453 27.7128 129.311 27.5915 129.311C27.5644 129.311 27.3347 129.563 27.0811 129.87ZM95.6076 130.297C95.9767 130.334 96.542 130.333 96.864 130.296C97.1855 130.259 96.8832 130.23 96.1922 130.23C95.5012 130.231 95.2381 130.261 95.6076 130.297ZM32.4207 131.418L31.9594 131.977L32.4698 131.472C32.9456 131.001 33.0524 130.859 32.9311 130.859C32.904 130.859 32.6743 131.111 32.4207 131.418ZM24.5388 132.325C24.8093 132.648 24.818 132.648 25.0885 132.325C25.3504 132.012 25.3504 132.007 25.0885 132.223C24.8612 132.41 24.7662 132.41 24.5388 132.223C24.277 132.007 24.277 132.012 24.5388 132.325ZM8.00948 163.283C8.30237 163.614 8.5776 163.885 8.62079 163.885C8.66398 163.885 8.45942 163.614 8.16653 163.283C7.87363 162.952 7.5984 162.681 7.55522 162.681C7.51203 162.681 7.71658 162.952 8.00948 163.283Z" fill="#83D6F5"/>
<path fill-rule="evenodd" clip-rule="evenodd" d="M55.733 5.19778C53.1213 5.98644 51.1656 8.0196 50.4039 10.7382C49.5103 13.9264 50.1189 13.7192 41.665 13.72C33.4168 13.7204 33.0391 13.7764 31.778 15.1847C30.7524 16.3294 30.7815 15.9966 30.7815 26.616C30.7815 37.4961 30.7391 37.0983 32.0316 38.3772C33.2739 39.6067 31.5192 39.5314 57.8013 39.4811L81.4296 39.436L82.1705 38.9591C82.9448 38.4607 83.6864 37.4385 83.9962 36.443C84.2628 35.5855 84.2475 17.6522 83.9793 16.8089C83.0433 13.8675 82.5459 13.7204 73.5321 13.72C64.9128 13.7192 65.2458 13.8112 64.6388 11.2551C63.5913 6.84606 59.497 4.06122 55.733 5.19778ZM70.2855 19.4901C77.4496 21.5207 76.7358 32.8278 69.3699 33.9957C67.7126 34.2585 46.4498 34.2649 45.1408 34.003C38.2158 32.6179 37.4545 21.7503 44.1306 19.5843C44.5193 19.4583 44.908 19.3319 44.9944 19.3035C45.6823 19.0777 69.4492 19.2532 70.2855 19.4901ZM45.2951 24.3993C43.6179 25.2911 43.5429 27.8016 45.1632 28.8113L45.7796 29.1958L57.4012 29.1984C68.1551 29.2005 69.0636 29.1786 69.5693 28.8999C71.2808 27.9582 71.2627 25.323 69.5383 24.4087C68.4904 23.8527 46.3387 23.8445 45.2951 24.3993ZM69.8862 24.8147C71.3734 26.2892 70.6479 28.6699 68.6302 28.9365C68.1551 28.9993 62.7786 29.0263 56.6823 28.9967L45.5978 28.9433L45.034 28.472C43.7973 27.4387 43.9272 25.3974 45.2767 24.662C46.1459 24.189 69.4005 24.333 69.8862 24.8147ZM13.5062 24.9299C11.9494 25.4051 11.6353 25.5285 10.863 25.9684C8.28313 27.4383 5.29332 31.1657 5.34672 32.8458C5.35064 32.9701 5.55677 32.5921 5.80412 32.0064C7.36597 28.3112 10.0228 26.0248 13.8505 25.0826C14.293 24.9738 16.8497 24.9011 20.2502 24.9011H25.913L25.9142 29.7604C25.9161 36.7474 26.1513 38.3476 27.4906 40.4792C28.7846 42.5395 30.4144 43.7577 32.7917 44.4427C34.0037 44.7919 80.6727 44.7885 81.9793 44.4389C84.8266 43.6777 86.7308 42.0247 87.9416 39.264C88.7897 37.3306 88.8894 36.3836 88.8894 30.2622V24.9011L94.661 24.9071C100.422 24.9131 100.861 24.9493 102.651 25.5582C106.102 26.7317 108.957 30.3328 109.767 34.5337C110.005 35.7678 109.939 71.4475 109.698 71.3963C109.612 71.3782 109.047 71.168 108.442 70.9293C106.467 70.1501 104.284 69.5678 101.453 69.0656C99.8538 68.7818 92.4792 68.7826 90.9311 69.0669C88.5549 69.5029 87.7414 69.6908 86.3374 70.1282C86.0135 70.2292 85.5188 70.3802 85.2381 70.4636C83.094 71.1 78.6106 73.3013 77.0865 74.4658C76.8572 74.6409 76.6228 74.7841 76.5651 74.7841C76.4598 74.7841 75.0586 75.795 74.9121 75.9769C74.8689 76.0303 74.4802 76.3412 74.0484 76.6671C71.1363 78.8671 67.5277 82.9907 65.1963 86.7818L64.5351 87.8568L55.3144 87.8573C45.3105 87.8581 45.643 87.8289 44.8538 88.7792C43.8978 89.9308 44.1777 91.8414 45.4247 92.674C45.9174 93.0029 46.2308 93.0158 53.8189 93.0167C58.5186 93.0167 61.7381 93.0816 61.7919 93.1775C61.8418 93.2657 61.6615 93.943 61.3914 94.6826C61.1213 95.4223 60.7267 96.6272 60.5143 97.3604L60.128 98.6935L53.0321 98.6939C46.2288 98.6948 45.9155 98.7089 45.4247 99.0366C43.8907 100.061 43.9131 102.534 45.4655 103.527C45.8931 103.801 46.5445 103.83 52.5327 103.841L59.1288 103.853L59.0997 104.842L59.0702 105.832L59.2344 105.015C59.5222 103.581 60.0235 103.683 52.6556 103.669C46.7553 103.658 46.0474 103.627 45.6351 103.362C44.2029 102.441 44.1024 100.381 45.4377 99.3075C45.8668 98.9631 46.1106 98.9489 53.0486 98.8655L60.2163 98.7795L60.4032 98.3494C60.5061 98.1129 60.7424 97.3776 60.9277 96.7153C61.2784 95.4631 61.3137 95.3616 61.8704 93.9873C62.0565 93.5276 62.1637 93.1018 62.1087 93.0412C62.0534 92.9806 58.3439 92.8924 53.8649 92.8451L45.7215 92.7591L45.2437 92.2577C44.0607 91.0158 44.2983 89.0794 45.729 88.2972C46.1577 88.0632 47.3996 88.0288 55.4401 88.0288H64.6596L65.2513 87.0398C66.5363 84.8918 67.4115 83.7247 69.651 81.1725C75.0134 75.0614 82.4116 70.8042 89.9888 69.4694C92.5938 69.0101 93.4611 68.9357 96.1922 68.9357C98.9291 68.9357 99.6696 69.0002 102.474 69.4814C104.001 69.7437 107.442 70.7169 108.727 71.2497C109.316 71.4939 109.864 71.6492 109.945 71.5946C110.28 71.3675 110.125 35.2488 109.782 33.7807C108.857 29.8197 105.877 26.383 102.396 25.2606C102.007 25.1355 101.484 24.9648 101.233 24.8809C100.983 24.7975 98.0677 24.7291 94.7552 24.7291H88.7324L88.7292 30.0184C88.7253 36.9969 88.5647 38.0405 87.1328 40.4061C86.0814 42.1425 84.2223 43.5965 82.2934 44.1912C81.3162 44.4922 35.4121 44.6259 33.5405 44.3331C31.1313 43.9564 29.0579 42.6207 27.8482 40.6663C27.6048 40.2737 27.37 39.9133 27.3264 39.866C26.4941 38.9625 26.3092 37.4699 26.2271 31.0075L26.1486 24.8151L20.1022 24.7884C16.5733 24.7734 13.8269 24.8319 13.5062 24.9299ZM5.108 33.5876C5.04597 33.8714 4.93172 34.3746 4.85398 34.7057C4.77663 35.0368 4.71263 37.4437 4.71224 40.0548C4.71146 45.5655 4.45782 46.5529 3.03811 46.58C2.8787 46.583 2.61133 46.6991 2.44368 46.838C2.07147 47.1463 2.25443 47.1562 2.98392 46.8677C4.80372 46.1474 4.82139 46.0824 4.90541 39.7778C4.95292 36.2164 5.03498 34.4477 5.17122 34.0645C5.27958 33.7588 5.33494 33.4104 5.2945 33.2905C5.25445 33.1701 5.17043 33.3038 5.108 33.5876ZM2.35573 53.2849C2.48529 53.3757 2.72597 53.4509 2.89048 53.4522C3.30312 53.4557 4.19163 54.2284 4.47588 54.8313C4.68358 55.2708 4.71185 61.3006 4.71381 105.866C4.71617 155.748 4.72049 156.42 5.02869 157.762C5.97766 161.886 8.90465 165.334 12.4068 166.452C12.7955 166.576 13.3185 166.746 13.569 166.83C13.8277 166.916 32.7265 166.981 57.3439 166.981C100.193 166.981 101.259 166.969 102.474 166.46C102.647 166.388 103.036 166.227 103.338 166.104C106.015 165.012 108.52 162.061 109.587 158.742C109.998 157.465 110.009 157.325 110.061 152.646C110.126 146.754 110.257 147.233 108.756 147.898C108.583 147.975 108.159 148.131 107.814 148.245C107.468 148.359 107.044 148.513 106.871 148.587C106.699 148.662 106.381 148.759 106.165 148.804C105.949 148.849 105.383 149.001 104.908 149.141C104.433 149.281 103.585 149.483 103.024 149.59C100.855 150.004 100.545 150.086 101.083 150.106C102.129 150.145 106.034 149.14 108.666 148.153C109.307 147.913 109.855 147.716 109.883 147.716C110.022 147.716 109.914 156.621 109.767 157.243C108.672 161.878 106.352 164.735 102.457 166.244L101.218 166.723L57.9509 166.771C9.34007 166.825 13.5784 166.94 10.8827 165.495C8.16181 164.037 6.20656 161.451 5.22383 158.009C4.98276 157.163 4.95527 153.057 4.87597 106.004C4.80726 65.2981 4.74954 54.8395 4.59171 54.5367C4.27957 53.9394 3.43505 53.3378 2.74835 53.2243C2.32 53.1533 2.19515 53.1727 2.35573 53.2849ZM37.6186 53.4892C37.2299 53.736 36.7297 54.3071 36.4745 54.7952C36.1671 55.383 36.2056 60.2952 36.5232 60.9927C37.3073 62.7137 39.6414 62.8384 40.6332 61.2129C41.2099 60.2668 41.1773 55.2192 40.5888 54.3738C39.8919 53.3731 38.4686 52.9491 37.6186 53.4892ZM75.037 53.5649C73.9718 54.1802 73.4606 57.1638 73.887 60.278C74.2136 62.6625 77.3216 63.1446 78.2694 60.9574C78.6511 60.0763 78.6365 55.5064 78.249 54.6623C77.6852 53.4329 76.1642 52.9134 75.037 53.5649ZM39.6956 53.798C41.3206 54.8833 41.3878 60.9596 39.7851 61.8992C38.705 62.5322 37.1294 61.9413 36.6673 60.73C36.312 59.7977 36.3422 55.6372 36.7105 54.8343C37.2872 53.5769 38.6539 53.1026 39.6956 53.798ZM77.2302 53.798C78.8505 54.8799 78.94 60.6693 77.3538 61.8076C76.4571 62.4514 74.9702 62.0802 74.3342 61.0542C73.854 60.2797 73.9109 55.2996 74.4088 54.5354C75.0963 53.4797 76.2871 53.1684 77.2302 53.798ZM51.3325 57.4381C50.2547 58.1227 49.8091 59.6472 50.3435 60.8203C50.921 62.088 53.7043 64.1581 55.124 64.3753L55.6737 64.4596L55.0427 64.2261C53.3957 63.6163 52.0388 62.6909 51.038 61.4941C48.9206 58.9617 51.7667 55.9434 54.1613 58.1821C55.3537 59.2967 56.68 59.9073 57.5924 59.7615C59.0887 59.5224 59.1719 59.476 61.0019 57.8643C62.3789 56.6512 64.5446 57.7185 64.5465 59.611C64.5481 61.1673 62.64 63.1114 60.2034 64.0356C59.6125 64.2596 59.2783 64.448 59.4613 64.4536C60.3557 64.4806 62.6368 63.0899 63.7134 61.8609C66.4174 58.7738 63.0824 55.3245 60.2619 58.2909C58.8394 59.7869 55.751 59.8222 54.6529 58.3549C53.7813 57.1904 52.3466 56.7939 51.3325 57.4381ZM56.0663 64.6355C56.2822 64.7111 56.883 64.7731 57.4012 64.7731C57.9195 64.7731 58.5202 64.7111 58.7361 64.6355C58.9831 64.5486 58.4884 64.4978 57.4012 64.4978C56.3141 64.4978 55.8193 64.5486 56.0663 64.6355ZM94.9833 73.8806C95.8734 73.9111 97.2868 73.9111 98.1243 73.8801C98.9621 73.8492 98.2338 73.8242 96.5063 73.8242C94.7788 73.8242 94.0936 73.8496 94.9833 73.8806ZM100.433 74.1055C100.864 74.1971 101.677 74.3549 102.239 74.4564C102.8 74.5579 103.471 74.7049 103.731 74.7832C104.63 75.0541 105.143 75.1556 105.038 75.0412C104.833 74.8167 101.914 74.1515 100.59 74.0276L99.6473 73.9395L100.433 74.1055ZM90.9703 74.2147C91.1215 74.2577 91.3688 74.2577 91.52 74.2147C91.6712 74.1713 91.5475 74.136 91.2452 74.136C90.9428 74.136 90.8192 74.1713 90.9703 74.2147ZM106.471 75.6445C107.201 75.9219 107.829 76.1145 107.868 76.0728C107.906 76.0307 107.839 75.9615 107.718 75.9185C107.598 75.8759 107.071 75.6807 106.547 75.4846C106.023 75.2885 105.493 75.1307 105.369 75.1341C105.245 75.1371 105.741 75.3672 106.471 75.6445ZM110.261 77.2576C110.421 77.4175 111.976 78.2212 111.976 78.1438C111.976 78.0471 110.476 77.1922 110.306 77.1922C110.245 77.1922 110.225 77.2214 110.261 77.2576ZM112.133 78.306C112.133 78.3507 112.362 78.5102 112.643 78.6603L113.153 78.9329L112.761 78.5825C112.383 78.2449 112.133 78.1348 112.133 78.306ZM113.31 79.0314C113.397 79.1295 113.998 79.5986 114.645 80.0742C117.486 82.1607 121.411 86.3388 122.598 88.5393C122.753 88.8261 122.939 89.0609 123.011 89.0609C123.144 89.0609 122.762 88.4533 121.657 86.9108C120.572 85.3966 117.09 81.7745 115.649 80.6616C114.154 79.5079 113.054 78.7407 113.31 79.0314ZM76.4767 80.9889L75.9329 81.5174L76.5219 81.0542C77.0425 80.6453 77.2117 80.4604 77.0656 80.4604C77.0409 80.4604 76.7759 80.6982 76.4767 80.9889ZM74.09 83.1313C73.7672 83.4598 73.5591 83.7286 73.6271 83.7286C73.6954 83.7286 73.991 83.4577 74.2839 83.1265C74.9675 82.3538 74.8505 82.3568 74.09 83.1313ZM97.1466 83.7501C97.1934 83.8326 97.5573 83.9006 97.9551 83.9006C98.3532 83.9006 98.6492 83.8722 98.6135 83.8374C98.4655 83.6946 97.0685 83.6116 97.1466 83.7501ZM94.1113 83.8473C94.2625 83.8903 94.5098 83.8903 94.661 83.8473C94.8121 83.8038 94.6884 83.7686 94.3861 83.7686C94.0838 83.7686 93.9601 83.8038 94.1113 83.8473ZM92.5408 84.0193C92.692 84.0623 92.9393 84.0623 93.0905 84.0193C93.2416 83.9758 93.118 83.9406 92.8156 83.9406C92.5133 83.9406 92.3897 83.9758 92.5408 84.0193ZM98.7964 83.9625C98.8326 83.9969 99.286 84.0705 99.8043 84.1259C100.403 84.1904 100.632 84.1719 100.433 84.076C100.135 83.9328 98.6575 83.8305 98.7964 83.9625ZM100.838 84.3078C100.874 84.3427 101.186 84.4226 101.532 84.4863C101.982 84.5688 102.093 84.5517 101.924 84.4257C101.712 84.2674 100.681 84.1556 100.838 84.3078ZM102.474 84.7606C102.944 84.9817 103.336 84.9817 103.024 84.7606C102.894 84.669 102.647 84.5981 102.474 84.6033L102.16 84.6127L102.474 84.7606ZM71.6828 85.8357L71.2215 86.3947L71.7319 85.8895C72.2077 85.4186 72.3145 85.2767 72.1932 85.2767C72.1661 85.2767 71.9364 85.5282 71.6828 85.8357ZM104.892 85.6366C105.272 85.8211 105.615 85.9363 105.655 85.8925C105.742 85.797 104.631 85.2715 104.379 85.2887C104.281 85.2956 104.512 85.4521 104.892 85.6366ZM105.864 86.0301C106.024 86.19 107.578 86.9938 107.578 86.9164C107.578 86.8196 106.078 85.9647 105.908 85.9647C105.848 85.9647 105.828 85.994 105.864 86.0301ZM70.6498 87.1258C70.1979 87.7231 70.0067 88.0288 70.0845 88.0288C70.1276 88.0288 70.3522 87.7579 70.5827 87.4268C71.0106 86.8123 71.0625 86.5805 70.6498 87.1258ZM108.049 87.3408C108.265 87.5257 108.513 87.6771 108.599 87.6771C108.685 87.6771 108.579 87.5257 108.363 87.3408C108.147 87.1559 107.9 87.0045 107.814 87.0045C107.727 87.0045 107.833 87.1559 108.049 87.3408ZM33.5785 87.6685C33.1832 87.9433 32.8333 88.2438 32.8019 88.3367C32.7705 88.4292 31.8965 89.4931 30.86 90.701C29.8235 91.9085 28.9048 92.9832 28.8184 93.0889C27.2428 95.0206 24.8957 97.6601 24.7579 97.6554C24.659 97.6519 24.0661 96.8972 23.4407 95.9783C22.3142 94.3231 20.5003 91.7227 19.9797 91.0171C17.9597 88.2787 14.3947 91.2755 16.205 94.1902C16.4799 94.6332 16.7453 95.0339 16.7944 95.0812C16.8434 95.1286 17.2015 95.6304 17.5898 96.1963C17.9781 96.7622 19.0382 98.2793 19.9452 99.5681C20.8521 100.857 21.7708 102.168 21.9868 102.483C24.3527 105.929 24.7336 105.742 31.2609 97.9272C31.7313 97.3634 32.2578 96.7377 32.4305 96.5356C35.6009 92.8335 36.4254 91.8337 36.7886 91.2506C38.2511 88.9026 35.7768 86.1415 33.5785 87.6685ZM35.6963 87.5949C36.5157 87.9704 36.9735 88.7719 36.9735 89.8315C36.9735 90.8176 36.8675 91.0227 35.5656 92.5523C35.0662 93.1393 34.2271 94.1236 33.701 94.7402C32.7124 95.8992 29.8478 99.2847 27.8117 101.699C25.8466 104.031 25.4367 104.37 24.5855 104.37C24.0115 104.37 23.0504 103.719 22.5953 103.023C22.3684 102.676 21.7724 101.811 21.271 101.102C15.2891 92.6421 15.4249 92.8933 16.0814 91.503C17.1595 89.22 18.7854 89.6543 20.9958 92.8159C21.8341 94.0144 22.562 95.0339 22.6142 95.0812C22.666 95.1286 22.8808 95.4382 23.0916 95.7693C23.5506 96.4917 23.8105 96.8525 24.3794 97.5582L24.8093 98.0914L25.6358 97.1415C26.0905 96.619 27.3107 95.1879 28.3473 93.9615C29.3838 92.735 30.6276 91.2661 31.1113 90.6971C31.595 90.1282 32.3371 89.2497 32.7603 88.744C33.8863 87.3997 34.6319 87.1081 35.6963 87.5949ZM109.306 88.0826C109.306 88.1247 109.712 88.4941 110.209 88.9031C110.705 89.312 111.483 90.0293 111.936 90.4968C112.733 91.3185 113.124 91.5069 112.407 90.7234C111.687 89.9369 109.306 87.9089 109.306 88.0826ZM69.7075 88.5019C69.2556 89.0992 69.0644 89.4049 69.1422 89.4049C69.1853 89.4049 69.4099 89.134 69.6404 88.8029C70.0684 88.1884 70.1202 87.9566 69.7075 88.5019ZM93.9935 88.7418C85.2938 90.151 78.8898 96.8383 77.2894 106.186C77.1018 107.282 77.0692 111.912 77.2443 112.594C77.3004 112.812 77.3527 111.535 77.3605 109.755C77.3743 106.589 77.3958 106.392 78.0217 103.676C79.2537 98.3292 83.6695 92.9462 88.8058 90.5303C90.1458 89.8999 90.4917 89.7743 91.9519 89.3877C93.9566 88.8571 98.3171 88.7784 99.9343 89.2437C100.295 89.3473 100.872 89.5137 101.218 89.6139C107.738 91.4991 113.25 97.8154 114.621 104.972C115.058 107.255 115.117 107.797 115.117 109.576C115.117 116.564 111.245 124.18 106.143 127.228C103.616 128.738 103.078 128.995 101.218 129.58C100.527 129.797 100.133 129.98 100.343 129.987C101.44 130.023 104.868 128.395 106.95 126.851C110.803 123.992 113.857 119.15 114.782 114.432C114.875 113.959 115.023 113.209 115.112 112.765C115.479 110.932 115.253 106.545 114.671 104.198C114.103 101.912 112.376 97.9641 111.66 97.3174C111.608 97.2701 111.459 97.0619 111.33 96.8547C109.605 94.0862 105.422 90.784 102.317 89.7403C101.972 89.6238 101.512 89.4681 101.296 89.3937C99.1961 88.6696 96.1294 88.3956 93.9935 88.7418ZM123.514 89.9209C123.742 90.3467 124.146 91.1048 124.41 91.6058C124.675 92.1068 124.922 92.483 124.96 92.4418C125.04 92.354 123.883 90.2039 123.419 89.5769C123.212 89.2987 123.246 89.42 123.514 89.9209ZM68.5725 90.2611C68.3451 90.6378 68.159 91.0033 68.159 91.0734C68.159 91.1439 68.2541 91.0489 68.3707 90.8623C68.8819 90.0418 69.132 89.5769 69.0617 89.5769C69.0201 89.5769 68.7998 89.8848 68.5725 90.2611ZM79.4579 91.254L78.9169 91.8991L79.5058 91.3065C80.0539 90.7543 80.167 90.609 80.0468 90.609C80.0209 90.609 79.7559 90.8993 79.4579 91.254ZM113.232 91.7228C113.232 91.7933 113.585 92.2745 114.017 92.7918C114.449 93.3095 114.802 93.8041 114.802 93.8909C114.802 93.9782 114.879 94.0492 114.973 94.0492C115.14 94.0492 114.656 93.3323 113.709 92.1769C113.447 91.8565 113.232 91.6522 113.232 91.7228ZM78.1218 92.8881L77.6605 93.4472L78.1709 92.9419C78.4516 92.6641 78.6813 92.4125 78.6813 92.3828C78.6813 92.25 78.5517 92.3669 78.1218 92.8881ZM77.4029 93.8342C76.951 94.4315 76.7598 94.7372 76.8375 94.7372C76.8807 94.7372 77.1053 94.4663 77.3358 94.1352C77.7637 93.5207 77.8156 93.2889 77.4029 93.8342ZM125.877 94.6852C126.142 95.3793 126.267 95.5792 126.267 95.3083C126.267 95.0946 125.799 94.0492 125.704 94.0492C125.665 94.0492 125.744 94.3356 125.877 94.6852ZM115.681 95.1243C116 95.6682 116.29 96.1133 116.325 96.1133C116.431 96.1133 115.863 95.1165 115.466 94.6056C115.265 94.3468 115.362 94.5803 115.681 95.1243ZM126.693 96.8512C126.925 97.575 127.142 98.1366 127.176 98.0992C127.257 98.0102 126.585 95.9026 126.409 95.6953C126.334 95.6072 126.462 96.1275 126.693 96.8512ZM116.603 96.7584C116.74 97.0658 116.886 97.3174 116.927 97.3174C117.083 97.3174 116.982 97.0435 116.674 96.6293L116.354 96.1993L116.603 96.7584ZM74.8261 98.3654C74.6879 98.6582 74.6027 98.9278 74.6369 98.9652C74.671 99.0026 74.8163 98.7631 74.96 98.4333C75.2828 97.6915 75.1709 97.6347 74.8261 98.3654ZM127.209 98.4294C127.209 98.4733 127.308 98.841 127.429 99.2465C127.55 99.652 127.735 100.409 127.842 100.93C128.121 102.294 128.322 102.911 128.206 102.048C128.011 100.588 127.209 97.6782 127.209 98.4294ZM117.948 99.7341C117.962 99.9943 118.87 102.518 118.877 102.317C118.888 101.998 118.263 100.033 118.082 99.8201C118.006 99.7303 117.945 99.6916 117.948 99.7341ZM118.987 103.166C119.111 103.908 119.201 104.048 119.197 103.496C119.196 103.267 119.126 102.964 119.04 102.822C118.932 102.64 118.916 102.742 118.987 103.166ZM128.342 103.338C128.341 103.669 128.397 104.133 128.466 104.37C128.642 104.974 128.648 104.343 128.475 103.424L128.345 102.736L128.342 103.338ZM63.6902 104.808C63.6302 105.247 63.6133 105.641 63.6525 105.684C63.6918 105.727 63.7731 105.403 63.8331 104.964C63.8932 104.525 63.9101 104.131 63.8708 104.088C63.8316 104.045 63.7503 104.369 63.6902 104.808ZM72.9604 104.468C72.9023 104.72 72.8854 104.96 72.9223 105C72.9596 105.041 73.037 104.868 73.0947 104.615C73.1528 104.363 73.1697 104.124 73.1328 104.083C73.0955 104.043 73.0181 104.216 72.9604 104.468ZM119.311 104.8C119.36 105.273 119.426 105.692 119.457 105.732C119.575 105.881 119.486 104.612 119.356 104.284C119.268 104.062 119.252 104.246 119.311 104.8ZM128.625 105.76C128.626 106.178 128.695 106.636 128.778 106.778C128.879 106.95 128.897 106.722 128.832 106.09C128.712 104.908 128.622 104.765 128.625 105.76ZM72.75 106.262C72.75 106.593 72.7822 106.728 72.8218 106.563C72.8611 106.397 72.8611 106.126 72.8218 105.961C72.7822 105.795 72.75 105.931 72.75 106.262ZM119.647 108.667C119.715 111.733 119.555 113.418 118.95 115.974C118.75 116.822 118.616 117.549 118.654 117.59C118.691 117.63 118.75 117.556 118.785 117.424C119.128 116.135 119.36 114.984 119.666 113.07C119.841 111.971 119.856 107.191 119.687 106.348C119.63 106.064 119.612 107.107 119.647 108.667ZM58.8398 108.111C58.7884 109.223 58.8041 110.829 58.8751 111.68C58.9874 113.03 59.007 112.77 59.0271 109.659C59.053 105.669 58.9807 105.072 58.8398 108.111ZM72.5929 107.466C72.5929 107.797 72.6251 107.933 72.6648 107.767C72.704 107.601 72.704 107.331 72.6648 107.165C72.6251 106.999 72.5929 107.135 72.5929 107.466ZM128.937 107.238C128.937 107.484 129.985 108.498 130.238 108.498C130.343 108.497 130.207 108.349 129.937 108.168C129.666 107.987 129.33 107.661 129.191 107.442C129.051 107.224 128.937 107.132 128.937 107.238ZM63.5092 109.53C63.5092 110.807 63.534 111.33 63.5642 110.691C63.5944 110.053 63.5944 109.008 63.5642 108.369C63.534 107.73 63.5092 108.253 63.5092 109.53ZM72.5929 111.766C72.5929 112.097 72.6251 112.233 72.6648 112.067C72.704 111.902 72.704 111.631 72.6648 111.465C72.6251 111.3 72.5929 111.435 72.5929 111.766ZM77.4382 113.435C77.4261 113.783 77.6605 114.873 78.0229 116.152C79.6562 121.916 84.1972 127.025 89.6747 129.262C90.4996 129.599 90.7819 129.69 92.5801 130.2C93.5785 130.484 98.9967 130.484 99.5687 130.2C99.8797 130.046 99.7164 130.032 98.7835 130.131C94.7383 130.564 91.2562 129.977 88.1827 128.344C86.3912 127.392 85.7477 126.95 84.1108 125.543C81.2416 123.075 78.7971 118.758 77.7453 114.3C77.5839 113.616 77.4457 113.227 77.4382 113.435ZM59.0502 113.943C59.0502 114.887 59.6093 118.219 60.0989 120.195C60.3215 121.093 60.5383 122.003 60.5807 122.216L60.6572 122.603L53.6898 122.604C49.0894 122.605 46.5083 122.67 46.0937 122.795C43.97 123.438 43.6194 126.474 45.5448 127.548C46.2386 127.935 46.2417 127.935 54.5339 127.935C62.2897 127.935 62.8359 127.955 62.9336 128.236C63.093 128.695 64.4244 131.19 65.0715 132.242C65.3875 132.756 65.6463 133.233 65.6463 133.301C65.6463 133.369 61.1763 133.448 55.7129 133.475C44.7981 133.531 45.4981 133.456 44.7196 134.643C43.8578 135.956 44.2959 137.718 45.6603 138.426C46.3085 138.763 46.6352 138.772 58.1456 138.773L69.9651 138.774L71.0688 139.848C75.2871 143.951 80.0072 146.924 85.0417 148.648C86.7626 149.237 87.7846 149.5 87.8934 149.381C87.9432 149.326 87.7815 149.235 87.5337 149.178C82.187 147.957 75.4056 144.017 71.143 139.654L70.1221 138.609L58.5308 138.605C50.4314 138.601 46.7266 138.541 46.2331 138.405C44.4365 137.91 43.8786 135.791 45.1711 134.375L45.7117 133.784H55.7483C62.3836 133.784 65.8182 133.724 65.8834 133.609C65.938 133.512 65.5304 132.641 64.9784 131.673C64.426 130.705 63.7358 129.435 63.4448 128.849C62.7672 127.488 63.5736 127.596 54.049 127.593C45.8919 127.591 45.8244 127.588 45.354 127.222C44.1385 126.274 44.1813 124.269 45.4369 123.334L45.9563 122.947H53.3717C61.4201 122.947 61.2238 122.971 60.8119 122.032C60.7212 121.826 60.6011 121.463 60.5445 121.227C60.4884 120.99 60.3714 120.526 60.2842 120.195C59.9423 118.894 59.5783 116.813 59.3525 114.864C59.1649 113.246 59.0502 112.896 59.0502 113.943ZM63.6203 113.759C63.629 114.035 63.6961 114.454 63.7695 114.69C63.8594 114.98 63.8732 114.84 63.8119 114.26C63.7102 113.293 63.5964 112.996 63.6203 113.759ZM130.35 114.959C129.971 115.117 129.901 115.19 130.124 115.197C130.302 115.202 130.584 115.093 130.752 114.954C131.11 114.657 131.078 114.658 130.35 114.959ZM128.864 115.74C128.558 116.034 128.309 116.361 128.309 116.466C128.309 116.573 128.423 116.481 128.563 116.262C128.702 116.044 129.038 115.717 129.309 115.536C129.579 115.356 129.715 115.207 129.61 115.207C129.505 115.207 129.169 115.447 128.864 115.74ZM63.9454 115.98C63.9431 116.17 64.0016 116.479 64.0758 116.669C64.2477 117.107 64.2477 116.655 64.0758 116.066C63.9749 115.721 63.949 115.704 63.9454 115.98ZM128.061 117.207C127.819 118.336 127.531 119.486 127.229 120.531C127.052 121.142 126.939 121.676 126.976 121.717C127.014 121.758 127.089 121.646 127.142 121.466C127.196 121.287 127.276 121.025 127.321 120.883C127.609 119.973 128.301 116.86 128.232 116.785C128.196 116.746 128.119 116.936 128.061 117.207ZM64.2548 117.615C64.2548 117.756 64.3157 118.027 64.3899 118.217C64.4751 118.433 64.5249 118.465 64.5249 118.303C64.5249 118.161 64.4641 117.89 64.3899 117.701C64.3047 117.484 64.2548 117.452 64.2548 117.615ZM117.199 121.104C116.841 121.881 116.363 122.846 116.137 123.248C115.912 123.65 115.759 123.979 115.798 123.979C116.009 123.979 118.049 119.909 117.913 119.76C117.879 119.723 117.557 120.327 117.199 121.104ZM33.6869 122.403C33.4278 122.576 32.5797 123.484 31.8023 124.422C31.0249 125.36 30.2122 126.321 29.9963 126.558C29.5471 127.051 26.2338 130.966 25.4454 131.934C24.7697 132.764 24.851 132.798 23.7795 131.246C23.273 130.513 22.5518 129.488 22.1772 128.967C21.2636 127.698 21.2279 127.648 20.4163 126.483C19.5093 125.183 18.9938 124.84 17.9385 124.839C16.3181 124.839 15.134 126.955 15.8874 128.505C16.0464 128.833 16.8957 130.1 17.1187 130.343C17.1623 130.391 17.4889 130.855 17.8454 131.375C18.5376 132.386 22.0579 137.433 22.4552 137.984C24.3751 140.646 25.1925 140.15 31.4882 132.504C31.8812 132.026 35.3308 127.935 35.9641 127.195C36.8911 126.112 37.2205 125.427 37.2201 124.584C37.2181 122.694 35.1561 121.421 33.6869 122.403ZM35.8467 122.474C36.8923 123.117 37.4741 125.266 36.7662 125.871C36.7109 125.918 36.4651 126.228 36.2197 126.559C35.9743 126.89 35.3394 127.666 34.8086 128.283C33.6629 129.614 32.4643 131.027 29.9185 134.045C24.8773 140.021 24.2895 140.298 22.4061 137.589C22.0359 137.057 21.2781 135.965 20.7214 135.163C20.165 134.361 19.6228 133.587 19.5164 133.443C18.7492 132.405 16.3892 128.966 16.1532 128.543C14.9671 126.412 17.5667 123.921 19.3225 125.506C19.6244 125.778 20.3978 126.765 21.0414 127.699C22.0818 129.208 23.1599 130.729 23.7921 131.579C23.9106 131.738 24.1266 132.067 24.2715 132.31C24.5903 132.843 24.9173 132.871 25.2911 132.399C25.4446 132.206 26.3362 131.147 27.2726 130.046C28.209 128.946 29.434 127.498 29.9943 126.829C33.8271 122.255 34.5801 121.695 35.8467 122.474ZM76.2773 123.648C76.4335 123.939 76.6616 124.268 76.7841 124.379C76.9066 124.49 76.8093 124.252 76.567 123.85C76.0586 123.006 75.8579 122.866 76.2773 123.648ZM126.11 123.671C126.11 123.723 126.003 124.045 125.872 124.388C125.742 124.731 125.667 125.011 125.708 125.011C125.847 125.011 126.308 123.794 126.209 123.686C126.155 123.626 126.11 123.62 126.11 123.671ZM114.944 125.14C114.584 125.684 113.469 127.018 112.465 128.103C111.462 129.189 110.923 129.835 111.269 129.539C112.674 128.335 116.108 124.151 115.69 124.151C115.639 124.151 115.303 124.596 114.944 125.14ZM78.6028 126.903C78.94 127.282 79.2514 127.591 79.2946 127.591C79.3377 127.591 79.0971 127.282 78.7598 126.903C78.4225 126.525 78.1112 126.215 78.068 126.215C78.0248 126.215 78.2655 126.525 78.6028 126.903ZM124.612 127.118L124.364 127.677L124.684 127.247C124.992 126.833 125.092 126.559 124.936 126.559C124.895 126.559 124.749 126.811 124.612 127.118ZM79.3256 127.806C79.3633 127.83 79.7461 128.198 80.176 128.623L80.9585 129.397L80.2584 128.58C79.8733 128.131 79.4905 127.763 79.4076 127.763C79.3248 127.763 79.2879 127.783 79.3256 127.806ZM123.522 129.01C121.509 132.359 119.028 135.335 116.354 137.604C115.006 138.749 114.726 139.083 115.784 138.285C118.395 136.314 122.562 131.35 124.066 128.42C124.608 127.362 124.332 127.663 123.522 129.01ZM109.306 130.96C108.658 131.467 108.057 131.885 107.971 131.89C107.884 131.895 107.637 132.057 107.421 132.25L107.029 132.6L107.578 132.306C108.009 132.076 110.228 130.526 110.549 130.232C111.07 129.752 110.193 130.266 109.306 130.96ZM86.3767 133.181C86.5926 133.317 86.84 133.427 86.9263 133.427C87.0127 133.427 86.9067 133.317 86.6908 133.181C86.4748 133.046 86.2275 132.936 86.1411 132.936C86.0547 132.936 86.1607 133.046 86.3767 133.181ZM105.576 133.196C105.295 133.33 105.065 133.48 105.065 133.529C105.065 133.618 106.167 133.15 106.301 133.004C106.434 132.858 106.094 132.948 105.576 133.196ZM72.949 134.816C73.7229 135.667 74.3911 136.364 74.4343 136.364C74.4775 136.364 73.8799 135.667 73.1061 134.816C72.3322 133.964 71.664 133.268 71.6208 133.268C71.5776 133.268 72.1752 133.964 72.949 134.816ZM104.202 133.781C104.029 133.861 103.754 133.974 103.59 134.031C103.427 134.089 103.329 134.175 103.373 134.223C103.418 134.272 103.798 134.159 104.22 133.971C104.642 133.784 104.881 133.631 104.751 133.633C104.622 133.634 104.374 133.701 104.202 133.781ZM124.894 135.631C123.309 137.714 120.865 140.33 119.301 141.622C118.735 142.088 118.287 142.526 118.305 142.596C118.444 143.149 128.778 154.139 129.549 154.554C133.6 156.733 138.621 152.623 137.733 147.854C137.291 145.479 137.696 145.989 127.667 135.21L126.319 133.761L124.894 135.631ZM101.139 134.816C100.827 135.037 101.219 135.037 101.689 134.816L102.003 134.668L101.689 134.658C101.516 134.653 101.269 134.724 101.139 134.816ZM92.3445 135.16C92.5604 135.235 92.9138 135.296 93.1297 135.294C93.4823 135.291 93.4745 135.277 93.0512 135.16C92.3869 134.974 91.8168 134.974 92.3445 135.16ZM95.4513 135.458C95.9079 135.493 96.6146 135.493 97.0218 135.458C97.4293 135.422 97.056 135.394 96.1922 135.394C95.3284 135.395 94.9951 135.424 95.4513 135.458ZM77.1108 138.678C77.1108 138.722 77.5172 139.058 78.0138 139.423C79.1136 140.233 79.3095 140.361 79.3095 140.269C79.3095 140.23 78.8148 139.838 78.2101 139.398C77.6055 138.957 77.1108 138.633 77.1108 138.678ZM114.486 139.124C114.271 139.305 114.166 139.451 114.253 139.45C114.46 139.448 115.034 138.969 114.946 138.871C114.908 138.829 114.701 138.943 114.486 139.124ZM113.314 139.938C112.97 140.178 112.299 140.605 111.822 140.887C110.745 141.522 110.387 141.871 111.347 141.35C111.904 141.048 113.658 139.947 114.004 139.682C114.395 139.383 113.781 139.611 113.314 139.938ZM109.777 142.04C109.475 142.221 109.298 142.369 109.384 142.369C109.471 142.369 109.789 142.221 110.091 142.04C110.393 141.859 110.57 141.711 110.484 141.711C110.397 141.711 110.079 141.859 109.777 142.04ZM106.165 143.588C105.955 143.736 105.955 143.755 106.165 143.755C106.294 143.755 106.506 143.68 106.636 143.588C106.845 143.44 106.845 143.421 106.636 143.421C106.506 143.421 106.294 143.497 106.165 143.588ZM105.222 143.932C105.013 144.08 105.013 144.099 105.222 144.099C105.352 144.099 105.564 144.024 105.694 143.932C105.903 143.784 105.903 143.765 105.694 143.765C105.564 143.765 105.352 143.841 105.222 143.932ZM89.125 144.62C89.2978 144.701 89.5451 144.768 89.6747 144.768C89.8231 144.768 89.794 144.713 89.5962 144.62C89.4234 144.539 89.176 144.472 89.0465 144.472C88.8981 144.472 88.9271 144.527 89.125 144.62ZM102.71 144.62C102.386 144.734 102.372 144.76 102.631 144.772C102.804 144.781 103.051 144.712 103.181 144.62C103.456 144.425 103.265 144.425 102.71 144.62ZM100.904 144.964C100.48 145.082 100.473 145.096 100.825 145.099C101.041 145.101 101.394 145.04 101.61 144.964C102.138 144.779 101.568 144.779 100.904 144.964ZM92.8549 145.255C93.0061 145.298 93.2534 145.298 93.4046 145.255C93.5557 145.211 93.4321 145.176 93.1297 145.176C92.8274 145.176 92.7037 145.211 92.8549 145.255ZM94.9825 145.436C95.6991 145.468 96.8298 145.468 97.4953 145.436C98.1608 145.404 97.5742 145.377 96.1922 145.378C94.8102 145.378 94.266 145.405 94.9825 145.436ZM88.3398 149.608C88.5125 149.69 88.8659 149.756 89.125 149.756C89.5267 149.756 89.5498 149.734 89.2821 149.608C89.1093 149.527 88.7559 149.461 88.4968 149.461C88.0952 149.461 88.072 149.482 88.3398 149.608ZM89.9888 149.952C90.2047 150.028 90.6994 150.089 91.0881 150.087C91.7226 150.084 91.7465 150.07 91.3237 149.952C90.6472 149.764 89.4513 149.764 89.9888 149.952ZM92.5015 150.327C93.4215 150.478 98.9688 150.478 99.8828 150.326C100.272 150.261 98.6107 150.209 96.1922 150.21C93.7736 150.21 92.1129 150.263 92.5015 150.327Z" fill="#6C6C84"/>
</svg>
