<?xml version="1.0" standalone="no"?>
<!DOCTYPE svg PUBLIC "-//W3C//DTD SVG 20010904//EN"
 "http://www.w3.org/TR/2001/REC-SVG-20010904/DTD/svg10.dtd">
<svg version="1.0" xmlns="http://www.w3.org/2000/svg"
 width="512.000000pt" height="512.000000pt" viewBox="0 0 512.000000 512.000000"
 preserveAspectRatio="xMidYMid meet">

<g transform="translate(0.000000,512.000000) scale(0.100000,-0.100000)"
fill="#000000" stroke="none">
<path d="M2150 5106 c-133 -28 -271 -97 -366 -183 -17 -15 -124 -132 -237
-259 -113 -127 -238 -259 -278 -293 -109 -92 -127 -128 -95 -190 24 -46 87
-64 133 -38 30 17 190 155 216 187 12 15 107 122 210 238 197 221 256 271 363
312 205 76 422 30 580 -125 107 -105 164 -238 164 -384 0 -32 -3 -73 -6 -90
-6 -30 -9 -27 -95 98 -96 140 -117 161 -164 161 -18 0 -156 -58 -339 -142
-349 -161 -325 -142 -397 -308 -64 -149 -99 -320 -99 -481 l0 -80 -37 8 c-21
4 -76 7 -123 6 -94 -1 -195 -29 -285 -79 -79 -44 -186 -157 -229 -241 -59
-118 -66 -165 -66 -451 l0 -253 -22 6 c-13 4 -54 23 -93 42 -383 191 -519 674
-295 1046 56 93 53 149 -10 182 -33 17 -73 19 -100 5 -26 -14 -96 -129 -131
-215 -56 -141 -64 -186 -63 -365 0 -150 3 -173 27 -253 94 -307 297 -519 613
-642 l72 -27 5 -322 c5 -335 10 -375 57 -517 25 -73 66 -161 111 -240 l32 -56
-60 -119 c-151 -298 -223 -552 -239 -844 -8 -131 3 -168 54 -189 21 -9 238
-11 862 -9 l835 3 88 28 c303 94 511 302 604 604 25 81 27 102 27 258 1 143
-3 187 -22 274 -70 312 -184 511 -445 778 l-159 162 31 103 c40 132 53 243 41
352 -23 202 -107 368 -258 507 -55 51 -200 147 -245 162 -4 1 -3 36 3 77 21
148 18 140 49 140 50 0 181 39 244 72 34 18 92 62 129 96 99 94 147 176 206
357 11 33 35 101 53 150 28 79 33 105 37 212 5 147 -12 235 -67 349 -100 206
-273 351 -486 409 -83 22 -254 28 -335 11z m496 -951 l102 -148 -19 -55 c-41
-119 -124 -212 -237 -265 -60 -28 -77 -32 -157 -32 -80 0 -97 4 -155 31 -73
35 -136 91 -174 156 l-26 45 19 54 c10 30 30 77 44 104 l25 50 228 107 c126
59 233 105 239 104 5 -1 55 -69 111 -151z m-627 -609 c28 -19 67 -40 86 -47
l36 -13 -7 -61 c-4 -33 -9 -65 -13 -71 -4 -7 -35 5 -88 34 l-83 46 0 78 c0 44
4 77 8 74 5 -3 32 -21 61 -40z m-312 -225 c72 -23 626 -323 694 -377 60 -46
128 -133 163 -208 71 -150 73 -302 7 -512 -23 -72 -41 -144 -41 -159 0 -23 36
-64 194 -224 260 -263 345 -396 412 -645 92 -343 32 -616 -178 -811 -39 -36
-74 -65 -78 -65 -4 0 -10 30 -13 67 -11 115 -46 171 -186 303 -101 95 -181
189 -462 542 -225 283 -339 434 -339 450 0 12 27 280 62 594 54 500 60 575 48
603 -13 33 -54 61 -90 61 -30 0 -77 -27 -90 -50 -11 -21 -140 -1168 -140
-1248 l0 -48 330 -416 c182 -229 330 -421 330 -425 0 -5 -45 -53 -99 -107
l-99 -99 -277 259 c-153 142 -303 281 -333 309 -87 78 -168 188 -221 299 -56
117 -76 186 -91 311 -13 120 -13 1200 0 1284 39 234 275 383 497 312z m-6
-2652 c316 -295 347 -327 382 -393 20 -39 37 -72 37 -73 0 -2 -228 -3 -506 -3
l-507 0 7 82 c8 102 39 244 77 363 30 90 147 345 159 345 3 0 161 -145 351
-321z m850 -131 c90 -81 110 -114 111 -177 1 -172 -215 -216 -346 -71 -71 79
-72 79 51 202 59 59 109 108 111 108 2 0 35 -28 73 -62z"/>
<path d="M828 4085 c-34 -19 -48 -44 -48 -85 0 -62 34 -99 93 -100 49 0 73 13
92 50 22 42 19 72 -12 108 -33 39 -84 50 -125 27z"/>
<path d="M3843 3950 c-187 -66 -308 -268 -274 -456 24 -127 54 -170 279 -395
224 -225 257 -248 347 -249 105 0 113 5 343 234 117 116 226 231 242 256 71
111 80 270 22 393 -40 87 -112 159 -200 200 -63 30 -74 32 -177 32 -99 0 -116
-3 -168 -27 -52 -25 -61 -26 -80 -14 -72 46 -240 59 -334 26z m211 -194 c18
-8 52 -28 76 -45 57 -41 94 -41 151 3 105 80 226 74 306 -17 57 -65 68 -153
28 -233 -30 -61 -381 -414 -411 -414 -28 0 -398 374 -418 422 -9 21 -16 60
-16 88 0 144 154 250 284 196z"/>
<path d="M3449 2680 c-213 -35 -334 -277 -238 -478 27 -55 314 -350 369 -377
50 -26 135 -24 185 2 22 12 108 90 192 175 184 186 208 226 208 353 0 65 -5
90 -26 135 -64 135 -209 214 -353 190 -30 -5 -67 -15 -82 -23 -23 -12 -32 -12
-73 3 -59 22 -124 29 -182 20z m146 -232 c61 -41 100 -40 157 1 84 62 187 28
211 -70 14 -56 -8 -90 -153 -234 l-140 -140 -131 130 c-72 72 -137 143 -146
159 -42 80 21 186 110 186 32 0 56 -8 92 -32z"/>
</g>
</svg>
