<svg width="382" height="281" viewBox="0 0 382 281" fill="none" xmlns="http://www.w3.org/2000/svg">
<path opacity="0.1" d="M25.7271 110.137H58.7749V155.185H28.1435C28.0653 155.651 27.9871 156.113 27.8992 156.579H58.7749V192.903C58.7228 192.903 58.6707 192.864 58.6218 192.844C57.7534 192.499 56.885 192.133 56.0166 191.747C55.8309 191.662 55.6486 191.574 55.4597 191.493C54.5913 191.082 53.7228 190.648 52.8544 190.19C52.5516 190.031 52.2487 189.864 51.9523 189.695C47.1312 187.005 42.7494 183.594 38.9586 179.58C38.8446 179.473 38.7404 179.355 38.6329 179.254C38.1053 178.681 37.5876 178.102 37.086 177.509C36.8972 177.291 36.7148 177.069 36.5292 176.858C35.9365 176.135 35.3633 175.386 34.8097 174.633C34.725 174.519 34.6469 174.409 34.5654 174.308C32.2975 171.169 30.4168 167.769 28.9641 164.18C28.9185 164.072 28.8762 163.955 28.8339 163.854C28.3844 162.714 27.9774 161.558 27.6257 160.379C27.4759 159.888 27.3293 159.402 27.2056 158.891C27.16 158.744 27.1241 158.595 27.0851 158.448C25.2549 151.235 25.0432 143.738 25.0432 136.277C25.0432 135.409 25.0432 134.54 25.0432 133.672C25.0692 130.626 25.1051 127.583 25.1507 124.544C25.168 123.762 25.1843 122.977 25.1995 122.189C25.2451 120.194 25.3102 118.195 25.3949 116.191C25.4144 115.637 25.4405 115.08 25.4698 114.53C25.4828 114.211 25.4991 113.892 25.5186 113.572C25.5773 112.42 25.6467 111.274 25.7271 110.137Z" fill="#6C63FF"/>
<path opacity="0.1" d="M58.7749 59.9788H40.6455C43.5939 55.3691 46.8138 50.9388 50.2883 46.7114C52.9847 43.4027 55.8245 40.1787 58.7749 37.0719V59.9788Z" fill="#6C63FF"/>
<path opacity="0.1" d="M58.7749 61.3661V108.743H25.8313C25.8313 108.606 25.8508 108.466 25.8638 108.329C25.8931 107.955 25.9225 107.584 25.955 107.209C25.9876 106.773 26.0299 106.336 26.0723 105.906C26.1146 105.477 26.1569 104.955 26.209 104.483C26.2611 104.011 26.3035 103.532 26.3556 103.06C26.4077 102.588 26.4598 102.116 26.5184 101.647C26.577 101.178 26.6291 100.702 26.6943 100.233C26.7431 99.8459 26.792 99.4551 26.8473 99.0643C26.9222 98.5139 27.0004 97.9636 27.0818 97.4165C27.0818 97.3318 27.1078 97.2504 27.1209 97.169C27.7161 93.1643 28.5248 89.1943 29.5438 85.2759C30.6138 81.1662 31.9797 77.1392 33.6308 73.2265C35.3852 69.127 37.4403 65.1627 39.7792 61.3661H58.7749Z" fill="#6C63FF"/>
<path opacity="0.1" d="M66.6689 110.137V155.185H137.259V110.137H66.6689ZM66.6689 156.579V195.267C67.0727 195.349 67.47 195.43 67.8706 195.498C68.4079 195.603 68.9485 195.697 69.4989 195.778L69.8245 195.824C70.0395 195.86 70.2577 195.889 70.4759 195.915C71.0197 195.993 71.5636 196.052 72.1042 196.104C72.3582 196.13 72.622 196.15 72.8792 196.172L73.5077 196.218C73.8497 196.244 74.1884 196.264 74.5271 196.277C74.7355 196.277 74.9439 196.293 75.1556 196.299C75.3673 196.306 75.4812 196.299 75.6506 196.299H76.2661H77.103H77.4612C77.7413 196.299 78.0214 196.299 78.2982 196.273H78.3145C78.5099 196.273 78.702 196.273 78.8974 196.251C78.9527 196.254 79.0082 196.254 79.0635 196.251C79.2263 196.251 79.3891 196.251 79.5455 196.231C79.5823 196.228 79.6193 196.228 79.6562 196.231C80.0177 196.208 80.3824 196.179 80.7504 196.146C81.1184 196.114 81.4668 196.075 81.8348 196.036L82.5741 195.944C85.5949 195.522 88.5821 194.886 91.5134 194.043C98.1015 192.206 104.54 189.636 111.125 187.757C119.631 185.331 129.036 184.136 137.255 187.09V156.579H66.6689ZM137.259 59.9788V0.00548951C129.531 -0.0795307 121.824 0.823344 114.326 2.69217C96.4504 7.183 80.3987 16.9235 66.6689 29.3636V59.9755H70.2219V61.3661H66.6689V108.743H137.259V61.3661H84.756V59.9723L137.259 59.9788ZM227.948 39.7196C223.526 39.5632 219.129 38.1662 215.15 36.0005C207.549 31.8679 201.472 25.4785 194.685 20.0921C180.584 8.86666 163.096 2.0897 145.156 0.409306V59.9788H245.918L246.169 59.715L227.948 39.7196ZM237.128 38.0913L246.862 48.7761V35.2808C243.586 35.6944 240.733 36.6551 237.128 38.0782V38.0913ZM246.862 204.874V156.579H226.105C226.053 156.374 225.994 156.165 225.929 155.957C225.991 156.165 226.046 156.374 226.102 156.579H145.156V191.502C145.924 192.072 146.683 192.675 147.436 193.281C148.247 193.945 149.054 194.617 149.855 195.296L150.663 195.964C151.05 196.29 151.444 196.615 151.835 196.925C152.619 197.556 153.408 198.182 154.203 198.8C154.6 199.113 154.999 199.42 155.401 199.722C161.762 204.583 168.471 208.971 175.475 212.849C177.044 213.725 178.63 214.569 180.226 215.393C181.288 215.94 182.357 216.476 183.434 217.002C185.049 217.79 186.677 218.549 188.319 219.281C203.451 226.074 219.452 230.734 235.865 233.128C239.508 233.664 243.167 234.088 246.843 234.398V204.868H247.168L246.862 204.874ZM145.156 61.3661V108.743H246.862V61.3661H145.156ZM145.156 110.13V155.185H246.862V110.137L145.156 110.13ZM254.756 35.2157V50.2937L267.177 36.6584C263.061 35.9788 258.92 35.4979 254.756 35.2157ZM254.756 110.137V155.185H353.675V110.137H254.756ZM353.327 208.447L353.675 156.579H254.756V234.923C261.128 235.188 267.509 235.11 273.872 234.691H273.983C277.023 234.496 280.048 234.218 283.059 233.858H283.128C299.197 231.987 314.91 227.79 329.772 221.398M372.759 117.536C372.383 116.667 371.998 115.799 371.603 114.93C370.867 113.302 370.092 111.719 369.29 110.14H361.572V155.185H381.083C381.066 142.426 377.836 129.399 372.759 117.536ZM361.572 156.579V201.194C367.066 195.928 371.713 189.9 375.055 183.009C379.076 174.708 380.916 165.727 381.069 156.576L361.572 156.579ZM361.572 97.0094V108.733H368.567C366.447 104.703 364.112 100.789 361.572 97.0094ZM294.487 44.0573C293.972 43.8587 293.454 43.66 292.936 43.4711C287.477 41.4534 281.897 39.7763 276.23 38.4495L257.218 59.3112L256.847 59.7117L257.091 59.9755H324.757C315.332 53.4904 305.171 48.1469 294.487 44.0573ZM326.743 61.3661H256.144L254.756 62.6329V108.743H266.92H353.675V86.4027C345.83 76.9161 336.776 68.4988 326.743 61.3661Z" fill="#6C63FF"/>
<path opacity="0.1" d="M58.7749 85.2662V108.743H25.8313C25.8313 108.606 25.8508 108.466 25.8638 108.329C25.8931 107.955 25.9225 107.584 25.955 107.209C25.9876 106.773 26.0299 106.336 26.0723 105.906C26.1146 105.477 26.1569 104.955 26.209 104.483C26.2611 104.011 26.3035 103.532 26.3556 103.06C26.4077 102.588 26.4598 102.116 26.5184 101.647C26.577 101.178 26.6291 100.702 26.6943 100.233C26.7431 99.8459 26.792 99.4551 26.8473 99.0643C26.9222 98.514 27.0004 97.9636 27.0818 97.4165C27.0818 97.3318 27.1078 97.2504 27.1209 97.169C27.7161 93.1643 28.5248 89.1943 29.5438 85.2759L58.7749 85.2662Z" fill="#6C63FF"/>
<path opacity="0.1" d="M25.7271 110.137H58.7749V155.185H28.1435C28.0653 155.651 27.9871 156.113 27.8992 156.579H58.7749V192.903C58.7228 192.903 58.6707 192.864 58.6218 192.844C57.7534 192.499 56.885 192.133 56.0166 191.747C55.8309 191.662 55.6486 191.574 55.4597 191.493C54.5913 191.082 53.7228 190.648 52.8544 190.19C52.5516 190.031 52.2487 189.864 51.9523 189.695C47.1312 187.005 42.7494 183.594 38.9586 179.58C38.8446 179.473 38.7404 179.355 38.6329 179.254C38.1053 178.681 37.5876 178.102 37.086 177.509C36.8972 177.291 36.7148 177.069 36.5292 176.858C35.9365 176.135 35.3633 175.386 34.8097 174.633C34.725 174.519 34.6469 174.409 34.5654 174.308C32.2975 171.169 30.4168 167.769 28.9641 164.18C28.9185 164.072 28.8762 163.955 28.8339 163.854C28.3844 162.714 27.9774 161.558 27.6257 160.379C27.4759 159.888 27.3293 159.402 27.2056 158.891C27.16 158.744 27.1241 158.595 27.0851 158.448C25.2549 151.235 25.0432 143.738 25.0432 136.277C25.0432 135.409 25.0432 134.54 25.0432 133.672C25.0692 130.626 25.1051 127.583 25.1507 124.544C25.168 123.762 25.1843 122.977 25.1995 122.189C25.2451 120.194 25.3102 118.195 25.3949 116.191C25.4144 115.637 25.4405 115.08 25.4698 114.53C25.4828 114.211 25.4991 113.892 25.5186 113.572C25.5773 112.42 25.6467 111.274 25.7271 110.137Z" fill="#6C63FF"/>
<path opacity="0.1" d="M91.5167 68.1528V108.743H66.6657V68.1528H70.2088V54.41H84.7528V68.1528H91.5167Z" fill="#6C63FF"/>
<path opacity="0.1" d="M66.6657 110.133H91.5134V155.182H66.6657V110.133Z" fill="#6C63FF"/>
<path opacity="0.1" d="M66.6689 156.579H91.5167V194.03C88.5856 194.873 85.5983 195.508 82.5773 195.928C82.3298 195.964 82.0856 195.993 81.8381 196.019C81.4734 196.062 81.1119 196.101 80.7504 196.133L79.6594 196.221H79.5487L79.0667 196.247H78.9007C78.7053 196.247 78.5131 196.27 78.3177 196.273H78.3014C78.0214 196.273 77.7446 196.293 77.4645 196.299H77.1063C76.8295 196.299 76.5527 196.299 76.2693 196.299H75.6571H75.1588C74.9472 196.299 74.7387 196.299 74.5271 196.273C74.1927 196.26 73.854 196.241 73.511 196.215L72.8825 196.169C72.622 196.15 72.3614 196.124 72.1042 196.098C71.5571 196.05 71.0143 195.988 70.4759 195.912L69.8245 195.821L69.4989 195.775C68.955 195.694 68.4144 195.603 67.8706 195.498C67.4668 195.427 67.0695 195.345 66.6689 195.261V156.579Z" fill="#6C63FF"/>
<path opacity="0.1" d="M226.369 63.3591H246.859V108.74H226.369V63.3591Z" fill="#6C63FF"/>
<path opacity="0.1" d="M246.862 110.133V155.185H145.156V135.753H199.329V147.216H226.369V110.133H246.862Z" fill="#6C63FF"/>
<path opacity="0.1" d="M247.185 204.884C247.077 204.884 246.97 204.884 246.859 204.864V234.418C243.188 234.116 239.53 233.694 235.884 233.151C219.466 230.757 203.458 226.1 188.319 219.311C183.948 217.339 179.667 215.191 175.475 212.866C168.473 208.985 161.765 204.598 155.404 199.738C153.802 198.514 152.224 197.262 150.669 195.984C149.591 195.091 148.523 194.179 147.435 193.297C146.686 192.688 145.928 192.085 145.156 191.512V156.579H226.102C226.043 156.37 225.991 156.165 225.932 155.957C225.994 156.165 226.053 156.37 226.105 156.579H246.862V204.861C246.97 204.864 247.077 204.874 247.185 204.884Z" fill="#6C63FF"/>
<path opacity="0.1" d="M300.303 59.9788H286.951V55.8299H292.933V43.4712C293.452 43.6622 293.969 43.8576 294.483 44.0574V55.8299H300.299L300.303 59.9788Z" fill="#6C63FF"/>
<path opacity="0.1" d="M332.475 108.743H266.92C266.926 108.744 266.933 108.744 266.939 108.743H266.91H254.756V63.3623H258.202V96.9052H273.944V77.04H286.954V61.3661H300.306V77.0498H313.31V96.9149H332.478L332.475 108.743Z" fill="#6C63FF"/>
<path opacity="0.1" d="M254.756 110.137V155.185H332.478V110.137H254.756ZM353.564 208.209L353.675 172.549H332.478V156.592H254.756V234.923C261.128 235.188 267.509 235.11 273.872 234.691H273.983C277.023 234.496 280.048 234.218 283.059 233.858H283.128C299.197 231.987 314.91 227.79 329.772 221.398" fill="#6C63FF"/>
<path opacity="0.1" d="M362.94 156.579H381.069C380.913 165.727 379.076 174.712 375.055 183.009C371.713 189.903 367.066 195.931 361.572 201.197V172.539H362.94V156.579Z" fill="#6C63FF"/>
<path opacity="0.1" d="M381.082 155.185H362.94V117.536H372.759C377.836 129.399 381.066 142.426 381.082 155.185Z" fill="#6C63FF"/>
<path opacity="0.1" d="M235.884 75.9751H246.862V90.2032H235.884V75.9751Z" fill="#6C63FF"/>
<path opacity="0.1" d="M235.884 105.467H246.862V108.743H235.884V105.467Z" fill="#6C63FF"/>
<path opacity="0.1" d="M235.884 110.133H246.862V119.691H235.884V110.133Z" fill="#6C63FF"/>
<path opacity="0.1" d="M235.884 134.958H246.862V149.186H235.884V134.958Z" fill="#6C63FF"/>
<path opacity="0.1" d="M235.884 164.45H246.862V178.678H235.884V164.45Z" fill="#6C63FF"/>
<path opacity="0.1" d="M246.862 204.861C246.97 204.861 247.077 204.861 247.188 204.884C247.08 204.884 246.973 204.884 246.862 204.864V208.17H235.884V193.942H246.862V204.861Z" fill="#6C63FF"/>
<path opacity="0.1" d="M246.862 223.43V234.418C243.189 234.116 239.53 233.694 235.884 233.151V223.43H246.862Z" fill="#6C63FF"/>
<path opacity="0.1" d="M145.156 154.14H192.204V155.185H145.156V154.14Z" fill="#6C63FF"/>
<path opacity="0.1" d="M145.156 156.576H192.204V160.581H145.156V156.576Z" fill="#6C63FF"/>
<path opacity="0.1" d="M145.156 173.712H192.204V180.153H145.156V173.712Z" fill="#6C63FF"/>
<path opacity="0.1" d="M192.204 193.284V199.725H155.404C153.802 198.505 152.224 197.253 150.669 195.967C149.588 195.078 148.52 194.166 147.435 193.284H192.204Z" fill="#6C63FF"/>
<path opacity="0.1" d="M192.204 212.853V219.31H188.319C183.948 217.339 179.667 215.191 175.475 212.866L192.204 212.853Z" fill="#6C63FF"/>
<path opacity="0.1" d="M273.872 114.5H283.134V123.762H273.872V114.5Z" fill="#6C63FF"/>
<path opacity="0.1" d="M73.3383 71.3475H82.6V80.6093H73.3383V71.3475Z" fill="#6C63FF"/>
<path opacity="0.1" d="M73.3383 92.8605H82.6V102.122H73.3383V92.8605Z" fill="#6C63FF"/>
<path opacity="0.1" d="M73.3383 114.373H82.6V123.635H73.3383V114.373Z" fill="#6C63FF"/>
<path opacity="0.1" d="M73.3383 135.883H82.6V145.145H73.3383V135.883Z" fill="#6C63FF"/>
<path opacity="0.1" d="M73.3383 157.396H82.6V166.658H73.3383V157.396Z" fill="#6C63FF"/>
<path opacity="0.1" d="M73.3383 178.909H82.6V188.171H73.3383V178.909Z" fill="#6C63FF"/>
<path opacity="0.1" d="M309.229 114.5H318.491V123.762H309.229V114.5Z" fill="#6C63FF"/>
<path opacity="0.1" d="M273.872 137.345H283.134V146.607H273.872V137.345Z" fill="#6C63FF"/>
<path opacity="0.1" d="M309.229 137.345H318.491V146.607H309.229V137.345Z" fill="#6C63FF"/>
<path opacity="0.1" d="M273.872 160.187H283.134V169.449H273.872V160.187Z" fill="#6C63FF"/>
<path opacity="0.1" d="M309.229 160.187H318.491V169.449H309.229V160.187Z" fill="#6C63FF"/>
<path opacity="0.1" d="M273.872 183.032H283.134V192.294H273.872V183.032Z" fill="#6C63FF"/>
<path opacity="0.1" d="M309.229 183.032H318.491V192.294H309.229V183.032Z" fill="#6C63FF"/>
<path opacity="0.1" d="M273.872 205.877H283.134V215.139H273.872V205.877Z" fill="#6C63FF"/>
<path opacity="0.1" d="M309.229 205.877H318.491V215.139H309.229V205.877Z" fill="#6C63FF"/>
<path opacity="0.1" d="M273.872 234.691V228.719H283.131V233.841L273.872 234.691Z" fill="#6C63FF"/>
<path opacity="0.1" d="M27.0818 97.1592V102.458H58.7749V97.1592H27.0818ZM30.2374 102.126H27.6322V97.4947H30.2374V102.126ZM33.3931 102.126H30.7878V97.4947H33.3931V102.126ZM36.5422 102.126H33.9369V97.4947H36.5422V102.126ZM39.6978 102.126H37.0926V97.4947H39.6978V102.126ZM42.8502 102.126H40.2449V97.4947H42.8502V102.126ZM46.0058 102.126H43.4006V97.4947H46.0058V102.126ZM49.1615 102.126H46.5562V97.4947H49.1615V102.126ZM52.3138 102.126H49.7086V97.4947H52.3138V102.126ZM55.4662 102.126H52.861V97.4947H55.4662V102.126ZM58.6219 102.126H56.0166V97.4947H58.6219V102.126Z" fill="#6C63FF"/>
<path opacity="0.1" d="M27.0818 112.582V117.881H58.7749V112.582H27.0818ZM30.2374 117.549H27.6322V112.918H30.2374V117.549ZM33.3931 117.549H30.7878V112.918H33.3931V117.549ZM36.5422 117.549H33.9369V112.918H36.5422V117.549ZM39.6978 117.549H37.0926V112.918H39.6978V117.549ZM42.8502 117.549H40.2449V112.918H42.8502V117.549ZM46.0058 117.549H43.4006V112.918H46.0058V117.549ZM49.1615 117.549H46.5562V112.918H49.1615V117.549ZM52.3138 117.549H49.7086V112.918H52.3138V117.549ZM55.4662 117.549H52.861V112.918H55.4662V117.549ZM58.6219 117.549H56.0166V112.918H58.6219V117.549Z" fill="#6C63FF"/>
<path opacity="0.1" d="M27.0818 128.009V133.304H58.7749V128.009H27.0818ZM30.2374 132.969H27.6322V128.338H30.2374V132.969ZM33.3931 132.969H30.7878V128.338H33.3931V132.969ZM36.5422 132.969H33.9369V128.338H36.5422V132.969ZM39.6978 132.969H37.0926V128.338H39.6978V132.969ZM42.8502 132.969H40.2449V128.338H42.8502V132.969ZM46.0058 132.969H43.4006V128.338H46.0058V132.969ZM49.1615 132.969H46.5562V128.338H49.1615V132.969ZM52.3138 132.969H49.7086V128.338H52.3138V132.969ZM55.4662 132.969H52.861V128.338H55.4662V132.969ZM58.6219 132.969H56.0166V128.338H58.6219V132.969Z" fill="#6C63FF"/>
<path opacity="0.1" d="M27.0818 143.432V148.727H58.7749V143.432H27.0818ZM30.2374 148.395H27.6322V143.758H30.2374V148.395ZM33.3931 148.395H30.7878V143.758H33.3931V148.395ZM36.5422 148.395H33.9369V143.758H36.5422V148.395ZM39.6978 148.395H37.0926V143.758H39.6978V148.395ZM42.8502 148.395H40.2449V143.758H42.8502V148.395ZM46.0058 148.395H43.4006V143.758H46.0058V148.395ZM49.1615 148.395H46.5562V143.758H49.1615V148.395ZM52.3138 148.395H49.7086V143.758H52.3138V148.395ZM55.4662 148.395H52.861V143.758H55.4662V148.395ZM58.6219 148.395H56.0166V143.758H58.6219V148.395Z" fill="#6C63FF"/>
<path opacity="0.1" d="M27.2349 158.849C27.3587 159.35 27.5052 159.845 27.655 160.337V159.184H30.2603V163.812H28.8632C28.9023 163.922 28.9446 164.036 28.9902 164.137H58.788V158.849H27.2349ZM33.4225 163.812H30.8172V159.184H33.4225V163.812ZM36.5716 163.812H33.9663V159.184H36.5716V163.812ZM39.7272 163.812H37.1219V159.184H39.7272V163.812ZM42.8796 163.812H40.2743V159.184H42.8796V163.812ZM46.0352 163.812H43.4299V159.184H46.0352V163.812ZM49.1908 163.812H46.5856V159.184H49.1908V163.812ZM52.3432 163.812H49.7379V159.184H52.3432V163.812ZM55.4956 163.812H52.8903V159.184H55.4956V163.812ZM58.6512 163.812H56.046V159.184H58.6512V163.812Z" fill="#6C63FF"/>
<path opacity="0.1" d="M34.5753 174.272C34.6599 174.376 34.7381 174.493 34.8195 174.598H36.5422V176.822L37.0991 177.473V174.585H39.7044V179.255H38.633C38.7372 179.362 38.8381 179.476 38.9586 179.58H58.7684V174.272H34.5753ZM42.8665 179.255H40.2613V174.604H42.8665V179.255ZM46.0222 179.255H43.4169V174.604H46.0222V179.255ZM49.1778 179.255H46.5725V174.604H49.1778V179.255ZM52.3302 179.255H49.7249V174.604H52.3302V179.255ZM55.4826 179.255H52.8773V174.604H55.4826V179.255ZM58.6382 179.255H56.0329V174.604H58.6382V179.255Z" fill="#6C63FF"/>
<path opacity="0.1" d="M51.9621 189.695C52.2617 189.864 52.5646 190.021 52.8675 190.187V190.024H55.4727V191.493C55.6616 191.574 55.8407 191.662 56.0264 191.747V190.024H58.6316V192.844C58.6811 192.867 58.7323 192.885 58.7847 192.9V189.695H51.9621Z" fill="#6C63FF"/>
<path opacity="0.1" d="M225.929 155.957C225.991 156.165 226.046 156.374 226.102 156.579C226.053 156.374 225.994 156.165 225.929 155.957ZM70.2218 59.9788V61.3661H84.7689V59.9723L70.2218 59.9788ZM225.929 155.957C225.991 156.165 226.046 156.374 226.102 156.579C226.053 156.374 225.994 156.165 225.929 155.957ZM225.929 155.957C225.991 156.165 226.046 156.374 226.102 156.579C226.053 156.374 225.994 156.165 225.929 155.957Z" fill="#6C63FF"/>
<path opacity="0.1" d="M287.234 281C304.759 281 318.966 278.718 318.966 275.903C318.966 273.089 304.759 270.807 287.234 270.807C269.709 270.807 255.502 273.089 255.502 275.903C255.502 278.718 269.709 281 287.234 281Z" fill="#6C63FF"/>
<path opacity="0.1" d="M144.12 275.903C161.645 275.903 175.852 273.622 175.852 270.807C175.852 267.992 161.645 265.71 144.12 265.71C126.595 265.71 112.388 267.992 112.388 270.807C112.388 273.622 126.595 275.903 144.12 275.903Z" fill="#6C63FF"/>
<path d="M180.653 136.043C180.645 136.01 180.628 135.981 180.604 135.958C180.119 135.479 173.931 126.729 173.931 126.729C173.931 126.729 173.606 125.752 173.078 124.482C173.247 124.263 173.374 124.015 173.452 123.749C173.481 123.637 173.502 123.523 173.514 123.407C173.514 123.371 173.54 123.342 173.55 123.306C173.663 122.865 173.652 122.4 173.518 121.965C173.481 122.076 173.437 122.185 173.384 122.29C173.262 121.911 173.098 121.546 172.896 121.203C172.075 119.789 170.903 118.597 170.04 117.22C168.733 115.079 168.213 112.55 168.571 110.068V110.453C168.604 109.96 168.669 109.471 168.766 108.987C168.902 108.437 169.084 107.899 169.31 107.378C170.085 105.604 171.339 104.057 172.101 102.275C172.357 101.674 172.551 101.049 172.681 100.409C172.949 99.3404 173.047 98.2358 172.971 97.1364C172.971 97.3969 172.928 97.6575 172.889 97.9147C172.807 95.2714 171.739 92.7544 169.896 90.8577C167.236 88.1841 163.416 87.1452 159.762 86.5981C158.226 86.4189 156.76 85.8593 155.496 84.9698C154.092 84.0612 152.278 83.843 150.637 84.0417C148.75 84.2456 146.998 85.1123 145.69 86.4874C143.954 88.3957 143.202 91.0987 141.176 92.7074C139.949 93.6844 138.392 94.1403 136.962 94.8047C135.533 95.469 134.181 96.433 133.722 97.8594C133.722 97.8594 133.722 97.8398 133.722 97.8301V97.9115L133.703 97.9636C133.227 99.6505 134.146 101.367 134.624 103.05C135.122 104.793 135.155 106.633 135.181 108.434C135.217 110.635 135.25 112.84 135.214 115.044C135.197 115.911 135.168 116.787 135.103 117.65C134.332 117.883 133.583 118.183 132.866 118.548C132.136 119.024 129.407 121.971 129.407 121.971L124.07 142.364L124.141 142.445L124.07 142.722L124.34 142.66C125.095 143.474 127.352 145.793 129.788 147.239L130.016 151.238C130.016 151.238 130.29 155.25 133.979 156.908C134.064 158.298 134.328 163.945 133.107 166.183C132.261 167.817 131.863 169.646 131.954 171.484C131.954 171.484 132.38 174.878 131.895 176.662C131.612 177.855 131.591 179.095 131.833 180.297C131.833 180.297 131.833 180.691 131.833 181.368C131.833 184.98 131.876 196.553 131.833 197.863C131.771 199.409 131.833 222.287 131.833 222.287C131.833 222.287 131.53 233.721 130.56 236.818C129.59 239.915 129.834 250.17 129.834 250.17C129.834 250.17 129.225 262.385 131.377 264.795C131.377 264.903 131.358 265.013 131.355 265.121V265.274C131.329 266.202 131.508 267.189 132.306 267.492C133.934 268.117 136.086 269.993 136.494 270.53C136.901 271.067 139.268 272.406 142.355 272.048C144.289 271.83 146.236 271.741 148.181 271.781C148.181 271.781 149.399 271.559 149.005 270.045C148.751 269.1 147.8 267.648 147.123 266.694C147.247 266.726 147.367 266.752 147.481 266.775L147.598 266.798H147.69C147.74 266.801 147.79 266.801 147.839 266.798H147.905C147.965 266.803 148.026 266.803 148.087 266.798C148.904 266.72 151.953 268.14 152.496 269.078C153.04 270.016 154.958 270.729 156.404 270.908C157.264 271.012 159.433 270.836 161.253 270.602C162.17 270.507 163.078 270.342 163.969 270.107C164.399 269.944 164.49 269.423 164.367 268.837C164.22 268.092 163.823 267.421 163.24 266.935C162.712 266.56 162.015 265.574 161.501 264.766L161.364 264.548C162.273 263.681 163.914 260.848 164.412 260.262C165.018 259.549 163.435 233.467 163.435 233.467V220.392L165.861 208.017L167.558 201.468L169.014 191.581C169.014 191.581 171.56 180.033 170.776 178.899C170.776 178.877 170.124 166.987 169.44 164.131C169.144 162.858 169.219 159.992 169.395 157.204C169.579 157.022 169.707 156.791 169.764 156.538C169.822 156.286 169.807 156.022 169.72 155.778C169.672 155.611 169.609 155.448 169.532 155.293C169.532 155.244 169.532 155.192 169.532 155.143C170.938 154.495 172.408 153.996 173.918 153.651C176.344 153.176 175.739 151.925 175.739 151.925C175.739 151.925 176.286 150.854 176.647 150.199C177.009 149.545 176.709 143.767 176.647 143.292C176.624 143.1 176.475 142.038 176.302 140.833C177.08 140.28 178.093 139.593 179.197 138.941C181.298 137.697 180.825 136.385 180.653 136.043ZM148.999 218.607C148.999 218.607 147.178 223.251 147.908 224.44C148.637 225.628 147.787 230.041 147.787 230.041L147.178 236.59C147.178 236.59 145.482 248.737 146.087 251.593C146.563 253.834 146.739 260.526 146.794 263.317C146.752 263.333 146.712 263.353 146.674 263.375L146.592 263.418C146.872 262.32 146.755 260.099 145.364 255.631L145.247 237.176C145.247 237.176 145.032 215.859 146.716 213.475C148.4 211.091 148.996 207.043 148.996 207.043C148.996 207.043 148.631 212.882 148.393 214.429C148.155 215.976 148.999 218.607 148.999 218.607ZM145.609 264.479C145.592 264.518 145.573 264.557 145.56 264.593L145.469 264.476C145.515 264.481 145.562 264.482 145.609 264.479Z" fill="url(#paint0_linear_3_2)"/>
<path d="M164.174 271.794C163.233 272.155 158.13 272.771 156.704 272.598C155.277 272.425 153.389 271.702 152.851 270.758C152.314 269.814 149.302 268.387 148.494 268.478C148.163 268.488 147.833 268.442 147.517 268.342C146.96 268.173 146.416 267.964 145.889 267.716C145.815 267.306 145.827 266.885 145.925 266.479C145.943 266.397 145.967 266.317 145.996 266.238C146.186 265.704 146.579 265.266 147.09 265.02L147.208 264.965C147.433 264.867 147.669 264.795 147.911 264.75C150.471 264.258 161.032 265.245 161.032 265.245C161.032 265.245 161.328 265.775 161.735 266.433C162.243 267.247 162.934 268.241 163.455 268.615C164.032 269.109 164.424 269.784 164.565 270.53C164.689 271.107 164.598 271.634 164.174 271.794Z" fill="white"/>
<path opacity="0.1" d="M164.174 271.794C163.233 272.155 158.133 272.771 156.707 272.598C155.281 272.425 153.392 271.699 152.851 270.758C152.311 269.817 149.305 268.387 148.497 268.478C147.69 268.57 145.892 267.716 145.892 267.716C145.892 267.716 145.612 266.414 146.426 265.525L148.054 266.681C148.054 266.681 152.412 268.032 153.219 269.286C154.027 270.54 155.499 271.24 157.625 271.367C159.215 271.471 162.865 270.852 164.575 270.543C164.689 271.106 164.601 271.634 164.174 271.794Z" fill="black"/>
<path d="M148.585 273.454C146.664 273.417 144.743 273.507 142.834 273.725C139.776 274.083 137.441 272.748 137.034 272.197C136.627 271.647 134.52 269.788 132.901 269.136C132.11 268.83 131.924 267.834 131.96 266.902C131.96 266.853 131.96 266.798 131.96 266.749C131.99 266.159 132.078 265.573 132.221 265L144.892 264.73L145.99 266.218L146.159 266.446L146.827 267.355C146.827 267.355 147.129 267.752 147.527 268.332C148.198 269.309 149.136 270.752 149.386 271.706C149.787 273.233 148.585 273.454 148.585 273.454Z" fill="white"/>
<path opacity="0.1" d="M148.585 273.455C146.664 273.417 144.743 273.507 142.834 273.725C139.779 274.083 137.441 272.748 137.037 272.197C136.633 271.647 134.52 269.771 132.901 269.143C132.11 268.837 131.924 267.84 131.96 266.909C132.866 267.12 134.767 267.661 135.513 268.602C136.49 269.859 138.239 271.973 140.724 272.106C142.73 272.214 147.615 271.856 149.406 271.712C149.79 273.233 148.585 273.455 148.585 273.455Z" fill="black"/>
<path opacity="0.1" d="M147.077 265.007C146.931 266.095 146.478 266.388 146.153 266.453C146.073 266.468 145.991 266.468 145.912 266.453C145.869 266.45 145.826 266.443 145.785 266.433C145.785 266.433 134.406 268.947 132.107 266.912C132.049 266.86 131.994 266.803 131.944 266.743C131.974 266.153 132.061 265.567 132.205 264.994L144.876 264.724L145.973 266.212C146.164 265.678 146.557 265.24 147.068 264.994L147.077 265.007Z" fill="black"/>
<path opacity="0.1" d="M161.732 266.42C161.478 266.7 161.266 266.86 161.133 266.805C160.534 266.564 155.623 265.727 154.063 266.446C152.503 267.166 147.224 266.564 147.224 266.564C147.224 266.564 147.224 265.938 147.195 264.935C147.42 264.838 147.656 264.766 147.898 264.72C150.458 264.229 161.019 265.215 161.019 265.215C161.019 265.215 161.328 265.762 161.732 266.42Z" fill="black"/>
<path d="M169.164 192.756L167.724 202.702L166.05 209.293L163.653 221.753V234.942C163.653 234.942 165.21 261.184 164.611 261.9C164.012 262.617 161.735 266.697 161.136 266.459C160.537 266.222 155.626 265.381 154.066 266.098C152.506 266.814 147.227 266.218 147.227 266.218C147.227 266.218 147.107 256.035 146.508 253.159C145.908 250.284 147.585 238.062 147.585 238.062L148.185 231.474C148.185 231.474 149.025 227.038 148.305 225.84C147.585 224.642 149.383 219.978 149.383 219.978C149.383 219.978 148.546 217.337 148.787 215.78C149.028 214.224 149.383 208.352 149.383 208.352C149.383 208.352 148.787 212.429 147.123 214.823C145.459 217.217 145.671 238.668 145.671 238.668L145.788 257.23C148.787 267.059 145.788 266.098 145.788 266.098C145.788 266.098 134.409 268.615 132.11 266.577C129.811 264.538 130.469 251.707 130.469 251.707C130.469 251.707 130.231 241.403 131.189 238.29C132.146 235.177 132.449 223.671 132.449 223.671C132.449 223.671 132.387 200.663 132.449 199.11C132.494 197.807 132.449 186.145 132.449 182.501C132.449 181.824 132.449 181.423 132.449 181.423L133.823 178.011L150.106 175.972H157.896C157.896 175.972 169.62 178.727 170.831 179.916C170.857 179.935 170.879 179.96 170.896 179.987C171.681 181.137 169.164 192.756 169.164 192.756Z" fill="#6C63FF"/>
<path opacity="0.1" d="M149.393 244.998C149.393 244.998 152.975 253.625 154.665 254.224C156.355 254.824 149.393 244.998 149.393 244.998Z" fill="black"/>
<path opacity="0.1" d="M150.718 257.699C150.718 257.699 162.813 258.298 162.693 259.617C162.572 260.936 150.718 257.699 150.718 257.699Z" fill="black"/>
<path opacity="0.1" d="M134.536 254.25C135.015 254.703 143.762 255.553 143.043 256.38C142.323 257.207 135.256 258.816 135.256 258.816L134.536 254.25Z" fill="black"/>
<path opacity="0.1" d="M133.1 239.368C133.1 239.726 134.898 250.87 135.38 251.349C135.862 251.828 139.812 252.306 139.812 252.306L133.1 239.368Z" fill="black"/>
<path d="M146.143 87.0442C144.427 88.9624 143.684 91.6816 141.684 93.3034C140.47 94.2804 138.933 94.7461 137.519 95.4104C136.106 96.0747 134.706 97.0875 134.286 98.5921C133.817 100.286 134.722 102.015 135.197 103.708C135.689 105.46 135.718 107.29 135.748 109.124C135.78 111.342 135.816 113.559 135.777 115.777C135.718 119.232 135.432 122.847 133.598 125.775C140.219 127.882 147.26 128.168 154.203 128.439C155.537 128.534 156.877 128.5 158.205 128.338C159.356 128.108 160.494 127.82 161.615 127.475C163.831 126.888 166.115 126.596 168.408 126.605C169.408 126.605 170.427 126.667 171.391 126.407C172.355 126.146 173.283 125.478 173.544 124.515C173.775 123.648 173.436 122.727 172.993 121.948C172.186 120.528 171.039 119.343 170.173 117.943C169.289 116.464 168.764 114.797 168.641 113.078C168.519 111.36 168.801 109.636 169.466 108.046C170.235 106.258 171.472 104.701 172.228 102.91C173.002 100.987 173.208 98.8825 172.821 96.8459C172.434 94.8094 171.471 92.9266 170.046 91.4211C167.418 88.7311 163.647 87.689 160.039 87.1354C158.519 86.956 157.07 86.3959 155.825 85.5071C154.441 84.5953 152.646 84.3738 151.024 84.5757C149.153 84.7854 147.421 85.6617 146.143 87.0442Z" fill="#3F3D56"/>
<g opacity="0.1">
<path d="M169.567 106.167C168.903 107.736 168.619 109.44 168.737 111.14C168.81 109.924 169.091 108.73 169.567 107.61C170.333 105.822 171.57 104.265 172.326 102.474C172.943 100.978 173.203 99.3592 173.084 97.7454C173.017 98.8765 172.761 99.9883 172.326 101.035C171.57 102.826 170.333 104.379 169.567 106.167Z" fill="black"/>
<path d="M135.845 108.681C135.865 109.958 135.884 111.237 135.888 112.514C135.888 110.755 135.871 109 135.845 107.245C135.819 105.424 135.787 103.581 135.295 101.826C134.969 100.712 134.487 99.5821 134.318 98.4586C134.028 100.054 134.852 101.673 135.295 103.265C135.787 105.004 135.819 106.861 135.845 108.681Z" fill="black"/>
<path d="M171.502 124.544C170.525 124.808 169.522 124.749 168.522 124.743C166.231 124.728 163.948 125.015 161.732 125.596C160.611 125.94 159.473 126.227 158.322 126.455C156.994 126.62 155.652 126.655 154.317 126.56C147.608 126.296 140.805 126.013 134.38 124.094C134.189 124.52 133.972 124.934 133.729 125.332C140.349 127.436 147.39 127.726 154.33 127.996C155.665 128.092 157.007 128.057 158.335 127.892C159.482 127.665 160.615 127.379 161.732 127.035C163.944 126.452 166.222 126.162 168.509 126.172C169.509 126.172 170.525 126.234 171.489 125.97C172.453 125.706 173.381 125.045 173.641 124.081C173.751 123.635 173.74 123.167 173.609 122.727C173.319 123.639 172.423 124.274 171.502 124.544Z" fill="black"/>
</g>
<path d="M161.856 120.685C161.615 121.225 160.599 125.895 160.358 126.374C160.117 126.853 158.801 134.515 158.681 134.945C158.56 135.375 150.008 133.148 150.008 133.148L144.86 128.833L139.568 123.567C139.568 123.567 139.411 118.815 143.31 117.291C143.574 117.187 143.847 117.102 144.124 117.037C148.852 115.901 148.377 101.523 148.377 101.523L158.081 105.714C158.081 105.714 156.284 114.103 156.346 115.722C156.362 116.266 156.789 116.604 157.345 116.809C158.206 117.054 159.103 117.151 159.996 117.096C159.996 117.096 162.097 120.147 161.856 120.685Z" fill="#FBBEBE"/>
<path d="M179.23 136.44L180.607 136.802C180.607 136.802 181.626 138.352 179.23 139.794C177.708 140.719 176.247 141.74 174.856 142.852L167.773 145.008L166.408 140.726L173 135.724L179.23 136.44Z" fill="#6C63FF"/>
<path opacity="0.1" d="M179.23 136.44L180.607 136.802C180.607 136.802 181.626 138.352 179.23 139.794C177.708 140.719 176.247 141.74 174.856 142.852L167.773 145.008L166.408 140.726L173 135.724L179.23 136.44Z" fill="black"/>
<path d="M127.538 140.576L124.783 143.272C124.783 143.272 129.752 149.024 133.576 149.382C137.399 149.74 139.864 145.008 139.864 145.008L136.555 139.798L127.538 140.576Z" fill="#6C63FF"/>
<path opacity="0.1" d="M127.538 140.576L124.783 143.272C124.783 143.272 129.752 149.024 133.576 149.382C137.399 149.74 139.864 145.008 139.864 145.008L136.555 139.798L127.538 140.576Z" fill="black"/>
<path opacity="0.1" d="M153.708 110.918C159.001 110.918 163.292 106.627 163.292 101.334C163.292 96.041 159.001 91.75 153.708 91.75C148.415 91.75 144.124 96.041 144.124 101.334C144.124 106.627 148.415 110.918 153.708 110.918Z" fill="black"/>
<path d="M153.708 110.199C159.001 110.199 163.292 105.908 163.292 100.614C163.292 95.3213 159.001 91.0303 153.708 91.0303C148.415 91.0303 144.124 95.3213 144.124 100.614C144.124 105.908 148.415 110.199 153.708 110.199Z" fill="#FBBEBE"/>
<path opacity="0.1" d="M170.903 181.075C168.72 181.325 166.571 181.806 164.49 182.511C160.908 183.703 132.836 182.531 132.446 182.511C132.446 181.834 132.446 181.433 132.446 181.433L133.82 178.02L150.103 175.982H157.893C157.893 175.982 169.616 178.737 170.828 179.925C170.877 180.642 170.903 181.075 170.903 181.075Z" fill="black"/>
<path opacity="0.1" d="M161.856 120.685C161.615 121.225 160.599 125.895 160.358 126.374C160.117 126.853 158.801 134.515 158.681 134.945C158.56 135.375 150.008 133.148 150.008 133.148L144.86 128.833L139.568 123.567C139.568 123.567 139.411 118.815 143.31 117.291L152.988 128.419L157.345 116.809C158.206 117.054 159.103 117.151 159.996 117.096C159.996 117.096 162.097 120.147 161.856 120.685Z" fill="black"/>
<path d="M152.988 128.777L143.082 117.379C142.502 117.009 141.839 116.789 141.153 116.738C140.467 116.688 139.779 116.808 139.151 117.09C136.933 118.05 134.178 118.829 133.458 119.307C132.739 119.786 130.042 122.749 130.042 122.749L138.073 143.758L134.536 157.595C134.536 157.595 135.077 164.665 133.699 167.241C132.861 168.888 132.468 170.726 132.56 172.572C132.56 172.572 132.98 175.988 132.501 177.783C132.221 178.982 132.2 180.228 132.439 181.436C132.439 181.436 160.898 182.635 164.49 181.436C166.57 180.729 168.72 180.248 170.903 180C170.903 180 170.251 168.016 169.6 165.14C168.949 162.265 170.141 151.303 170.141 151.303L169.362 139.56L174.032 127.511C174.032 127.511 171.502 119.786 168.864 119.008C168.864 119.008 164.074 117.868 163.054 117.331C162.035 116.793 159.039 116.311 159.039 116.311L157.466 116.839L152.988 128.777Z" fill="#6C63FF"/>
<path opacity="0.1" d="M166.81 139.163L145.964 137.746C145.436 137.71 144.979 138.109 144.944 138.636L142.705 171.549C142.67 172.077 143.068 172.534 143.596 172.57L164.442 173.987C164.969 174.023 165.426 173.624 165.462 173.097L167.7 140.184C167.736 139.656 167.337 139.199 166.81 139.163Z" fill="black"/>
<path d="M167.528 138.449L146.681 137.031C146.154 136.995 145.697 137.394 145.661 137.921L143.423 170.835C143.387 171.362 143.786 171.819 144.314 171.855L165.16 173.272C165.687 173.308 166.144 172.91 166.18 172.382L168.418 139.469C168.454 138.941 168.055 138.484 167.528 138.449Z" fill="#3F3D56"/>
<path d="M147.014 139.68L166.84 141.029L164.802 170.992L144.976 169.643L147.014 139.68Z" fill="white"/>
<path opacity="0.1" d="M148.867 147.543L165.062 148.676L164.746 153.19L148.551 152.056L148.867 147.543Z" fill="black"/>
<path opacity="0.1" d="M161.906 166.439L164.476 166.613L164.316 168.966L161.746 168.791L161.906 166.439Z" fill="black"/>
<path opacity="0.1" d="M148.785 160.042L161.941 160.936L161.781 163.289L148.625 162.394L148.785 160.042Z" fill="black"/>
<path d="M150.688 138.977L164.386 139.908L164.14 143.525L150.442 142.593L150.688 138.977Z" fill="#3F3D56"/>
<path opacity="0.1" d="M150.688 138.977L164.386 139.908L164.14 143.525L150.442 142.593L150.688 138.977Z" fill="black"/>
<path opacity="0.1" d="M154.187 180.414C154.187 180.414 154.066 198.149 149.393 208.333C149.393 208.333 155.027 194.912 155.027 194.375C155.027 193.837 158.14 188.204 157.306 186.526C156.473 184.849 154.187 180.414 154.187 180.414Z" fill="black"/>
<path opacity="0.1" d="M154.441 98.2176C154.262 96.6478 154.646 95.0655 155.525 93.7528C155.42 95.0686 155.793 96.378 156.573 97.4422C157.354 98.5064 158.492 99.2544 159.778 99.5495C159.668 99.4542 159.59 99.3279 159.553 99.1873C159.517 99.0466 159.524 98.8981 159.573 98.7614C160.241 99.5169 160.752 100.413 161.507 101.077C162.263 101.741 163.396 102.139 164.285 101.666C165.493 101.015 165.506 99.2988 165.194 97.9636C164.523 95.1201 163.146 92.4914 161.191 90.3204C160.704 89.6641 160.071 89.1297 159.342 88.759C158.613 88.3884 157.808 88.1916 156.99 88.184C155.141 88.0407 153.219 88.2036 151.562 89.034C150.629 89.543 149.755 90.1535 148.956 90.8544L144.397 94.5735C143.959 94.8895 143.583 95.2849 143.29 95.7393C143.094 96.1192 142.977 96.5344 142.945 96.9605C142.828 98.1785 143.054 99.4049 143.596 100.502C144.137 101.599 144.974 102.523 146.013 103.171C145.991 102.208 146.255 101.261 146.773 100.449C147.291 99.6371 148.038 98.9976 148.921 98.6116C149.059 98.7272 149.171 98.8709 149.249 99.0332C149.327 99.1956 149.369 99.3727 149.373 99.5528L150.334 97.8398C150.477 97.5281 150.702 97.2613 150.985 97.068C151.578 96.7423 152.317 97.1266 152.822 97.5858C153.327 98.045 153.819 98.6181 154.496 98.6898L154.522 96.1399" fill="black"/>
<path d="M154.44 97.8593C154.261 96.2885 154.645 94.705 155.525 93.3913C155.232 95.9966 157.196 98.6865 159.781 99.188C159.671 99.0936 159.593 98.9678 159.556 98.8276C159.52 98.6874 159.527 98.5394 159.576 98.4032C160.244 99.1587 160.755 100.051 161.511 100.719C162.266 101.386 163.399 101.78 164.288 101.305C165.497 100.653 165.51 98.9373 165.197 97.6053C164.526 94.7618 163.15 92.1332 161.195 89.9621C160.588 89.2227 159.824 88.6285 158.957 88.2231C158.33 87.9912 157.671 87.8572 157.003 87.8258C155.154 87.6825 153.232 87.8421 151.575 88.6725C150.642 89.1838 149.769 89.7953 148.969 90.4962L144.41 94.2152C143.971 94.5304 143.595 94.926 143.303 95.3811C143.107 95.7608 142.989 96.1762 142.958 96.6023C142.842 97.8198 143.067 99.0456 143.609 100.142C144.151 101.239 144.988 102.162 146.025 102.809C146.004 101.847 146.269 100.9 146.787 100.088C147.305 99.2765 148.052 98.6368 148.934 98.2501C149.071 98.3661 149.183 98.5099 149.261 98.6722C149.339 98.8344 149.382 99.0113 149.386 99.1913L150.344 97.4848C150.486 97.1726 150.711 96.9055 150.995 96.713C151.588 96.3874 152.327 96.7716 152.832 97.2308C153.337 97.69 153.828 98.2599 154.506 98.3348L154.532 95.7816" fill="#3F3D56"/>
<path d="M158.98 158.311C158.143 157.888 144.303 160.047 144.303 160.047C144.303 160.047 142.023 159.396 136.513 158.49C131.003 157.585 130.651 152.199 130.651 152.199L130.049 141.416L131.908 139.788L139.874 144.998C139.874 144.998 139.998 147.633 139.874 148.108C139.796 148.434 139.587 148.822 139.607 149.085C139.613 149.157 139.642 149.224 139.691 149.277C139.739 149.33 139.803 149.366 139.874 149.379C140.414 149.515 147.781 150.707 147.781 150.707C147.781 150.707 164.855 149.538 169.111 155.289C169.449 155.711 169.704 156.193 169.864 156.709C170.919 160.64 159.739 158.686 158.98 158.311Z" fill="#FBBEBE"/>
<path opacity="0.1" d="M169.874 156.732C169.222 157.022 168.818 157.23 168.818 157.23C168.818 157.23 162.709 157.051 159.277 155.807C155.844 154.563 151.672 154.785 151.672 154.785C151.672 154.785 137.37 152.323 139.587 149.108C139.593 149.18 139.623 149.247 139.671 149.3C139.719 149.353 139.784 149.389 139.854 149.401C140.395 149.538 147.761 150.73 147.761 150.73C147.761 150.73 164.836 149.561 169.092 155.312C169.44 155.732 169.705 156.214 169.874 156.732Z" fill="black"/>
<path d="M175.813 137.759C175.813 137.759 176.654 143.689 176.712 144.171C176.771 144.653 177.074 150.46 176.712 151.121C176.351 151.782 175.813 152.857 175.813 152.857C175.813 152.857 176.413 154.114 174.016 154.596C171.619 155.078 168.805 156.51 168.805 156.51C168.805 156.51 162.693 156.331 159.28 155.074C155.867 153.817 151.672 154.055 151.672 154.055C151.672 154.055 133.517 150.938 141.307 147.135C149.096 143.331 154.607 148.483 154.607 148.483L163.292 147.946C163.292 147.946 166.529 145.966 167.428 146.148C168.062 146.229 168.707 146.125 169.284 145.848L169.346 139.557L175.813 137.759Z" fill="#FBBEBE"/>
<path opacity="0.1" d="M131.771 123.202L130.032 123.111L124.763 143.627C124.763 143.627 130.453 142.188 132.905 143.627C135.357 145.067 139.854 145.363 139.854 145.363L138.177 129.009L131.771 123.202Z" fill="black"/>
<path d="M131.771 122.841L130.032 122.749L124.763 143.266C124.763 143.266 130.453 141.827 132.905 143.266C135.357 144.705 139.854 145.002 139.854 145.002L138.177 128.647L131.771 122.841Z" fill="#6C63FF"/>
<path opacity="0.1" d="M171.622 127.335L174.016 127.875C174.016 127.875 180.129 136.668 180.607 137.16C181.086 137.652 178.328 139.439 177.191 139.439C176.055 139.439 170.483 140.091 168.864 141.595C167.246 143.1 167.92 135.528 167.92 135.356C167.92 135.183 169.929 130.406 169.929 130.406L171.622 127.335Z" fill="black"/>
<path d="M171.622 126.977L174.016 127.514C174.016 127.514 180.129 136.323 180.607 136.802C181.086 137.28 178.328 139.081 177.191 139.081C176.055 139.081 170.483 139.733 168.864 141.237C167.246 142.742 167.92 135.17 167.92 134.998C167.92 134.825 169.942 130.031 169.942 130.031L171.622 126.977Z" fill="#6C63FF"/>
<g opacity="0.1">
<path d="M155.509 93.4206C155.495 93.1709 155.5 92.9205 155.525 92.6716C155.029 93.4156 154.688 94.2518 154.522 95.1303V95.8859C154.522 95.8859 154.522 95.8696 154.522 95.8598V96.0389C154.522 96.5665 154.522 97.0973 154.506 97.6249H154.46V97.8691C154.46 97.7844 154.46 97.703 154.444 97.6184C153.793 97.5142 153.327 96.967 152.842 96.5307C152.356 96.0943 151.598 95.6774 151.005 96.0129C150.721 96.2054 150.496 96.4724 150.354 96.7847L149.386 98.4911C149.382 98.3116 149.34 98.135 149.261 97.9732C149.183 97.8115 149.072 97.6683 148.934 97.5532C148.052 97.9392 147.304 98.5787 146.786 99.3905C146.268 100.202 146.004 101.15 146.026 102.112C145.136 101.555 144.391 100.794 143.854 99.8916C143.317 98.9896 143.002 97.9726 142.935 96.9247C142.878 98.0948 143.135 99.2588 143.678 100.297C144.222 101.334 145.032 102.209 146.026 102.829C146.004 101.866 146.27 100.919 146.787 100.108C147.305 99.296 148.052 98.6563 148.934 98.2697C149.071 98.3856 149.183 98.5295 149.261 98.6917C149.339 98.8539 149.382 99.0309 149.386 99.2108L150.344 97.5044C150.486 97.1921 150.711 96.9251 150.995 96.7326C151.588 96.4069 152.327 96.7912 152.832 97.2504C153.337 97.7095 153.828 98.2794 154.506 98.3543C154.506 97.5207 154.514 96.6892 154.532 95.8598C154.692 94.9897 155.024 94.1604 155.509 93.4206Z" fill="black"/>
<path d="M154.408 96.7C154.424 96.4786 154.45 96.2571 154.483 96.0487L154.519 95.1499C154.421 95.6604 154.384 96.1808 154.408 96.7Z" fill="black"/>
<path d="M164.288 100.585C163.399 101.061 162.266 100.663 161.511 99.9989C160.755 99.3346 160.244 98.439 159.576 97.6835C159.527 97.8202 159.52 97.9687 159.557 98.1094C159.593 98.25 159.672 98.3763 159.781 98.4716C159.716 98.4716 159.654 98.439 159.592 98.4227C160.244 99.1718 160.762 100.051 161.511 100.702C162.26 101.354 163.399 101.764 164.288 101.289C165.178 100.813 165.432 99.6993 165.353 98.6149C165.295 99.4681 164.989 100.207 164.288 100.585Z" fill="black"/>
<path d="M159.573 98.4163C158.484 98.1195 157.512 97.4969 156.786 96.632C156.061 95.7671 155.618 94.7011 155.515 93.577C155.33 96.1334 157.258 98.6964 159.781 99.1881C159.674 99.0947 159.597 98.9714 159.56 98.834C159.522 98.6965 159.527 98.5511 159.573 98.4163Z" fill="black"/>
</g>
<path d="M315.967 151.642C315.967 151.642 314.684 151.463 314.684 149.597C314.684 147.731 313.766 144.236 313.766 144.236C313.766 144.236 312.971 138.156 311.874 137.192C310.776 136.228 309.366 130.569 309.366 130.569C309.366 130.569 309.125 127.498 308.633 126.836C308.142 126.175 307.477 124.557 306.497 122.248C305.517 119.939 301.44 118.356 301.44 118.356C301.44 118.356 294.05 114.071 291.956 112.674C291.765 112.558 291.586 112.422 291.422 112.27C291.058 111.794 289.468 111.785 289.468 111.785C289.302 110.733 289.143 109.528 289.091 108.437C289.091 108.32 289.091 108.202 289.091 108.085C291.426 106.705 293.184 104.529 294.044 101.956C294.083 101.832 294.116 101.705 294.151 101.578C294.294 101.534 294.426 101.46 294.538 101.362C294.651 101.263 294.741 101.141 294.803 101.005C294.988 100.585 294.995 100.097 295.229 99.7026C295.503 99.2402 296.024 98.9927 296.434 98.6475C297.47 97.7649 297.737 96.2832 297.688 94.9382C297.655 93.844 297.48 92.7433 297.548 91.6588C297.548 91.5677 297.548 91.4765 297.567 91.3853C297.587 91.2257 297.61 91.0596 297.639 90.9033C297.799 90.0957 298.147 89.3337 298.343 88.5325C298.538 87.7314 298.558 86.8293 298.102 86.1389C297.434 85.1261 296.043 84.9242 294.822 84.8363C293.438 84.7191 292.217 84.8689 291.315 83.7193C290.901 83.1189 290.435 82.5565 289.921 82.0389C289.739 81.8696 287.967 80.7851 287.967 80.7167C286.234 79.9108 284.267 79.7593 282.431 80.2901C281.509 80.5571 280.646 80.9935 279.712 81.2117C277.706 81.6872 275.393 81.1726 273.687 82.3222C272.736 82.9735 272.166 84.0124 271.632 85.0187C271.198 85.848 270.757 86.6784 270.31 87.51C269.587 88.8745 268.857 90.2618 268.555 91.7728C268.491 92.1029 268.451 92.4369 268.434 92.7726V93.1341V93.2904C268.434 93.4011 268.434 93.5118 268.454 93.6161C268.473 93.7203 268.454 93.7496 268.476 93.818C268.499 93.8864 268.506 94.0394 268.525 94.1436C268.545 94.2478 268.584 94.4335 268.623 94.5735C268.623 94.6354 268.662 94.694 268.682 94.7559C268.701 94.8177 268.753 94.9741 268.796 95.0815C268.838 95.189 268.841 95.1955 268.867 95.2509C268.916 95.3648 268.975 95.4756 269.033 95.5765C269.059 95.6189 269.079 95.6612 269.105 95.7035C269.194 95.856 269.294 96.0018 269.405 96.1399C270.098 97.0094 271.127 97.563 271.886 98.3772V98.4749V98.7419C271.933 100.558 272.422 102.335 273.312 103.918C274.202 105.502 275.465 106.844 276.992 107.828C276.992 107.952 277.009 108.079 277.015 108.206C277.079 109.171 277.067 110.14 276.979 111.104C276.846 110.948 276.68 110.824 276.493 110.741C276.306 110.657 276.103 110.617 275.898 110.622C275.758 110.615 275.618 110.627 275.481 110.658L275.452 110.635V110.664C274.736 110.84 273.853 111.586 273.01 113.706C273.01 113.706 270.443 116.598 268.489 116.477C266.536 116.357 261.589 119.49 261.589 119.49C261.589 119.49 256.762 122.619 255.727 125.811C255.148 127.621 254.453 129.392 253.646 131.112L247.664 143.396L246.566 153.166C246.566 153.166 247.175 157.5 247.055 158.165C246.934 158.829 249.559 164.789 249.559 164.789C249.559 164.789 258.231 180.023 261.774 180.805L262.028 180.629C262.181 180.706 262.341 180.765 262.507 180.805L263.237 180.293C263.282 180.866 263.262 181.442 263.178 182.01C262.693 183.517 263.364 193.333 264.217 195.257C265.07 197.182 264.767 222.421 264.767 222.421L264.647 224.645C264.647 224.645 264.647 224.716 264.676 224.84L264.647 225.368L264.735 225.413C264.826 226.121 264.796 226.839 264.647 227.537C264.341 228.514 264.217 231.272 264.217 231.272C264.217 231.272 261.774 246.864 262.934 249.997C264.093 253.13 265.073 256.563 265.073 256.563C265.073 256.563 266.295 260.47 265.132 261.122C263.969 261.773 260.677 262.929 261.348 264.554C261.967 266.059 264.315 270.09 264.663 270.68L264.634 271.006L264.155 276.193C264.232 276.878 264.418 277.547 264.705 278.173C265.23 279.307 266.246 280.476 268.187 280.349C268.512 280.326 268.887 280.29 269.255 280.241C272.801 279.762 277.165 278.18 277.165 278.18C276.939 278.036 276.732 277.865 276.55 277.669C276.375 277.5 276.237 277.297 276.144 277.073C276.05 276.849 276.003 276.609 276.006 276.366C276.058 275.418 274.289 270.921 273.847 269.81L273.746 269.563C273.746 269.563 277.777 265.346 277.106 261.614C277.106 261.614 272.645 259.008 274.114 257.575C275.582 256.142 278.207 252.039 278.207 252.039C278.207 252.039 278.328 236.684 278.207 234.395C278.081 232.803 278.157 231.201 278.432 229.627C278.481 229.393 278.539 229.162 278.601 228.93C280.634 229.237 282.687 229.393 284.743 229.396C285.494 229.396 286.254 229.381 287.023 229.351C287.023 229.568 287.032 229.802 287.052 230.054C287.221 233.858 287.537 240.53 287.794 243.009C288.159 246.558 290.175 256.136 290.175 256.136C290.175 256.136 286.329 258.601 290.846 264.688C290.846 264.688 290.846 266.889 290.546 267.212C290.226 268.256 289.968 269.318 289.774 270.393C289.586 271.536 289.507 272.699 289.814 273.298C290.546 274.738 294.943 274.62 294.943 274.62C294.978 274.612 295.014 274.607 295.05 274.604C295.88 274.516 296.719 274.595 297.518 274.835C298.317 275.076 299.06 275.473 299.704 276.004C301.374 277.346 307.712 276.76 311.147 276.33C312.492 276.157 313.391 276.004 313.391 276.004C313.434 275.852 313.45 275.693 313.437 275.535C313.401 274.692 312.74 272.842 308.259 271.191C308.259 271.191 304.045 268.358 304.103 265.889H304.009H303.524C303.83 265.88 304.045 265.88 304.045 265.88C304.045 265.88 302.394 259.858 303.068 259.366C303.742 258.875 301.723 252.202 301.723 252.202C301.723 252.202 300.567 240.999 300.502 240.218C300.506 239.544 300.609 238.875 300.808 238.231L300.502 232.086C300.502 232.086 300.443 230.044 300.502 229.38C300.495 228.803 300.449 228.228 300.365 227.657C300.336 227.429 300.306 227.191 300.274 226.957C301.853 226.556 302.879 226.188 302.879 226.188L302.697 204.809C304.038 202.204 304.286 196.485 304.279 192.434C304.279 189.829 304.162 187.901 304.162 187.901L305.996 184.908C305.996 184.908 306.419 181.326 305.748 180.541C305.452 180.186 305.585 179.818 305.829 179.515C305.958 179.41 306.094 179.314 306.237 179.228C306.22 179.206 306.206 179.182 306.194 179.157C306.322 179.05 306.458 178.953 306.601 178.867C306.601 178.867 305.95 177.857 306.533 177.431C307.08 177.802 307.568 178.098 307.94 178.31C307.914 178.548 307.888 178.685 307.888 178.685L308.044 178.359C308.402 178.561 308.62 178.685 308.62 178.685C308.62 178.685 311.493 172.963 311.431 172.123C311.369 171.282 313.385 167.726 313.385 167.726C313.385 167.726 313.629 165.857 314.73 165.075C315.83 164.294 315.583 158.631 315.583 158.631C315.583 158.631 315.889 155.68 316.622 154.478C317.355 153.277 315.967 151.642 315.967 151.642ZM261.009 149.131L261.064 150.496C260.739 149.971 260.504 149.597 260.504 149.597L261.009 149.131Z" fill="url(#paint1_linear_3_2)"/>
<path d="M308.79 176.21L308.086 179.206C308.086 179.206 302.452 176.324 301.44 172.676C300.427 169.029 303.136 167.638 303.136 167.638L308.389 169.859L308.79 176.21Z" fill="white"/>
<path opacity="0.1" d="M308.79 176.21L308.086 179.206C308.086 179.206 302.452 176.324 301.44 172.676C300.427 169.029 303.136 167.638 303.136 167.638L308.389 169.859L308.79 176.21Z" fill="black"/>
<path d="M277.172 278.177C277.172 278.177 271.961 280.091 268.379 280.332C266.477 280.459 265.477 279.294 264.963 278.17C264.683 277.55 264.501 276.891 264.422 276.216L264.894 271.054L265.142 268.309L272.752 266.329L273.83 269.628L273.931 269.875C274.361 270.979 276.1 275.454 276.048 276.389C276.044 276.63 276.089 276.87 276.18 277.094C276.271 277.318 276.407 277.521 276.579 277.691C276.755 277.878 276.954 278.041 277.172 278.177Z" fill="white"/>
<path d="M312.746 275.552C312.76 275.71 312.744 275.868 312.701 276.021C312.701 276.021 301.557 277.877 299.277 276.021C298.636 275.478 297.889 275.076 297.084 274.839C296.279 274.601 295.433 274.535 294.601 274.643C294.601 274.643 290.289 274.76 289.569 273.34C289.27 272.745 289.348 271.588 289.533 270.452C289.723 269.383 289.975 268.326 290.289 267.287L290.462 267.15L291.487 266.326L303.498 265.971H303.589C303.53 268.426 307.663 271.243 307.663 271.243C312.062 272.872 312.71 274.712 312.746 275.552Z" fill="white"/>
<path opacity="0.1" d="M312.75 275.552C312.761 275.71 312.745 275.868 312.701 276.021C312.701 276.021 301.557 277.877 299.281 276.021C298.639 275.478 297.892 275.075 297.086 274.838C296.28 274.601 295.434 274.534 294.601 274.643C294.601 274.643 290.286 274.76 289.566 273.34C289.27 272.745 289.345 271.588 289.53 270.449C291.191 270.615 293.813 271.028 294.842 272.018C296.398 273.516 299.036 275.014 300.652 275.135C301.928 275.213 309.519 275.454 312.75 275.552Z" fill="black"/>
<path opacity="0.1" d="M277.172 278.177C277.172 278.177 271.961 280.091 268.379 280.332C266.477 280.459 265.477 279.294 264.963 278.17C266.291 278.616 268.131 279.082 269.098 278.655C270.245 278.144 274.309 277.818 276.589 277.678C276.76 277.869 276.956 278.036 277.172 278.177Z" fill="black"/>
<path d="M284.903 123.85C280.604 122.18 275.074 116.66 276.455 114.08C276.76 113.429 276.942 112.727 276.992 112.009C277.081 111.035 277.094 110.055 277.032 109.078C276.935 107.478 276.742 105.885 276.455 104.307C276.455 104.307 289.876 104.61 289.094 106.587C288.866 107.17 288.827 108.176 288.892 109.3C288.957 110.423 289.117 111.703 289.286 112.781C289.517 114.256 289.755 115.386 289.755 115.386C289.755 115.386 288.931 116.536 288.452 116.598C287.974 116.66 291.071 126.244 284.903 123.85Z" fill="#CF6F80"/>
<path opacity="0.1" d="M273.918 269.859L273.817 269.97C269.805 265.118 264.953 271.168 264.953 271.168L264.881 271.038L265.129 268.293L272.739 266.313L273.817 269.612L273.918 269.859Z" fill="black"/>
<path opacity="0.1" d="M303.595 266.313C303.595 266.313 300.664 266.254 299.101 267.635C297.538 269.016 289.983 267.931 290.309 267.635C290.404 267.485 290.462 267.314 290.478 267.137L291.504 266.313L303.514 265.958C303.56 266.186 303.595 266.313 303.595 266.313Z" fill="black"/>
<path d="M278.911 228.208C278.693 228.747 278.527 229.307 278.416 229.878C278.144 231.443 278.069 233.036 278.191 234.62C278.311 236.899 278.191 252.176 278.191 252.176C278.191 252.176 275.615 256.25 274.176 257.686C272.736 259.122 277.106 261.701 277.106 261.701C277.758 265.417 273.811 269.612 273.811 269.612C269.799 264.759 264.946 270.807 264.946 270.807C264.946 270.807 262.309 266.248 261.651 264.619C260.993 262.991 264.227 261.868 265.363 261.203C266.5 260.539 265.305 256.644 265.305 256.644C265.305 256.644 264.347 253.228 263.207 250.111C262.068 246.995 264.464 231.484 264.464 231.484C264.464 231.484 264.588 228.725 264.885 227.765C265.032 227.071 265.062 226.358 264.972 225.654C264.953 225.417 264.93 225.221 264.914 225.084C264.898 224.948 264.885 224.889 264.885 224.889L264.93 224.811L266.558 221.776C266.558 221.776 279.692 226.296 278.911 228.208Z" fill="#6C63FF"/>
<path d="M303.595 265.955C303.595 265.955 300.664 265.893 299.101 267.257C297.538 268.622 289.983 267.557 290.308 267.257C290.634 266.958 290.605 264.743 290.605 264.743C286.173 258.689 289.954 256.234 289.954 256.234C289.954 256.234 287.977 246.708 287.619 243.175C287.368 240.71 287.058 234.056 286.892 230.288C286.821 228.66 286.778 227.537 286.778 227.537L290.367 226.823L290.833 226.732L299.567 224.977C299.567 224.977 299.808 226.605 299.971 227.937C300.053 228.506 300.098 229.079 300.104 229.653C300.049 230.305 300.104 232.347 300.104 232.347L300.404 238.456C300.211 239.097 300.11 239.763 300.104 240.433C300.166 241.214 301.303 252.355 301.303 252.355C301.303 252.355 303.279 259.005 302.605 259.484C301.931 259.962 303.595 265.955 303.595 265.955Z" fill="#6C63FF"/>
<path opacity="0.1" d="M289.094 106.597C288.866 107.18 288.827 108.186 288.892 109.31C287.094 110.392 285.028 110.945 282.93 110.906C280.832 110.867 278.787 110.237 277.031 109.088C276.935 107.488 276.742 105.895 276.455 104.317C276.455 104.317 289.875 104.62 289.094 106.597Z" fill="black"/>
<path d="M294.275 99.4063C294.31 102.361 293.171 105.209 291.106 107.323C289.042 109.437 286.222 110.645 283.268 110.681C280.313 110.716 277.465 109.576 275.351 107.512C273.237 105.448 272.029 102.628 271.993 99.6733C271.993 99.5821 271.993 99.4975 271.993 99.4063C271.993 96.4507 273.168 93.6162 275.257 91.5263C277.347 89.4363 280.182 88.2622 283.137 88.2622C286.093 88.2622 288.928 89.4363 291.017 91.5263C293.107 93.6162 294.282 96.4507 294.282 99.4063H294.275Z" fill="#CF6F80"/>
<path opacity="0.1" d="M284.903 123.85C280.604 122.18 275.074 116.66 276.455 114.08C276.76 113.429 276.942 112.727 276.992 112.009L282.877 116.849L286.518 119.835L289.286 112.791C289.517 114.266 289.755 115.396 289.755 115.396C289.755 115.396 288.931 116.546 288.452 116.608C287.974 116.669 291.071 126.244 284.903 123.85Z" fill="black"/>
<path d="M300.121 145.236L295.206 227.791L288.798 228.211L272.199 180.342L274.921 123.512L275.498 111.504L282.877 117.565L286.518 120.551L289.367 113.299L294.666 117.917L300.121 145.236Z" fill="#6C63FF"/>
<path opacity="0.1" d="M278.91 228.208C278.693 228.747 278.527 229.307 278.415 229.878C273.747 229.159 269.214 227.744 264.966 225.68L264.878 225.635L264.907 225.11V224.837L266.535 221.802C266.535 221.802 279.692 226.296 278.91 228.208Z" fill="black"/>
<path opacity="0.1" d="M290.475 229.891C289.283 230.095 288.08 230.233 286.873 230.305C286.801 228.676 286.759 227.553 286.759 227.553L290.367 226.823L290.475 229.891Z" fill="black"/>
<path opacity="0.1" d="M299.984 227.937C297.668 228.54 294.089 229.217 290.892 228.794L290.846 226.732L299.58 224.977C299.58 224.977 299.811 226.592 299.984 227.937Z" fill="black"/>
<path opacity="0.1" d="M290.833 229.171C277.481 231.451 265.252 224.915 265.252 224.915L265.37 222.701C265.37 222.701 265.673 197.596 264.832 195.671C263.992 193.746 263.338 183.999 263.813 182.511C264.289 181.023 262.077 158.552 262.077 158.552L261.719 149.434L248.598 144.103L254.46 131.881C255.252 130.168 255.933 128.406 256.499 126.605C257.518 123.43 262.25 120.314 262.25 120.314C262.25 120.314 267.102 117.2 269.02 117.317C270.938 117.435 273.453 114.562 273.453 114.562C275.309 109.831 276.989 111.957 276.989 111.957C276.989 112.185 276.989 111.957 276.898 112.657C276.247 117.852 287.43 134.265 287.589 134.558L288.667 160.5L289.745 193.329L290.833 229.171Z" fill="black"/>
<path d="M290.475 229.171C277.123 231.451 264.891 224.915 264.891 224.915L265.011 222.701C265.011 222.701 265.311 197.596 264.471 195.671C263.63 193.746 262.976 183.99 263.455 182.488C263.933 180.987 261.709 158.539 261.709 158.539L261.348 149.421L248.23 144.09L254.092 131.868C254.882 130.155 255.563 128.394 256.131 126.595C257.15 123.43 261.898 120.31 261.898 120.31C261.898 120.31 266.75 117.197 268.665 117.314C270.58 117.431 273.107 114.562 273.107 114.562C274.967 109.831 277.015 111.957 277.015 111.957C277.015 112.185 276.82 112.283 276.924 112.657C278.357 117.695 287.097 134.265 287.257 134.558L288.335 160.5L289.39 193.346L290.475 229.171Z" fill="white"/>
<path opacity="0.1" d="M286.876 135.291C285.44 134.691 277.832 126.006 277.832 126.006V124.029C277.556 123.378 275.908 123.775 274.576 124.231L275.149 112.224L275.8 112.765C277.223 117.799 286.72 135.001 286.876 135.291Z" fill="black"/>
<path d="M287.238 134.574C285.798 133.972 278.191 125.29 278.191 125.29V123.31C277.914 122.658 276.269 123.056 274.934 123.511L275.498 111.517L276.149 112.055C277.585 117.083 287.078 134.281 287.238 134.574Z" fill="white"/>
<path opacity="0.1" d="M265.252 177.887C265.431 177.887 274.537 176.929 274.537 176.929C274.537 176.929 280.05 187.774 279.689 190.408C279.327 193.043 278.673 195.381 276.455 194.967C274.237 194.554 264.52 195.293 264.52 195.293L265.252 177.887Z" fill="black"/>
<path d="M264.891 177.167C265.073 177.167 274.179 176.21 274.179 176.21C274.179 176.21 279.689 187.07 279.331 189.676C278.972 192.281 278.311 194.648 276.097 194.235C273.882 193.821 264.158 194.56 264.158 194.56L264.891 177.167Z" fill="white"/>
<path d="M271.752 172.09C271.752 172.09 280.109 176.584 280.288 177.952C280.467 179.32 276.035 177.353 275.077 177.112C274.447 176.962 273.805 176.862 273.159 176.812L266.773 176.985L271.752 172.09Z" fill="#CF6F80"/>
<path opacity="0.1" d="M284.541 135.851C285.027 135.851 285.42 135.457 285.42 134.971C285.42 134.486 285.027 134.092 284.541 134.092C284.055 134.092 283.662 134.486 283.662 134.971C283.662 135.457 284.055 135.851 284.541 135.851Z" fill="black"/>
<path d="M284.541 135.493C285.027 135.493 285.42 135.099 285.42 134.613C285.42 134.128 285.027 133.734 284.541 133.734C284.055 133.734 283.662 134.128 283.662 134.613C283.662 135.099 284.055 135.493 284.541 135.493Z" fill="#3F3D56"/>
<path opacity="0.1" d="M286.16 173.914C286.645 173.914 287.039 173.52 287.039 173.034C287.039 172.549 286.645 172.155 286.16 172.155C285.674 172.155 285.28 172.549 285.28 173.034C285.28 173.52 285.674 173.914 286.16 173.914Z" fill="black"/>
<path d="M286.16 173.552C286.645 173.552 287.039 173.159 287.039 172.673C287.039 172.187 286.645 171.794 286.16 171.794C285.674 171.794 285.28 172.187 285.28 172.673C285.28 173.159 285.674 173.552 286.16 173.552Z" fill="#3F3D56"/>
<path opacity="0.1" d="M285.42 154.882C285.906 154.882 286.3 154.488 286.3 154.003C286.3 153.517 285.906 153.124 285.42 153.124C284.935 153.124 284.541 153.517 284.541 154.003C284.541 154.488 284.935 154.882 285.42 154.882Z" fill="black"/>
<path d="M285.42 154.524C285.906 154.524 286.3 154.13 286.3 153.645C286.3 153.159 285.906 152.765 285.42 152.765C284.935 152.765 284.541 153.159 284.541 153.645C284.541 154.13 284.935 154.524 285.42 154.524Z" fill="#3F3D56"/>
<path d="M305.689 176.63C305.689 176.63 306.289 177.528 305.689 177.932C305.09 178.336 305.748 179.372 305.748 179.372C305.748 179.372 304.253 180.244 304.911 181.036C305.569 181.827 305.152 185.38 305.152 185.38L303.354 188.373C303.354 188.373 303.462 190.291 303.468 192.883C303.468 196.928 303.231 202.614 301.915 205.206L302.091 226.475C302.091 226.475 295.796 228.777 290.527 228.074L289.745 193.945C289.745 193.945 290.885 174.591 291.305 170.879C291.551 168.951 291.651 167.008 291.605 165.066C291.605 165.066 291.426 159.256 290.823 156.563C290.823 156.563 290.172 144.878 290.107 141.644C290.077 140.097 290.159 135.584 290.25 131.291C290.351 126.599 290.465 122.173 290.465 122.173L289.276 112.765C289.276 112.765 290.465 112.648 290.823 113.123C290.984 113.273 291.158 113.407 291.344 113.524C293.399 114.911 300.648 119.177 300.648 119.177C300.648 119.177 304.66 120.773 305.621 123.059C306.582 125.345 307.249 126.967 307.715 127.618C308.181 128.269 308.435 131.331 308.435 131.331C308.435 131.331 309.816 136.964 310.893 137.919C311.971 138.873 312.746 144.93 312.746 144.93L303.221 152.42C303.221 152.42 302.384 164.88 302.205 165.362C302.026 165.844 305.689 176.63 305.689 176.63Z" fill="white"/>
<path d="M306.051 176.63C306.051 176.63 306.647 177.528 306.051 177.932C305.455 178.336 306.106 179.372 306.106 179.372C306.106 179.372 304.612 180.244 305.269 181.036C305.927 181.827 305.51 185.38 305.51 185.38L303.719 188.373C303.719 188.373 303.827 190.291 303.836 192.883C303.836 196.928 303.599 202.614 302.283 205.206L302.462 226.475C302.462 226.475 296.167 228.777 290.898 228.074L290.12 193.945C290.12 193.945 291.256 174.591 291.68 170.879C291.926 168.951 292.025 167.008 291.976 165.066C291.976 165.066 291.797 159.256 291.198 156.563C291.198 156.563 290.546 144.878 290.478 141.644C290.449 140.097 290.53 135.584 290.621 131.291C290.722 126.599 290.836 122.173 290.836 122.173L289.267 112.638C289.267 112.638 290.836 112.638 291.198 113.123C291.357 113.275 291.531 113.409 291.719 113.524C293.77 114.911 301.02 119.177 301.02 119.177C301.02 119.177 305.022 120.773 305.999 123.059C306.976 125.345 307.627 126.967 308.093 127.618C308.559 128.269 308.813 131.331 308.813 131.331C308.813 131.331 310.193 136.964 311.271 137.919C312.349 138.873 313.128 144.93 313.128 144.93L303.602 152.42C303.602 152.42 302.765 164.88 302.583 165.362C302.4 165.844 306.051 176.63 306.051 176.63Z" fill="white"/>
<path opacity="0.1" d="M294.643 124.938L295.506 127.445L290.976 132.005C291.077 127.312 291.191 122.886 291.191 122.886L289.622 113.354C289.622 113.354 291.191 113.354 291.553 113.839C291.712 113.991 291.886 114.125 292.074 114.24L295.923 125.342L294.643 124.938Z" fill="black"/>
<path d="M294.275 124.218L295.138 126.722L290.611 131.282C290.709 126.589 290.826 122.163 290.826 122.163L289.253 112.628C289.253 112.628 290.826 112.628 291.184 113.113C291.344 113.264 291.519 113.398 291.705 113.514L295.578 124.625L294.275 124.218Z" fill="white"/>
<path opacity="0.1" d="M294.275 99.4063C294.276 100.58 294.092 101.746 293.728 102.862C293.667 102.872 293.604 102.87 293.543 102.855C293.483 102.84 293.426 102.814 293.376 102.777C293.288 99.8459 291.849 97.0909 290.074 94.7494C289.575 94.0431 288.971 93.4172 288.283 92.8931C287.586 92.3704 286.72 92.1255 285.853 92.206C284.876 92.3395 284.013 93.0038 283.027 93.0885C281.724 93.196 280.558 92.2939 279.265 92.2516C278.74 92.2559 278.221 92.3727 277.744 92.594C277.267 92.8153 276.843 93.136 276.501 93.5347C275.821 94.3365 275.316 95.2716 275.019 96.28C274.507 97.81 274.228 99.4085 274.192 101.022C274.175 101.933 274.087 103.076 273.241 103.409C273.305 102.739 273.229 102.062 273.017 101.423C272.806 100.784 272.464 100.196 272.013 99.6961L271.993 99.6733C271.993 99.5821 271.993 99.4975 271.993 99.4063C271.993 96.4507 273.168 93.6162 275.257 91.5263C277.347 89.4363 280.182 88.2622 283.137 88.2622C286.093 88.2622 288.928 89.4363 291.017 91.5263C293.107 93.6162 294.282 96.4507 294.282 99.4063H294.275Z" fill="black"/>
<path d="M287.762 81.7132C286.07 80.9172 284.145 80.7666 282.349 81.2898C281.447 81.5569 280.597 81.99 279.682 82.2082C277.728 82.6804 275.449 82.1691 273.772 83.3122C272.84 83.9635 272.28 84.9926 271.759 85.9956L270.456 88.4739C269.746 89.8319 269.03 91.2127 268.734 92.7074C268.437 94.2022 268.616 95.8761 269.564 97.081C270.251 97.9538 271.274 98.5042 272.023 99.3281C272.473 99.8304 272.814 100.42 273.025 101.061C273.235 101.702 273.311 102.379 273.247 103.05C274.094 102.725 274.179 101.575 274.198 100.663C274.235 99.0502 274.514 97.4518 275.025 95.9217C275.323 94.9133 275.827 93.9782 276.507 93.1764C276.85 92.7773 277.274 92.4561 277.75 92.2342C278.227 92.0124 278.746 91.895 279.272 91.89C280.575 91.9356 281.744 92.8377 283.033 92.727C284.01 92.6456 284.877 91.9812 285.86 91.8477C286.727 91.7656 287.594 92.0107 288.29 92.5348C288.978 93.0572 289.581 93.6835 290.077 94.3911C291.855 96.7358 293.298 99.4779 293.383 102.419C293.751 102.686 294.282 102.334 294.464 101.917C294.646 101.5 294.653 101.012 294.884 100.614C295.151 100.155 295.662 99.9077 296.063 99.5625C297.079 98.6865 297.333 97.2113 297.294 95.8728C297.255 94.5344 296.994 93.1764 297.248 91.8607C297.401 91.0563 297.747 90.2976 297.936 89.4997C298.124 88.7018 298.147 87.8063 297.701 87.1191C297.05 86.1128 295.679 85.9109 294.484 85.8165C293.126 85.6993 291.911 85.8491 291.045 84.706C290.637 84.1103 290.179 83.5503 289.677 83.0321C289.498 82.8595 287.762 81.7848 287.762 81.7132Z" fill="#512E4E"/>
<path opacity="0.1" d="M252.356 150.388L248.957 144.1L247.879 153.804C247.879 153.804 248.478 158.116 248.357 158.777C248.237 159.438 250.813 165.365 250.813 165.365C250.813 165.365 259.322 180.525 262.797 181.303L274.521 172.914L271.407 168.96C271.407 168.96 270.33 168.54 270.059 168.96C270.059 168.96 264.276 159.015 263.68 158.298C263.084 157.582 263.198 156.139 263.198 156.139C263.198 156.139 262.299 155.182 262.598 154.283C262.898 153.384 260.879 150.271 260.879 150.271L262.735 148.535L252.356 150.388Z" fill="black"/>
<path d="M249.135 143.38L248.237 144.1L247.159 153.804C247.159 153.804 247.758 158.116 247.637 158.777C247.517 159.438 250.096 165.365 250.096 165.365C250.096 165.365 258.602 180.525 262.077 181.303L273.82 172.914L270.704 168.96C270.704 168.96 269.626 168.54 269.356 168.96C269.356 168.96 263.575 159.015 262.976 158.298C262.377 157.582 262.497 156.139 262.497 156.139C262.497 156.139 261.598 155.182 261.898 154.283C262.198 153.384 260.159 150.271 260.159 150.271L262.015 148.535L249.135 143.38Z" fill="white"/>
<path opacity="0.1" d="M304.911 181.41C305.562 182.202 305.152 185.758 305.152 185.758L303.354 188.731C303.354 188.731 303.462 190.653 303.468 193.245L300.446 194.189C300.173 194.274 299.883 194.293 299.601 194.244C299.318 194.194 299.052 194.078 298.824 193.904C298.596 193.731 298.412 193.506 298.289 193.247C298.166 192.988 298.106 192.704 298.115 192.418L298.639 175.614L305.689 178.307C305.09 178.724 305.748 179.746 305.748 179.746C305.748 179.746 304.253 180.619 304.911 181.41Z" fill="black"/>
<path d="M305.269 181.052C305.921 181.84 305.51 185.396 305.51 185.396L303.719 188.373C303.719 188.373 303.827 190.291 303.836 192.883L300.759 193.844C300.492 193.928 300.208 193.946 299.932 193.898C299.656 193.85 299.396 193.737 299.173 193.568C298.95 193.398 298.77 193.178 298.65 192.925C298.529 192.673 298.471 192.395 298.479 192.115L299.004 175.252L306.051 177.952C305.448 178.369 306.106 179.391 306.106 179.391C306.106 179.391 304.611 180.261 305.269 181.052Z" fill="white"/>
<path d="M307.607 173.034C307.607 173.034 307.129 176.092 305.93 176.271C304.732 176.451 304.195 181.218 302.999 181.052C301.804 180.886 302.596 176.617 302.638 175.789C302.68 174.962 301.335 171.536 302.338 170.758C303.341 169.98 306.533 170.758 306.533 170.758L307.607 173.034Z" fill="#CF6F80"/>
<path opacity="0.1" d="M310.141 149.489L312.398 144.93C312.398 144.93 313.3 148.405 313.3 150.261C313.3 152.117 314.557 152.3 314.557 152.3C314.557 152.3 315.935 153.928 315.208 155.117C314.482 156.305 314.192 159.249 314.192 159.249C314.192 159.249 314.43 164.88 313.352 165.658C312.274 166.437 312.033 168.296 312.033 168.296C312.033 168.296 310.056 171.829 310.118 172.67C310.18 173.51 307.363 179.199 307.363 179.199C307.363 179.199 308.741 172.129 300.713 169.074C300.713 169.074 300.651 166.678 301.251 166.02C301.85 165.362 302.784 165.043 302.198 161.734C301.612 158.425 302.029 154.436 302.029 153.638C302.029 152.84 303.827 147.868 303.827 147.868L310.141 149.489Z" fill="black"/>
<path d="M311.144 144.279L313.118 144.93C313.118 144.93 314.02 148.405 314.02 150.261C314.02 152.117 315.277 152.3 315.277 152.3C315.277 152.3 316.654 153.928 315.928 155.117C315.202 156.305 314.909 159.249 314.909 159.249C314.909 159.249 315.15 164.88 314.072 165.658C312.994 166.437 312.769 168.296 312.769 168.296C312.769 168.296 310.793 171.829 310.854 172.67C310.916 173.51 308.096 179.199 308.096 179.199C308.096 179.199 309.474 172.129 301.446 169.074C301.446 169.074 301.388 166.678 301.987 166.02C302.586 165.362 303.521 165.043 302.934 161.734C302.348 158.425 302.765 154.436 302.765 153.638C302.765 152.84 304.563 147.868 304.563 147.868L311.144 144.279Z" fill="white"/>
<path opacity="0.1" d="M267.545 262.45C267.545 262.45 270.691 260.474 272.756 261.91C274.82 263.346 267.545 262.45 267.545 262.45Z" fill="black"/>
<path opacity="0.1" d="M291.995 256.338C291.995 256.338 294.78 255.98 297.118 258.497C299.456 261.014 291.995 256.338 291.995 256.338Z" fill="black"/>
<g opacity="0.1">
<path d="M296.063 98.8461C295.662 99.1946 295.148 99.4388 294.881 99.898C294.653 100.292 294.646 100.781 294.464 101.201C294.281 101.621 293.751 101.969 293.379 101.702C293.295 98.7712 291.852 96.0194 290.077 93.6747C289.581 92.968 288.978 92.3429 288.289 91.8217C287.593 91.2965 286.725 91.0503 285.857 91.1313C284.88 91.2648 284.02 91.9291 283.033 92.0138C281.731 92.1213 280.561 91.2192 279.269 91.1769C278.743 91.1808 278.225 91.2974 277.749 91.5188C277.272 91.7401 276.849 92.0611 276.507 92.46C275.827 93.2618 275.322 94.1969 275.025 95.2053C274.513 96.7354 274.235 98.3338 274.198 99.9468C274.178 100.855 274.094 101.989 273.254 102.327C273.273 102.569 273.273 102.812 273.254 103.054C274.104 102.728 274.188 101.578 274.208 100.667C274.244 99.0535 274.523 97.4551 275.035 95.925C275.332 94.9166 275.837 93.9815 276.517 93.1797C276.859 92.7808 277.282 92.4597 277.758 92.2379C278.235 92.016 278.753 91.8985 279.278 91.8933C280.581 91.9389 281.753 92.841 283.043 92.7303C284.02 92.6488 284.886 91.9845 285.866 91.851C286.735 91.769 287.602 92.0141 288.299 92.5381C288.988 93.0605 289.591 93.6868 290.087 94.3944C291.862 96.7391 293.304 99.4812 293.389 102.422C293.76 102.689 294.291 102.337 294.474 101.92C294.656 101.503 294.662 101.015 294.89 100.618C295.157 100.159 295.672 99.911 296.073 99.5658C297.089 98.6898 297.343 97.2146 297.304 95.8761C297.304 95.8338 297.304 95.7947 297.304 95.7524C297.238 96.9182 296.929 98.1004 296.063 98.8461Z" fill="black"/>
<path d="M272.02 98.6182C271.274 97.7943 270.251 97.2407 269.564 96.3679C268.984 95.5975 268.653 94.6679 268.616 93.704C268.514 94.9092 268.851 96.1108 269.564 97.0876C270.251 97.9604 271.274 98.5107 272.02 99.3346C272.74 100.14 273.173 101.162 273.251 102.24C273.3 101.584 273.216 100.926 273.004 100.303C272.793 99.6811 272.458 99.108 272.02 98.6182Z" fill="black"/>
<path d="M297.936 88.7833C297.743 89.5812 297.401 90.34 297.245 91.1443C297.151 91.6883 297.117 92.2408 297.144 92.7922C297.155 92.4807 297.189 92.1705 297.245 91.864C297.401 91.0597 297.743 90.3009 297.936 89.503C298.046 89.0627 298.082 88.607 298.043 88.1548C298.022 88.3666 297.986 88.5766 297.936 88.7833Z" fill="black"/>
</g>
<path opacity="0.1" d="M44.0651 273.187C61.5902 273.187 75.7972 270.906 75.7972 268.091C75.7972 265.276 61.5902 262.994 44.0651 262.994C26.5399 262.994 12.3329 265.276 12.3329 268.091C12.3329 270.906 26.5399 273.187 44.0651 273.187Z" fill="#6C63FF"/>
<path d="M43.0458 170.455H45.0876V216.428H43.0458V170.455Z" fill="#535461"/>
<path d="M57.9219 216.292L57.7916 218.363L57.6125 221.294L57.5376 222.512L57.3552 225.443L57.2771 226.661L57.0979 229.592L55.0365 262.831C54.9486 264.262 54.3185 265.604 53.2746 266.586C52.2308 267.568 50.8518 268.114 49.4189 268.114H38.7145C37.2777 268.114 35.8952 267.565 34.8505 266.579C33.8059 265.592 33.1784 264.243 33.0969 262.809L31.0355 229.569L30.8564 226.638L30.7815 225.42L30.5959 222.489L30.5209 221.271L30.3418 218.34L30.2116 216.269C30.189 215.872 30.2475 215.474 30.3835 215.101C30.5194 214.727 30.7299 214.385 31.0023 214.095C31.2747 213.805 31.6031 213.574 31.9677 213.415C32.3323 213.257 32.7253 213.174 33.123 213.172H55.0137C55.4131 213.174 55.8078 213.258 56.1737 213.418C56.5395 213.579 56.8686 213.812 57.141 214.104C57.4133 214.396 57.623 214.741 57.7573 215.117C57.8916 215.493 57.9476 215.893 57.9219 216.292Z" fill="#3F3D56"/>
<path d="M57.7916 218.36L57.6092 221.284H30.5209L30.3386 218.36H57.7916Z" fill="#9D9CB5"/>
<path d="M57.5344 222.502L57.3553 225.426H30.7783L30.5959 222.502H57.5344Z" fill="#9D9CB5"/>
<path d="M57.2771 226.648L57.098 229.569H31.0355L30.8531 226.648H57.2771Z" fill="#9D9CB5"/>
<path d="M27.2351 187.689C39.1281 196.293 44.0814 209.749 44.0814 209.749C44.0814 209.749 29.7524 209.257 17.8561 200.654C5.95978 192.05 1 178.603 1 178.603C1 178.603 15.329 179.085 27.2351 187.689Z" fill="#6C63FF"/>
<path d="M1 178.603C1 178.603 15.8728 186.859 20.6437 193.694C25.4146 200.53 44.0683 209.756 44.0683 209.756" stroke="#535461" stroke-width="0.651317" stroke-miterlimit="10"/>
<path d="M34.8977 170.358C41.3718 175.037 44.0683 182.361 44.0683 182.361C44.0683 182.361 36.2525 182.094 29.7947 177.415C23.3369 172.735 20.6241 165.407 20.6241 165.407C20.6241 165.407 28.4269 165.675 34.8977 170.358Z" fill="#6C63FF"/>
<path d="M20.6241 165.407C20.6241 165.407 28.72 169.902 31.3188 173.621C33.9175 177.34 44.0683 182.361 44.0683 182.361" stroke="#535461" stroke-width="0.651317" stroke-miterlimit="10"/>
<path d="M53.4733 181.99C46.0385 190.161 44.4656 200.839 44.4656 200.839C44.4656 200.839 54.9485 198.266 62.3768 190.092C69.8051 181.918 71.3845 171.243 71.3845 171.243C71.3845 171.243 60.9081 173.819 53.4733 181.99Z" fill="#6C63FF"/>
<path d="M71.391 171.247C71.391 171.247 61.7059 179.623 59.244 185.393C56.782 191.164 44.4656 200.839 44.4656 200.839" stroke="#535461" stroke-width="0.651317" stroke-miterlimit="10"/>
<defs>
<linearGradient id="paint0_linear_3_2" x1="152.444" y1="272.106" x2="152.444" y2="83.9896" gradientUnits="userSpaceOnUse">
<stop stop-color="#808080" stop-opacity="0.25"/>
<stop offset="0.54" stop-color="#808080" stop-opacity="0.12"/>
<stop offset="1" stop-color="#808080" stop-opacity="0.1"/>
</linearGradient>
<linearGradient id="paint1_linear_3_2" x1="281.685" y1="280.342" x2="281.685" y2="79.9514" gradientUnits="userSpaceOnUse">
<stop stop-color="#808080" stop-opacity="0.25"/>
<stop offset="0.54" stop-color="#808080" stop-opacity="0.12"/>
<stop offset="1" stop-color="#808080" stop-opacity="0.1"/>
</linearGradient>
</defs>
</svg>
