<svg id="svg" version="1.1" xmlns="http://www.w3.org/2000/svg" xmlns:xlink="http://www.w3.org/1999/xlink" width="400" height="400" viewBox="0, 0, 400,400"><g id="svgg"><path id="path0" d="M103.600 22.000 C 103.600 22.220,102.801 22.400,101.824 22.400 C 100.847 22.400,99.936 22.580,99.800 22.800 C 99.664 23.020,99.124 23.200,98.600 23.200 C 98.076 23.200,97.536 23.380,97.400 23.600 C 97.264 23.820,96.803 24.000,96.376 24.000 C 95.949 24.000,95.600 24.180,95.600 24.400 C 95.600 24.620,95.324 24.800,94.986 24.800 C 94.304 24.800,92.526 25.847,91.600 26.792 C 90.886 27.522,89.581 28.162,87.400 28.855 C 86.520 29.135,85.629 29.507,85.420 29.682 C 85.211 29.857,84.626 30.000,84.120 30.000 C 83.614 30.000,83.200 30.180,83.200 30.400 C 83.200 30.620,82.865 30.800,82.456 30.800 C 81.380 30.800,76.809 33.213,75.446 34.500 C 74.805 35.105,74.120 35.600,73.922 35.600 C 73.368 35.600,71.600 37.498,71.600 38.094 C 71.600 38.385,71.240 38.883,70.800 39.200 C 70.360 39.517,70.000 40.097,70.000 40.488 C 70.000 40.880,69.820 41.200,69.600 41.200 C 69.380 41.200,69.200 41.560,69.200 42.000 C 69.200 42.440,69.020 42.800,68.800 42.800 C 68.580 42.800,68.400 43.239,68.400 43.776 C 68.400 44.313,68.220 44.864,68.000 45.000 C 67.780 45.136,67.600 46.047,67.600 47.024 C 67.600 48.001,67.420 48.800,67.200 48.800 C 66.944 48.800,66.800 52.525,66.800 59.176 C 66.800 65.663,66.950 69.645,67.200 69.800 C 67.420 69.936,67.600 70.836,67.600 71.800 C 67.600 72.764,67.780 73.664,68.000 73.800 C 68.220 73.936,68.400 74.667,68.400 75.424 C 68.400 76.181,68.580 76.800,68.800 76.800 C 69.020 76.800,69.200 77.340,69.200 78.000 C 69.200 78.660,69.380 79.200,69.600 79.200 C 69.820 79.200,70.000 79.740,70.000 80.400 C 70.000 81.060,70.180 81.600,70.400 81.600 C 70.620 81.600,70.800 81.960,70.800 82.400 C 70.800 82.840,70.980 83.200,71.200 83.200 C 71.420 83.200,71.600 83.560,71.600 84.000 C 71.600 84.440,71.780 84.800,72.000 84.800 C 72.220 84.800,72.400 85.160,72.400 85.600 C 72.400 86.040,72.580 86.400,72.800 86.400 C 73.020 86.400,73.200 86.741,73.200 87.157 C 73.200 88.796,74.491 88.482,76.312 86.400 C 78.329 84.095,80.537 82.814,82.710 82.687 L 84.200 82.600 84.400 85.400 C 84.631 88.628,85.291 88.941,87.300 86.774 L 88.400 85.587 88.400 78.893 L 88.400 72.199 90.285 70.799 C 92.984 68.797,94.358 66.375,94.665 63.081 C 94.942 60.115,94.991 60.081,97.686 60.957 C 100.025 61.717,107.407 63.492,111.800 64.350 C 117.878 65.538,120.751 65.789,128.000 65.764 C 133.872 65.744,136.443 65.574,138.400 65.076 C 140.842 64.454,141.031 64.455,141.512 65.100 C 142.883 66.936,143.968 73.071,143.988 79.100 C 143.995 81.191,144.167 82.800,144.384 82.800 C 145.090 82.800,146.400 81.061,146.400 80.125 C 146.400 79.616,146.580 79.200,146.800 79.200 C 147.053 79.200,147.200 76.253,147.200 71.160 L 147.200 63.121 148.449 61.954 C 149.136 61.312,150.171 60.499,150.749 60.147 C 152.043 59.359,155.200 54.725,155.200 53.613 C 155.200 53.166,155.380 52.800,155.600 52.800 C 155.820 52.800,156.013 52.125,156.028 51.300 C 156.044 50.475,156.199 49.440,156.373 49.000 C 156.941 47.564,156.451 47.200,153.952 47.200 C 151.768 47.200,150.499 46.810,149.393 45.800 C 148.742 45.205,148.365 44.000,148.831 44.000 C 149.463 44.000,151.200 42.107,151.200 41.418 C 151.200 41.078,151.380 40.800,151.600 40.800 C 151.820 40.800,152.000 40.170,152.000 39.400 C 152.000 38.630,152.180 38.000,152.400 38.000 C 152.622 38.000,152.800 36.933,152.800 35.600 L 152.800 33.200 150.800 33.200 C 149.700 33.200,148.800 33.020,148.800 32.800 C 148.800 32.580,147.900 32.400,146.800 32.400 C 145.700 32.400,144.800 32.220,144.800 32.000 C 144.800 31.780,144.260 31.600,143.600 31.600 C 142.940 31.600,142.400 31.420,142.400 31.200 C 142.400 30.980,142.038 30.800,141.595 30.800 C 141.152 30.800,140.432 30.620,139.995 30.400 C 139.558 30.180,138.842 29.820,138.405 29.600 C 137.968 29.380,137.338 29.200,137.005 29.200 C 136.672 29.200,136.400 29.020,136.400 28.800 C 136.400 28.580,136.040 28.400,135.600 28.400 C 135.160 28.400,134.800 28.220,134.800 28.000 C 134.800 27.780,134.564 27.600,134.275 27.600 C 133.986 27.600,133.005 27.240,132.094 26.800 C 131.184 26.360,130.271 26.000,130.065 26.000 C 129.860 26.000,129.176 25.731,128.546 25.402 C 127.916 25.074,126.905 24.804,126.300 24.802 C 125.695 24.801,125.200 24.620,125.200 24.400 C 125.200 24.180,124.851 24.000,124.424 24.000 C 123.997 24.000,123.536 23.820,123.400 23.600 C 123.264 23.380,122.623 23.200,121.976 23.200 C 121.329 23.200,120.800 23.020,120.800 22.800 C 120.800 22.580,119.900 22.400,118.800 22.400 C 117.700 22.400,116.800 22.220,116.800 22.000 C 116.800 21.749,114.333 21.600,110.200 21.600 C 106.067 21.600,103.600 21.749,103.600 22.000 M276.200 22.800 C 276.064 23.020,275.333 23.200,274.576 23.200 C 273.819 23.200,273.200 23.380,273.200 23.600 C 273.200 23.820,272.660 24.000,272.000 24.000 C 271.340 24.000,270.800 24.180,270.800 24.400 C 270.800 24.620,270.511 24.800,270.158 24.800 C 269.280 24.800,263.951 27.603,263.153 28.485 C 262.797 28.878,262.337 29.200,262.129 29.200 C 261.620 29.200,255.200 35.923,255.200 36.456 C 255.200 36.689,254.660 37.383,254.000 38.000 C 253.340 38.617,252.800 39.343,252.800 39.614 C 252.800 39.884,252.471 40.397,252.070 40.753 C 251.668 41.109,251.084 41.985,250.772 42.700 C 250.460 43.415,250.069 44.000,249.902 44.000 C 249.736 44.000,249.600 44.360,249.600 44.800 C 249.600 45.240,249.465 45.601,249.300 45.603 C 248.941 45.607,248.000 47.544,248.000 48.280 C 248.000 48.566,247.820 48.800,247.600 48.800 C 247.380 48.800,247.200 49.160,247.200 49.600 C 247.200 50.040,247.020 50.400,246.800 50.400 C 246.580 50.400,246.400 50.749,246.400 51.176 C 246.400 51.603,246.220 52.064,246.000 52.200 C 245.780 52.336,245.600 52.887,245.600 53.424 C 245.600 53.961,245.465 54.401,245.300 54.402 C 245.135 54.403,244.580 55.798,244.067 57.502 C 243.553 59.206,242.983 60.889,242.800 61.241 C 242.617 61.594,242.341 62.721,242.187 63.746 C 242.033 64.771,241.748 65.708,241.554 65.829 C 241.359 65.949,241.200 66.757,241.200 67.624 C 241.200 68.491,241.020 69.200,240.800 69.200 C 240.580 69.200,240.400 69.740,240.400 70.400 C 240.400 71.060,240.220 71.600,240.000 71.600 C 239.780 71.600,239.600 72.320,239.600 73.200 C 239.600 74.080,239.420 74.800,239.200 74.800 C 238.980 74.800,238.800 75.250,238.800 75.800 C 238.800 76.719,238.947 76.800,240.600 76.800 C 241.590 76.800,242.400 76.620,242.400 76.400 C 242.400 76.180,242.940 76.000,243.600 76.000 C 244.260 76.000,244.800 75.820,244.800 75.600 C 244.800 75.380,245.205 75.214,245.700 75.232 C 246.195 75.249,246.375 75.354,246.100 75.465 C 245.825 75.576,245.600 76.271,245.600 77.010 C 245.600 77.748,245.420 78.464,245.200 78.600 C 244.980 78.736,244.800 79.467,244.800 80.224 C 244.800 80.981,244.620 81.600,244.400 81.600 C 244.180 81.600,244.000 82.052,244.000 82.605 C 244.000 83.158,243.837 83.923,243.637 84.305 C 243.102 85.328,242.000 89.178,242.000 90.022 C 242.000 90.424,241.820 90.864,241.600 91.000 C 241.380 91.136,241.200 91.687,241.200 92.224 C 241.200 92.761,241.020 93.200,240.800 93.200 C 240.580 93.200,240.400 93.560,240.400 94.000 C 240.400 94.440,240.220 94.800,240.000 94.800 C 239.780 94.800,239.600 95.034,239.600 95.320 C 239.600 96.056,238.659 97.993,238.300 97.997 C 238.135 97.999,238.000 98.360,238.000 98.800 C 238.000 99.240,237.820 99.600,237.600 99.600 C 237.380 99.600,237.200 100.500,237.200 101.600 C 237.200 102.700,237.380 103.600,237.600 103.600 C 237.820 103.600,238.000 103.884,238.000 104.231 C 238.000 104.788,238.748 105.585,242.286 108.796 C 242.773 109.238,243.358 109.600,243.586 109.600 C 243.814 109.600,244.000 109.780,244.000 110.000 C 244.000 110.220,244.236 110.400,244.525 110.400 C 244.813 110.400,245.436 110.760,245.908 111.200 C 246.380 111.640,247.044 112.000,247.383 112.000 C 247.722 112.000,248.000 112.180,248.000 112.400 C 248.000 112.620,248.360 112.800,248.800 112.800 C 249.240 112.800,249.600 112.980,249.600 113.200 C 249.600 113.420,249.960 113.600,250.400 113.600 C 250.840 113.600,251.200 113.780,251.200 114.000 C 251.200 114.220,251.740 114.400,252.400 114.400 C 253.060 114.400,253.600 114.580,253.600 114.800 C 253.600 115.020,254.140 115.200,254.800 115.200 C 255.460 115.200,256.000 115.380,256.000 115.600 C 256.000 115.820,256.180 116.000,256.400 116.000 C 257.223 116.000,256.742 114.780,254.819 111.989 C 249.982 104.968,249.201 101.228,249.200 85.112 L 249.200 72.824 252.100 70.855 C 260.342 65.259,265.044 58.308,266.815 49.100 C 267.349 46.319,267.543 46.284,268.703 48.761 C 271.091 53.859,281.762 62.947,293.787 70.125 C 300.767 74.291,310.383 79.124,312.305 79.431 C 319.197 80.533,323.031 88.151,319.820 94.362 C 319.140 95.677,316.002 98.626,314.958 98.931 C 314.541 99.053,313.435 99.350,312.500 99.592 L 310.800 100.031 310.800 111.339 C 310.800 120.207,310.917 122.807,311.341 123.386 C 312.006 124.296,325.606 124.554,326.486 123.674 C 326.747 123.413,327.464 123.200,328.080 123.200 C 328.696 123.200,329.200 123.020,329.200 122.800 C 329.200 122.580,329.434 122.400,329.720 122.400 C 330.456 122.400,332.393 121.459,332.397 121.100 C 332.399 120.935,332.760 120.800,333.200 120.800 C 333.640 120.800,334.000 120.659,334.000 120.486 C 334.000 120.314,334.495 119.880,335.100 119.521 C 336.653 118.602,337.690 117.616,338.800 116.000 C 339.329 115.230,339.880 114.510,340.025 114.400 C 340.488 114.048,341.600 111.662,341.600 111.020 C 341.600 110.679,341.780 110.400,342.000 110.400 C 342.220 110.400,342.400 109.860,342.400 109.200 C 342.400 108.540,342.580 108.000,342.800 108.000 C 343.020 108.000,343.200 107.550,343.200 107.000 C 343.200 106.450,343.020 106.000,342.800 106.000 C 342.580 106.000,342.400 105.280,342.400 104.400 C 342.400 103.520,342.250 102.800,342.066 102.800 C 341.882 102.800,341.539 101.675,341.303 100.300 C 341.067 98.925,340.666 97.080,340.411 96.200 C 339.611 93.441,339.142 91.453,338.925 89.897 C 338.810 89.071,338.555 88.295,338.358 88.174 C 338.161 88.052,338.000 87.243,338.000 86.376 C 338.000 85.509,337.820 84.800,337.600 84.800 C 337.380 84.800,337.200 84.001,337.200 83.024 C 337.200 82.047,337.020 81.136,336.800 81.000 C 336.580 80.864,336.400 79.874,336.400 78.800 C 336.400 77.726,336.220 76.736,336.000 76.600 C 335.780 76.464,335.600 75.103,335.600 73.576 C 335.600 71.992,335.428 70.800,335.200 70.800 C 334.668 70.800,334.684 66.676,335.218 66.142 C 336.054 65.306,335.234 47.200,334.360 47.200 C 334.162 47.200,334.000 46.581,334.000 45.824 C 334.000 45.067,333.820 44.336,333.600 44.200 C 333.380 44.064,333.200 43.513,333.200 42.976 C 333.200 42.439,333.020 42.000,332.800 42.000 C 332.580 42.000,332.400 41.640,332.400 41.200 C 332.400 40.760,332.220 40.400,332.000 40.400 C 331.780 40.400,331.600 40.040,331.600 39.600 C 331.600 39.160,331.420 38.800,331.200 38.800 C 330.980 38.800,330.800 38.480,330.800 38.088 C 330.800 37.697,330.440 37.117,330.000 36.800 C 329.560 36.483,329.200 35.981,329.200 35.684 C 329.200 33.603,320.930 27.621,316.600 26.569 C 314.533 26.067,304.326 25.914,303.862 26.378 C 303.370 26.870,298.800 26.957,298.800 26.474 C 298.800 26.076,296.199 24.800,295.386 24.800 C 295.064 24.800,294.800 24.620,294.800 24.400 C 294.800 24.180,294.260 24.000,293.600 24.000 C 292.940 24.000,292.400 23.820,292.400 23.600 C 292.400 23.380,291.770 23.200,291.000 23.200 C 290.230 23.200,289.600 23.020,289.600 22.800 C 289.600 22.550,287.141 22.400,283.024 22.400 C 279.071 22.400,276.349 22.560,276.200 22.800 M259.484 79.107 C 257.641 81.143,257.826 84.944,259.832 86.258 C 262.654 88.107,265.222 83.138,263.087 79.959 C 262.012 78.359,260.487 77.999,259.484 79.107 M279.629 79.454 C 278.391 81.028,278.471 84.328,279.781 85.742 C 281.226 87.301,282.682 86.963,283.796 84.808 C 285.779 80.973,282.126 76.279,279.629 79.454 M110.829 82.254 C 109.008 84.569,110.225 90.000,112.565 90.000 C 114.200 90.000,115.976 86.665,115.384 84.706 C 114.273 81.022,112.534 80.086,110.829 82.254 M130.559 82.206 C 128.557 85.263,130.232 90.530,132.988 89.839 C 136.242 89.022,135.723 81.200,132.415 81.200 C 131.578 81.200,131.020 81.502,130.559 82.206 M359.801 313.900 C 357.263 318.774,350.534 323.850,341.994 327.331 C 341.007 327.733,339.795 328.228,339.300 328.431 C 337.358 329.227,336.547 329.538,335.200 330.000 C 334.430 330.264,333.440 330.621,333.000 330.793 C 332.560 330.964,330.850 331.506,329.200 331.996 C 327.550 332.486,325.787 333.048,325.281 333.244 C 324.776 333.440,323.931 333.600,323.405 333.600 C 322.878 333.600,322.348 333.760,322.227 333.956 C 322.106 334.151,321.421 334.412,320.704 334.534 C 319.362 334.762,317.151 335.239,314.000 335.979 C 307.482 337.511,296.375 339.382,286.600 340.596 C 275.267 342.004,267.754 341.627,257.200 339.121 C 249.141 337.207,240.249 333.362,234.099 329.130 C 233.161 328.485,232.215 328.067,231.997 328.202 C 231.741 328.360,231.600 337.345,231.600 353.424 L 231.600 378.400 296.400 378.400 L 361.200 378.400 361.200 345.400 C 361.200 327.250,361.061 312.400,360.891 312.400 C 360.721 312.400,360.231 313.075,359.801 313.900 M117.467 315.467 C 117.320 315.613,117.200 319.650,117.200 324.438 C 117.200 335.621,116.775 339.004,114.690 344.400 C 111.564 352.494,103.721 360.001,95.800 362.482 C 91.205 363.921,89.672 364.000,66.200 364.005 C 53.440 364.008,42.595 364.119,42.100 364.252 C 41.216 364.489,41.200 364.604,41.200 370.647 L 41.200 376.800 99.400 376.800 L 157.600 376.800 157.600 370.649 C 157.600 363.710,157.709 363.965,154.400 363.189 C 146.459 361.329,138.953 355.837,134.804 348.853 C 131.082 342.589,130.400 339.002,130.400 325.700 L 130.400 315.200 124.067 315.200 C 120.583 315.200,117.613 315.320,117.467 315.467 " stroke="none" fill="#2f2f7e" fill-rule="evenodd"></path><path id="path1" d="M273.583 55.300 C 274.564 56.345,275.419 57.200,275.483 57.200 C 275.784 57.200,275.466 56.841,273.700 55.183 L 271.800 53.400 273.583 55.300 M143.693 75.600 C 143.693 76.370,143.775 76.685,143.876 76.300 C 143.976 75.915,143.976 75.285,143.876 74.900 C 143.775 74.515,143.693 74.830,143.693 75.600 M79.973 129.700 C 78.749 130.855,77.366 132.520,76.900 133.400 C 74.798 137.365,74.737 137.657,74.927 142.860 L 75.106 147.800 78.173 156.400 C 79.860 161.130,81.521 165.720,81.863 166.600 C 82.206 167.480,82.812 169.190,83.211 170.400 C 83.611 171.610,84.505 174.130,85.200 176.000 C 86.649 179.900,88.000 183.961,88.000 184.414 C 88.000 184.584,87.041 185.265,85.869 185.926 C 78.880 189.871,75.724 198.120,78.034 206.408 C 78.861 209.376,80.574 215.825,81.186 218.276 C 81.711 220.376,83.184 222.376,84.824 223.212 C 87.418 224.536,90.800 224.086,90.800 222.419 C 90.800 220.821,90.356 220.400,88.657 220.391 C 85.646 220.375,85.412 219.961,82.808 210.000 C 82.319 208.130,81.719 206.065,81.474 205.410 C 77.954 196.009,87.746 185.119,97.841 187.207 C 104.251 188.532,107.770 191.855,109.747 198.445 C 113.631 211.397,113.869 214.800,110.888 214.800 C 110.234 214.800,109.557 216.222,109.848 216.982 C 110.898 219.716,115.610 217.414,116.750 213.610 C 117.220 212.042,117.211 211.997,114.342 201.200 C 113.903 199.550,113.394 197.607,113.210 196.882 C 111.204 188.972,104.031 183.557,95.412 183.446 L 91.825 183.400 91.073 181.400 C 89.884 178.235,87.217 170.810,86.405 168.400 C 85.997 167.190,85.095 164.670,84.400 162.800 C 83.705 160.930,82.804 158.410,82.398 157.200 C 81.991 155.990,80.997 153.200,80.188 151.000 C 78.442 146.252,78.039 141.547,79.300 140.624 C 79.685 140.342,80.000 139.817,80.000 139.456 C 80.000 139.095,80.180 138.800,80.400 138.800 C 80.620 138.800,80.800 138.440,80.800 138.000 C 80.800 137.560,80.958 137.200,81.151 137.200 C 81.345 137.200,81.727 136.660,82.000 136.000 C 82.273 135.340,82.610 134.799,82.749 134.799 C 83.422 134.794,84.473 131.114,84.206 129.693 C 83.695 126.968,82.868 126.969,79.973 129.700 M118.880 128.080 C 118.616 128.344,118.400 129.504,118.400 130.659 L 118.400 132.757 123.000 137.391 C 127.670 142.096,128.062 142.696,129.797 147.800 C 130.321 149.340,131.315 152.130,132.006 154.000 C 132.697 155.870,133.595 158.390,134.000 159.600 C 134.405 160.810,135.305 163.330,136.000 165.200 C 136.695 167.070,137.597 169.590,138.005 170.800 C 138.412 172.010,139.125 174.048,139.587 175.330 L 140.428 177.659 138.449 179.530 C 130.666 186.888,140.745 201.176,151.404 197.894 C 162.802 194.385,159.285 179.215,146.586 177.110 C 145.122 176.868,143.861 176.474,143.784 176.235 C 143.707 175.996,142.714 173.190,141.577 170.000 C 140.440 166.810,138.823 162.220,137.982 159.800 C 137.141 157.380,135.890 153.870,135.201 152.000 C 134.513 150.130,133.493 147.250,132.935 145.600 C 132.377 143.950,131.737 142.376,131.513 142.102 C 131.289 141.828,131.205 141.225,131.326 140.762 C 131.561 139.862,130.894 138.000,130.336 138.000 C 130.151 138.000,130.000 137.728,130.000 137.396 C 130.000 137.064,129.460 136.228,128.800 135.537 C 128.140 134.846,127.600 134.110,127.600 133.901 C 127.600 133.404,125.415 131.372,123.951 130.507 C 123.318 130.133,122.800 129.686,122.800 129.514 C 122.800 129.341,122.603 129.200,122.363 129.200 C 122.123 129.200,121.469 128.840,120.909 128.400 C 119.723 127.467,119.524 127.436,118.880 128.080 M257.600 139.200 C 257.600 139.433,256.267 139.600,254.400 139.600 C 252.533 139.600,251.200 139.767,251.200 140.000 C 251.200 140.220,250.300 140.400,249.200 140.400 C 248.100 140.400,247.200 140.580,247.200 140.800 C 247.200 141.020,246.660 141.200,246.000 141.200 C 245.340 141.200,244.800 141.380,244.800 141.600 C 244.800 141.820,244.402 142.000,243.915 142.000 C 242.716 142.000,236.921 144.952,235.246 146.416 C 234.501 147.067,233.774 147.600,233.631 147.600 C 233.175 147.600,229.405 151.343,228.394 152.800 C 227.859 153.570,227.102 154.549,226.711 154.975 C 226.320 155.402,226.000 155.974,226.000 156.247 C 226.000 156.520,225.764 156.981,225.475 157.271 C 225.187 157.562,224.693 158.385,224.378 159.100 C 224.063 159.815,223.669 160.400,223.502 160.400 C 223.336 160.400,223.200 160.850,223.200 161.400 C 223.200 161.950,223.020 162.400,222.800 162.400 C 222.580 162.400,222.400 162.850,222.400 163.400 C 222.400 163.950,222.220 164.400,222.000 164.400 C 221.780 164.400,221.600 165.030,221.600 165.800 C 221.600 166.570,221.420 167.200,221.200 167.200 C 220.980 167.200,220.800 168.089,220.800 169.176 C 220.800 170.263,220.620 171.264,220.400 171.400 C 220.154 171.552,220.000 174.863,220.000 180.000 C 220.000 185.137,219.846 188.448,219.600 188.600 C 219.350 188.755,219.200 192.817,219.200 199.462 C 219.200 210.500,218.973 211.945,217.114 212.733 C 216.942 212.807,216.800 213.212,216.800 213.633 C 216.800 214.055,216.620 214.400,216.400 214.400 C 216.180 214.400,216.000 214.636,216.000 214.925 C 216.000 215.213,215.640 215.836,215.200 216.308 C 214.760 216.780,214.400 217.444,214.400 217.783 C 214.400 218.122,214.265 218.403,214.100 218.406 C 213.935 218.410,213.360 219.310,212.821 220.406 C 212.283 221.503,211.698 222.400,211.521 222.400 C 211.345 222.400,211.200 222.760,211.200 223.200 C 211.200 223.640,211.065 224.001,210.900 224.001 C 210.735 224.002,210.060 225.037,209.400 226.301 C 208.740 227.566,208.065 228.660,207.900 228.733 C 207.735 228.807,207.600 229.122,207.600 229.433 C 207.600 229.745,207.420 230.000,207.200 230.000 C 206.980 230.000,206.800 230.360,206.800 230.800 C 206.800 231.240,206.620 231.600,206.400 231.600 C 206.180 231.600,206.000 231.870,206.000 232.200 C 206.000 232.530,205.820 232.800,205.600 232.800 C 205.380 232.800,205.200 233.070,205.200 233.400 C 205.200 233.730,205.020 234.000,204.800 234.000 C 204.580 234.000,204.400 234.360,204.400 234.800 C 204.400 235.240,204.220 235.600,204.000 235.600 C 203.780 235.600,203.600 235.836,203.600 236.125 C 203.600 236.413,203.240 237.036,202.800 237.508 C 202.360 237.980,202.000 238.644,202.000 238.983 C 202.000 239.322,201.820 239.600,201.600 239.600 C 201.380 239.600,201.200 239.920,201.200 240.312 C 201.200 240.703,200.840 241.283,200.400 241.600 C 199.960 241.917,199.600 242.497,199.600 242.888 C 199.600 243.280,199.420 243.600,199.200 243.600 C 198.980 243.600,198.800 243.793,198.800 244.028 C 198.800 244.263,198.260 245.241,197.600 246.200 C 196.940 247.159,196.400 248.137,196.400 248.372 C 196.400 248.607,196.265 248.803,196.100 248.806 C 195.935 248.810,195.360 249.710,194.821 250.806 C 194.283 251.903,193.698 252.800,193.521 252.800 C 193.345 252.800,193.200 253.083,193.200 253.429 C 193.200 253.774,192.930 254.327,192.600 254.657 C 192.270 254.987,192.000 255.604,192.000 256.029 C 192.000 256.453,191.820 256.800,191.600 256.800 C 191.380 256.800,191.200 257.120,191.200 257.512 C 191.200 257.903,190.840 258.483,190.400 258.800 C 189.960 259.117,189.600 259.607,189.600 259.888 C 189.600 260.170,189.420 260.400,189.200 260.400 C 188.980 260.400,188.800 260.745,188.800 261.167 C 188.800 261.588,188.665 261.993,188.500 262.067 C 188.124 262.234,186.825 264.364,186.529 265.300 C 186.407 265.685,186.148 266.000,185.953 266.000 C 185.759 266.000,185.600 266.320,185.600 266.712 C 185.600 267.103,185.240 267.683,184.800 268.000 C 184.360 268.317,184.000 268.882,184.000 269.255 C 184.000 269.628,183.865 269.993,183.700 270.067 C 183.324 270.234,182.025 272.364,181.729 273.300 C 181.607 273.685,181.348 274.000,181.153 274.000 C 180.959 274.000,180.800 274.360,180.800 274.800 C 180.800 275.240,180.639 275.600,180.443 275.600 C 178.965 275.600,180.074 277.437,184.549 282.400 C 185.243 283.170,188.132 286.410,190.969 289.600 C 193.806 292.790,197.364 296.777,198.875 298.461 C 200.387 300.144,201.991 301.989,202.441 302.561 C 203.589 304.020,204.187 303.878,206.476 301.600 C 208.448 299.639,209.600 299.091,209.600 300.115 C 209.600 300.399,209.960 301.337,210.400 302.200 C 210.840 303.063,211.200 303.924,211.200 304.113 C 211.200 304.301,211.740 305.241,212.400 306.200 C 213.060 307.159,213.600 308.137,213.600 308.372 C 213.600 308.607,213.780 308.800,214.000 308.800 C 214.220 308.800,214.400 309.078,214.400 309.418 C 214.400 309.758,214.850 310.486,215.400 311.036 C 215.950 311.586,216.400 312.200,216.400 312.400 C 216.400 312.600,216.850 313.214,217.400 313.764 C 217.950 314.314,218.400 314.945,218.400 315.167 C 218.400 315.969,229.643 326.772,230.500 326.793 C 230.665 326.797,230.800 327.181,230.800 327.647 C 230.800 328.316,230.980 328.446,231.660 328.268 C 232.223 328.121,233.085 328.433,234.162 329.174 C 240.246 333.360,249.177 337.216,257.200 339.121 C 267.754 341.627,275.267 342.004,286.600 340.596 C 296.375 339.382,307.482 337.511,314.000 335.979 C 317.151 335.239,319.362 334.762,320.704 334.534 C 321.421 334.412,322.106 334.151,322.227 333.956 C 322.348 333.760,322.878 333.600,323.405 333.600 C 323.931 333.600,324.776 333.440,325.281 333.244 C 325.787 333.048,327.550 332.486,329.200 331.996 C 330.850 331.506,332.560 330.964,333.000 330.793 C 333.440 330.621,334.430 330.264,335.200 330.000 C 335.970 329.736,337.050 329.333,337.600 329.106 C 338.150 328.879,338.960 328.551,339.400 328.378 C 350.228 324.109,356.981 319.317,359.801 313.900 C 360.231 313.075,360.721 312.400,360.891 312.400 C 361.061 312.400,361.200 301.870,361.200 289.000 C 361.200 276.130,361.352 265.600,361.538 265.600 C 361.724 265.600,362.399 265.150,363.038 264.600 C 363.677 264.051,364.332 263.601,364.494 263.600 C 364.931 263.600,368.400 259.948,368.400 259.489 C 368.400 259.272,368.741 258.798,369.157 258.437 C 370.065 257.650,372.036 254.347,372.760 252.400 C 373.046 251.630,373.428 250.640,373.608 250.200 C 374.569 247.854,375.038 235.953,374.364 231.020 C 374.185 229.712,374.009 226.395,373.974 223.650 C 373.939 220.906,373.757 218.197,373.570 217.630 C 373.384 217.064,373.132 213.990,373.012 210.800 C 372.891 207.610,372.619 202.300,372.407 199.000 C 372.195 195.700,371.830 190.030,371.598 186.400 C 371.365 182.770,371.081 177.100,370.966 173.800 C 370.852 170.500,370.588 167.629,370.379 167.420 C 370.171 167.211,370.000 165.737,370.000 164.144 C 370.000 162.551,369.820 161.136,369.600 161.000 C 369.380 160.864,369.200 160.223,369.200 159.576 C 369.200 158.929,369.020 158.400,368.800 158.400 C 368.580 158.400,368.400 157.860,368.400 157.200 C 368.400 156.540,368.220 156.000,368.000 156.000 C 367.780 156.000,367.600 155.640,367.600 155.200 C 367.600 154.760,367.420 154.400,367.200 154.400 C 366.980 154.400,366.800 154.040,366.800 153.600 C 366.800 153.160,366.650 152.800,366.468 152.800 C 366.285 152.800,365.881 152.305,365.570 151.700 C 364.130 148.895,356.123 142.000,354.305 142.000 C 353.917 142.000,353.600 141.820,353.600 141.600 C 353.600 141.380,353.060 141.200,352.400 141.200 C 351.740 141.200,351.200 141.020,351.200 140.800 C 351.200 140.580,350.480 140.400,349.600 140.400 C 348.720 140.400,348.000 140.220,348.000 140.000 C 348.000 139.763,346.533 139.600,344.400 139.600 C 342.267 139.600,340.800 139.437,340.800 139.200 C 340.800 138.397,311.804 138.684,310.504 139.500 C 309.890 139.885,305.998 142.630,301.854 145.600 C 283.991 158.404,281.786 159.930,281.521 159.672 C 281.367 159.522,280.962 158.365,280.621 157.100 C 280.279 155.835,279.743 153.855,279.430 152.700 C 279.116 151.545,278.477 149.160,278.008 147.400 C 276.696 142.469,276.102 140.537,275.617 139.631 C 275.120 138.703,257.600 138.284,257.600 139.200 M282.382 267.627 C 285.122 268.081,287.622 268.596,287.938 268.773 C 288.693 269.196,304.111 299.533,303.879 300.138 C 303.781 300.394,303.003 300.853,302.150 301.158 C 301.298 301.464,299.700 302.120,298.600 302.617 C 297.500 303.114,292.730 305.194,288.000 307.240 L 279.400 310.960 275.400 310.979 C 266.911 311.020,261.453 305.563,261.417 297.000 C 261.386 289.617,263.473 287.074,275.501 279.844 C 279.740 277.296,279.757 277.220,276.379 276.027 C 272.097 274.515,270.639 271.649,272.617 268.630 C 273.968 266.568,275.209 266.441,282.382 267.627 M130.510 326.200 C 130.493 332.140,130.597 337.418,130.740 337.928 C 130.986 338.807,130.916 320.395,130.660 317.000 C 130.594 316.120,130.526 320.260,130.510 326.200 M116.889 325.439 C 116.840 328.100,116.717 331.970,116.615 334.039 C 116.445 337.512,116.460 337.616,116.819 335.400 C 117.033 334.080,117.156 330.210,117.093 326.800 C 116.983 320.869,116.974 320.810,116.889 325.439 M115.800 339.600 C 115.648 340.291,115.614 340.947,115.724 341.057 C 115.834 341.167,116.048 340.691,116.200 340.000 C 116.352 339.309,116.386 338.653,116.276 338.543 C 116.166 338.433,115.952 338.909,115.800 339.600 M131.234 340.200 C 131.222 340.640,131.387 341.270,131.600 341.600 C 132.114 342.395,132.114 341.396,131.600 340.200 L 131.256 339.400 131.234 340.200 M115.000 342.400 C 114.850 342.873,114.817 343.350,114.927 343.460 C 115.037 343.570,115.250 343.273,115.400 342.800 C 115.550 342.327,115.583 341.850,115.473 341.740 C 115.363 341.630,115.150 341.927,115.000 342.400 M132.012 342.800 C 132.012 343.130,132.187 343.670,132.400 344.000 C 132.745 344.533,132.788 344.533,132.788 344.000 C 132.788 343.670,132.613 343.130,132.400 342.800 C 132.055 342.267,132.012 342.267,132.012 342.800 M132.800 345.108 C 132.800 348.426,141.973 358.016,147.800 360.791 C 148.460 361.105,149.135 361.426,149.300 361.505 C 149.465 361.583,149.600 361.555,149.600 361.442 C 149.600 361.330,148.925 360.925,148.100 360.544 C 142.354 357.887,136.513 352.046,133.856 346.300 C 133.198 344.877,132.800 344.428,132.800 345.108 M111.403 349.900 C 107.511 355.830,101.463 360.189,93.986 362.454 C 91.090 363.331,90.341 363.365,69.200 363.593 L 47.400 363.829 68.400 363.914 C 91.977 364.011,93.109 363.909,99.000 361.179 C 103.719 358.993,110.077 353.308,112.326 349.264 C 113.653 346.878,113.167 347.213,111.403 349.900 M151.038 362.133 C 152.462 362.796,155.131 363.431,154.732 363.012 C 154.584 362.857,153.864 362.578,153.132 362.392 C 149.746 361.533,149.751 361.533,151.038 362.133 " stroke="none" fill="#75a8fb" fill-rule="evenodd"></path><path id="path2" d="M260.139 101.414 C 259.554 102.939,261.306 107.093,263.480 109.333 C 270.517 116.584,283.600 111.591,283.600 101.654 C 283.600 100.513,260.575 100.278,260.139 101.414 M110.800 104.804 C 110.800 117.732,131.762 118.218,133.093 105.322 L 133.312 103.200 122.056 103.200 L 110.800 103.200 110.800 104.804 M54.400 140.793 C 54.400 141.017,53.871 141.200,53.224 141.200 C 52.577 141.200,51.936 141.380,51.800 141.600 C 51.664 141.820,51.210 142.000,50.790 142.000 C 49.842 142.000,47.200 143.232,47.200 143.674 C 47.200 143.853,46.948 144.000,46.641 144.000 C 46.130 144.000,44.351 145.667,40.900 149.379 C 40.185 150.148,39.600 151.052,39.600 151.389 C 39.600 151.725,39.420 152.000,39.200 152.000 C 38.980 152.000,38.800 152.360,38.800 152.800 C 38.800 153.240,38.620 153.600,38.400 153.600 C 38.180 153.600,38.000 153.888,38.000 154.240 C 38.000 154.591,37.460 155.383,36.800 156.000 C 36.140 156.617,35.600 157.343,35.600 157.614 C 35.600 157.884,35.271 158.397,34.870 158.753 C 34.468 159.109,33.884 159.985,33.572 160.700 C 33.260 161.415,32.869 162.000,32.702 162.000 C 32.536 162.000,32.400 162.360,32.400 162.800 C 32.400 163.240,32.220 163.600,32.000 163.600 C 31.780 163.600,31.600 163.949,31.600 164.376 C 31.600 164.803,31.420 165.264,31.200 165.400 C 30.980 165.536,30.800 166.087,30.800 166.624 C 30.800 167.161,30.620 167.600,30.400 167.600 C 30.180 167.600,30.000 168.219,30.000 168.976 C 30.000 169.733,29.820 170.464,29.600 170.600 C 29.380 170.736,29.200 171.546,29.200 172.400 C 29.200 173.254,29.020 174.064,28.800 174.200 C 28.536 174.363,28.400 198.936,28.400 246.620 L 28.400 318.793 48.885 318.896 L 69.369 319.000 69.886 320.000 C 70.170 320.550,70.831 321.990,71.356 323.200 C 71.881 324.410,72.681 326.225,73.134 327.232 C 76.353 334.390,76.272 336.960,72.769 338.894 C 69.457 340.721,66.543 339.316,63.753 334.545 C 61.623 330.903,61.570 331.067,61.688 340.900 C 61.844 353.927,59.269 358.935,50.520 362.615 L 48.200 363.591 69.600 363.476 C 90.517 363.363,91.067 363.340,93.986 362.455 C 105.696 358.904,113.589 350.251,115.928 338.400 C 116.378 336.118,117.694 295.636,118.404 262.200 C 118.629 251.640,118.995 236.250,119.218 228.000 C 119.883 203.365,119.828 190.756,119.038 187.035 C 116.452 174.850,110.616 165.466,100.200 156.741 C 99.320 156.004,98.510 155.311,98.400 155.201 C 98.290 155.090,97.030 154.010,95.600 152.800 C 94.170 151.590,92.550 150.213,92.000 149.740 C 91.450 149.266,88.975 147.141,86.500 145.017 C 84.025 142.892,82.000 140.974,82.000 140.753 C 82.000 140.532,81.337 140.408,80.526 140.476 C 77.886 140.698,77.796 144.344,80.265 151.155 C 81.032 153.270,81.991 155.990,82.398 157.200 C 82.804 158.410,83.705 160.930,84.400 162.800 C 85.095 164.670,85.997 167.190,86.405 168.400 C 87.217 170.810,89.884 178.235,91.073 181.400 L 91.825 183.400 95.412 183.446 C 104.031 183.557,111.204 188.972,113.210 196.882 C 113.394 197.607,113.903 199.550,114.342 201.200 C 117.211 211.997,117.220 212.042,116.750 213.610 C 115.639 217.317,111.282 219.596,109.975 217.153 C 109.508 216.280,110.117 214.800,110.944 214.800 C 113.865 214.800,113.611 211.331,109.747 198.445 C 107.759 191.818,104.177 188.462,97.740 187.196 C 87.640 185.209,77.966 196.041,81.474 205.410 C 81.719 206.065,82.319 208.130,82.808 210.000 C 85.412 219.961,85.646 220.375,88.657 220.391 C 90.356 220.400,90.800 220.821,90.800 222.419 C 90.800 224.086,87.418 224.536,84.824 223.212 C 83.184 222.376,81.711 220.376,81.186 218.276 C 80.574 215.825,78.861 209.376,78.034 206.408 C 75.724 198.120,78.880 189.871,85.869 185.926 C 87.041 185.265,88.000 184.584,88.000 184.414 C 88.000 183.961,86.649 179.900,85.200 176.000 C 84.505 174.130,83.611 171.610,83.211 170.400 C 82.812 169.190,82.206 167.480,81.863 166.600 C 77.442 155.238,75.108 147.660,74.964 144.200 L 74.813 140.600 64.607 140.493 C 57.886 140.423,54.400 140.525,54.400 140.793 M120.800 140.652 C 120.800 140.791,122.952 145.246,125.581 150.552 C 132.913 165.347,133.381 167.406,132.004 178.800 C 131.321 184.456,130.515 331.277,131.140 336.307 C 132.319 345.804,137.791 354.546,145.200 358.770 C 149.218 361.061,151.265 361.902,155.100 362.838 C 156.305 363.133,157.200 363.575,157.200 363.876 C 157.200 364.264,158.027 364.400,160.400 364.400 L 163.600 364.400 163.600 261.400 C 163.600 193.000,163.466 158.400,163.200 158.400 C 162.980 158.400,162.800 157.680,162.800 156.800 C 162.800 155.920,162.620 155.200,162.400 155.200 C 162.180 155.200,162.000 154.840,162.000 154.400 C 162.000 153.960,161.820 153.600,161.600 153.600 C 161.380 153.600,161.200 153.240,161.200 152.800 C 161.200 152.360,161.020 152.000,160.800 152.000 C 160.580 152.000,160.400 151.706,160.400 151.347 C 160.400 150.988,160.076 150.403,159.681 150.047 C 159.286 149.691,158.529 148.770,158.000 148.000 C 157.471 147.230,156.906 146.506,156.744 146.392 C 156.582 146.277,155.787 145.647,154.976 144.992 C 152.943 143.347,150.390 142.000,149.306 142.000 C 148.808 142.000,148.400 141.820,148.400 141.600 C 148.400 141.380,147.770 141.200,147.000 141.200 C 146.230 141.200,145.600 141.020,145.600 140.800 C 145.600 140.548,142.933 140.400,138.400 140.400 C 130.935 140.400,130.045 140.637,131.565 142.220 C 131.766 142.429,132.384 143.950,132.940 145.600 C 133.495 147.250,134.513 150.130,135.201 152.000 C 135.890 153.870,137.141 157.380,137.982 159.800 C 138.823 162.220,140.440 166.810,141.577 170.000 C 142.714 173.190,143.707 175.996,143.784 176.235 C 143.861 176.474,145.122 176.868,146.586 177.110 C 159.285 179.215,162.802 194.385,151.404 197.894 C 140.745 201.176,130.666 186.888,138.449 179.530 L 140.428 177.659 139.587 175.330 C 139.125 174.048,138.412 172.010,138.005 170.800 C 137.597 169.590,136.695 167.070,136.000 165.200 C 135.305 163.330,134.405 160.810,134.000 159.600 C 133.595 158.390,132.695 155.870,132.000 154.000 C 131.305 152.130,130.411 149.610,130.011 148.400 C 127.563 140.977,127.099 140.400,123.573 140.400 C 122.048 140.400,120.800 140.514,120.800 140.652 M25.324 345.800 C 25.326 347.120,25.401 347.612,25.490 346.893 C 25.579 346.174,25.577 345.094,25.486 344.493 C 25.395 343.892,25.322 344.480,25.324 345.800 M35.600 363.353 C 35.600 364.383,35.647 364.400,38.400 364.400 C 41.637 364.400,42.040 363.866,39.300 363.208 C 38.255 362.957,36.995 362.652,36.500 362.529 C 35.739 362.341,35.600 362.469,35.600 363.353 " stroke="none" fill="#f0f2fb" fill-rule="evenodd"></path><path id="path3" d="M82.000 140.653 C 82.000 140.792,82.405 141.258,82.900 141.688 C 83.395 142.118,88.030 146.099,93.200 150.535 C 108.287 163.479,110.780 166.204,114.580 173.905 C 117.299 179.416,117.754 180.702,119.282 187.200 C 119.901 189.829,119.874 209.426,119.216 235.600 C 118.981 244.950,118.612 260.340,118.397 269.800 C 118.182 279.260,117.839 293.209,117.636 300.797 C 117.357 311.220,117.381 314.667,117.733 314.891 C 118.348 315.282,129.898 315.288,130.140 314.898 C 130.243 314.731,130.526 285.616,130.769 250.198 C 131.060 207.872,131.365 184.523,131.660 182.074 C 131.906 180.025,132.129 175.525,132.154 172.074 C 132.199 165.999,132.121 165.440,130.791 162.200 C 130.610 161.760,130.139 160.590,129.743 159.600 C 127.630 154.306,120.223 140.400,119.517 140.400 C 118.207 140.400,118.204 139.773,119.594 157.400 C 119.802 160.040,120.089 163.082,120.232 164.160 C 120.465 165.919,120.420 166.093,119.791 165.852 C 119.192 165.622,107.521 157.440,100.359 152.230 C 99.127 151.334,96.787 149.656,95.159 148.503 C 93.532 147.349,90.310 145.058,88.000 143.411 C 84.389 140.837,82.000 139.739,82.000 140.653 " stroke="none" fill="#fae294" fill-rule="evenodd"></path><path id="path4" d="M267.200 47.654 C 267.200 48.459,266.933 49.637,265.896 53.400 C 264.174 59.650,259.078 66.158,252.300 70.764 L 249.200 72.870 249.200 84.735 C 249.200 97.356,249.550 100.913,251.194 105.000 C 252.327 107.817,253.869 110.677,255.228 112.486 C 256.093 113.637,256.800 114.868,256.800 115.222 C 256.800 115.924,260.865 120.000,261.566 120.000 C 261.805 120.000,262.000 120.150,262.000 120.332 C 262.000 120.515,262.495 120.914,263.100 121.218 C 263.705 121.522,264.650 122.066,265.200 122.426 C 266.929 123.559,270.005 124.544,273.500 125.086 L 274.800 125.288 274.813 131.944 C 274.823 137.109,274.955 138.771,275.402 139.362 C 275.986 140.133,276.455 141.583,278.007 147.400 C 278.476 149.160,279.105 151.500,279.404 152.600 C 279.703 153.700,280.239 155.680,280.595 157.000 C 280.950 158.320,281.367 159.522,281.521 159.672 C 281.786 159.931,284.363 158.146,301.844 145.600 C 305.983 142.630,309.736 139.989,310.184 139.730 C 310.988 139.268,311.000 138.967,311.000 119.559 L 311.000 99.856 312.977 99.350 C 322.237 96.978,323.590 84.272,315.000 80.348 C 314.120 79.946,312.900 79.614,312.289 79.609 C 310.900 79.598,301.145 74.648,294.212 70.437 C 292.731 69.537,291.437 68.800,291.337 68.800 C 291.090 68.800,286.812 65.921,283.400 63.459 C 276.144 58.224,270.118 52.141,268.185 48.100 C 267.460 46.585,267.200 46.467,267.200 47.654 M94.800 62.207 C 94.800 65.931,92.512 69.934,89.446 71.576 L 88.400 72.135 88.391 78.968 C 88.382 86.297,88.236 86.874,86.126 87.953 C 84.605 88.731,84.400 88.503,84.400 86.033 C 84.400 82.646,84.290 82.483,82.217 82.797 C 79.985 83.136,78.705 83.959,76.100 86.731 L 74.000 88.965 74.000 92.682 C 74.000 94.894,74.162 96.400,74.400 96.400 C 74.620 96.400,74.800 96.687,74.800 97.038 C 74.800 97.693,76.228 99.962,76.980 100.501 C 78.725 101.754,81.015 102.800,82.011 102.800 L 83.200 102.800 83.200 115.400 C 83.200 122.985,83.349 128.000,83.575 128.000 C 84.321 128.000,84.511 131.426,83.838 132.727 C 83.038 134.274,82.933 140.207,83.700 140.515 C 84.215 140.722,93.444 147.214,100.354 152.230 C 107.872 157.687,119.196 165.624,119.791 165.852 C 120.420 166.093,120.465 165.919,120.232 164.160 C 120.089 163.082,119.801 160.040,119.593 157.400 C 118.429 142.660,118.352 141.088,118.773 140.667 C 119.314 140.126,119.339 133.333,118.800 133.000 C 116.983 131.877,118.864 126.807,121.100 126.803 C 122.035 126.801,122.800 126.620,122.800 126.400 C 122.800 126.180,123.340 126.000,124.000 126.000 C 124.660 126.000,125.200 125.820,125.200 125.600 C 125.200 125.380,125.560 125.200,126.000 125.200 C 126.440 125.200,126.800 125.020,126.800 124.800 C 126.800 124.580,127.160 124.400,127.600 124.400 C 128.040 124.400,128.400 124.190,128.400 123.933 C 128.400 123.677,128.512 123.579,128.650 123.716 C 129.021 124.087,131.593 122.653,133.282 121.134 C 134.097 120.400,135.177 119.429,135.682 118.976 C 136.786 117.985,139.280 114.923,139.705 114.036 C 139.872 113.686,140.354 112.860,140.775 112.200 C 141.197 111.540,141.555 110.685,141.571 110.300 C 141.587 109.915,141.780 109.600,142.000 109.600 C 142.220 109.600,142.400 109.060,142.400 108.400 C 142.400 107.740,142.580 107.200,142.800 107.200 C 143.020 107.200,143.200 106.761,143.200 106.224 C 143.200 105.687,143.380 105.136,143.600 105.000 C 143.820 104.864,144.000 103.784,144.000 102.600 C 144.000 101.416,144.180 100.336,144.400 100.200 C 144.933 99.870,144.943 82.916,144.410 82.733 C 144.196 82.660,143.916 80.174,143.788 77.208 C 143.563 71.999,142.615 66.973,141.529 65.236 C 141.104 64.554,140.903 64.540,138.741 65.045 C 128.770 67.371,114.985 65.922,95.500 60.501 C 94.904 60.336,94.800 60.590,94.800 62.207 M263.087 79.959 C 264.146 81.536,264.228 82.680,263.421 84.612 C 262.177 87.589,259.265 87.213,258.390 83.963 C 257.244 79.707,260.852 76.632,263.087 79.959 M282.582 78.649 C 284.113 79.236,284.820 82.827,283.796 84.808 C 282.042 88.199,278.800 86.763,278.800 82.596 C 278.800 79.438,280.370 77.800,282.582 78.649 M114.510 82.500 C 115.553 84.755,115.671 85.571,115.178 87.106 C 113.699 91.714,110.000 90.561,110.000 85.492 C 110.000 81.553,113.116 79.485,114.510 82.500 M134.404 82.500 C 135.932 85.006,135.101 89.308,132.988 89.839 C 130.232 90.530,128.557 85.263,130.559 82.206 C 131.557 80.684,133.382 80.823,134.404 82.500 M283.600 101.654 C 283.600 111.591,270.517 116.584,263.480 109.333 C 261.306 107.093,259.554 102.939,260.139 101.414 C 260.575 100.278,283.600 100.513,283.600 101.654 M133.093 105.322 C 131.762 118.218,110.800 117.732,110.800 104.804 L 110.800 103.200 122.056 103.200 L 133.312 103.200 133.093 105.322 M102.800 158.925 C 102.800 158.994,103.385 159.579,104.100 160.225 L 105.400 161.400 104.225 160.100 C 103.130 158.888,102.800 158.616,102.800 158.925 M106.800 163.000 C 107.546 163.770,108.247 164.400,108.357 164.400 C 108.467 164.400,107.946 163.770,107.200 163.000 C 106.454 162.230,105.753 161.600,105.643 161.600 C 105.533 161.600,106.054 162.230,106.800 163.000 M132.528 170.400 C 132.528 171.830,132.601 172.415,132.689 171.700 C 132.778 170.985,132.778 169.815,132.689 169.100 C 132.601 168.385,132.528 168.970,132.528 170.400 M132.093 175.600 C 132.093 176.370,132.175 176.685,132.276 176.300 C 132.376 175.915,132.376 175.285,132.276 174.900 C 132.175 174.515,132.093 174.830,132.093 175.600 M119.701 193.400 C 119.705 194.280,119.787 194.593,119.883 194.095 C 119.979 193.598,119.975 192.878,119.875 192.495 C 119.775 192.113,119.696 192.520,119.701 193.400 M119.740 201.600 C 119.740 203.470,119.809 204.235,119.893 203.300 C 119.977 202.365,119.977 200.835,119.893 199.900 C 119.809 198.965,119.740 199.730,119.740 201.600 M119.348 224.800 C 119.348 227.110,119.414 228.055,119.495 226.900 C 119.576 225.745,119.576 223.855,119.495 222.700 C 119.414 221.545,119.348 222.490,119.348 224.800 M130.982 245.200 C 130.982 253.670,131.035 257.135,131.099 252.900 C 131.164 248.665,131.164 241.735,131.099 237.500 C 131.035 233.265,130.982 236.730,130.982 245.200 M118.944 236.800 C 118.944 238.890,119.012 239.745,119.094 238.700 C 119.176 237.655,119.176 235.945,119.094 234.900 C 119.012 233.855,118.944 234.710,118.944 236.800 M118.548 260.000 C 118.548 262.310,118.614 263.255,118.695 262.100 C 118.776 260.945,118.776 259.055,118.695 257.900 C 118.614 256.745,118.548 257.690,118.548 260.000 M274.172 267.186 C 270.024 268.864,271.371 274.259,276.379 276.027 C 279.757 277.220,279.740 277.296,275.501 279.844 C 263.473 287.074,261.386 289.617,261.417 297.000 C 261.453 305.563,266.911 311.020,275.400 310.979 L 279.400 310.960 288.000 307.240 C 292.730 305.194,297.500 303.114,298.600 302.617 C 299.700 302.120,301.298 301.464,302.150 301.158 C 303.003 300.853,303.781 300.394,303.879 300.138 C 304.111 299.533,288.693 269.196,287.938 268.773 C 286.157 267.777,275.693 266.570,274.172 267.186 M118.142 271.800 C 118.141 273.780,118.208 274.640,118.292 273.712 C 118.376 272.784,118.377 271.164,118.295 270.112 C 118.212 269.060,118.143 269.820,118.142 271.800 M178.600 277.200 C 178.464 277.420,177.928 277.600,177.410 277.600 C 176.891 277.600,176.407 277.778,176.333 277.997 C 176.260 278.215,175.705 278.434,175.100 278.484 C 174.495 278.534,174.000 278.715,174.000 278.887 C 174.000 279.059,173.722 279.200,173.382 279.200 C 172.582 279.200,170.800 280.982,170.800 281.782 C 170.800 282.122,170.620 282.400,170.400 282.400 C 170.178 282.400,170.000 283.467,170.000 284.800 C 170.000 286.133,170.178 287.200,170.400 287.200 C 170.620 287.200,170.800 287.439,170.800 287.730 C 170.800 289.258,174.593 291.248,176.911 290.935 C 178.425 290.731,179.065 291.888,178.064 293.020 C 177.639 293.501,177.147 294.889,175.802 299.400 C 175.211 301.380,174.564 303.313,174.364 303.695 C 174.164 304.077,174.000 304.752,174.000 305.195 C 174.000 305.638,173.820 306.000,173.600 306.000 C 173.380 306.000,173.200 306.529,173.200 307.176 C 173.200 307.823,173.020 308.464,172.800 308.600 C 172.580 308.736,172.400 309.287,172.400 309.824 C 172.400 310.361,172.220 310.800,172.000 310.800 C 171.780 310.800,171.600 311.419,171.600 312.176 C 171.600 312.933,171.420 313.664,171.200 313.800 C 170.980 313.936,170.800 314.937,170.800 316.024 C 170.800 317.111,170.980 318.000,171.200 318.000 C 171.420 318.000,171.600 318.619,171.600 319.376 C 171.600 320.133,171.780 320.864,172.000 321.000 C 172.220 321.136,172.400 321.526,172.400 321.867 C 172.400 322.545,176.532 326.800,177.191 326.800 C 177.416 326.800,177.600 326.980,177.600 327.200 C 177.600 327.420,178.039 327.600,178.576 327.600 C 179.113 327.600,179.664 327.780,179.800 328.000 C 179.936 328.220,181.657 328.400,183.624 328.400 C 185.741 328.400,187.200 328.237,187.200 328.000 C 187.200 327.780,187.650 327.600,188.200 327.600 C 188.750 327.600,189.200 327.420,189.200 327.200 C 189.200 326.980,189.441 326.800,189.736 326.800 C 190.556 326.800,193.782 323.566,194.425 322.100 C 194.739 321.385,195.131 320.800,195.298 320.800 C 195.464 320.800,195.600 320.440,195.600 320.000 C 195.600 319.560,195.780 319.200,196.000 319.200 C 196.220 319.200,196.400 318.840,196.400 318.400 C 196.400 317.960,196.580 317.600,196.800 317.600 C 197.020 317.600,197.200 317.240,197.200 316.800 C 197.200 316.360,197.380 316.000,197.600 316.000 C 197.820 316.000,198.000 315.747,198.000 315.438 C 198.000 314.772,199.668 311.459,200.100 311.267 C 200.265 311.193,200.400 310.788,200.400 310.367 C 200.400 309.945,200.580 309.600,200.800 309.600 C 201.020 309.600,201.200 309.255,201.200 308.833 C 201.200 308.412,201.335 308.007,201.500 307.933 C 201.665 307.860,202.229 306.954,202.753 305.920 L 203.705 304.040 202.601 302.720 C 201.994 301.994,200.289 300.050,198.812 298.400 C 197.336 296.750,193.806 292.790,190.969 289.600 C 188.132 286.410,185.396 283.350,184.888 282.800 C 184.380 282.250,183.027 280.677,181.882 279.305 C 179.849 276.868,179.101 276.389,178.600 277.200 M130.308 297.838 C 130.249 307.429,130.335 315.360,130.500 315.462 C 130.665 315.564,130.800 307.717,130.800 298.024 C 130.800 288.331,130.714 280.400,130.608 280.400 C 130.503 280.400,130.368 288.247,130.308 297.838 M117.744 295.200 C 117.744 297.290,117.812 298.145,117.894 297.100 C 117.976 296.055,117.976 294.345,117.894 293.300 C 117.812 292.255,117.744 293.110,117.744 295.200 M117.342 307.000 C 117.341 308.980,117.408 309.840,117.492 308.912 C 117.576 307.984,117.577 306.364,117.495 305.312 C 117.412 304.260,117.343 305.020,117.342 307.000 M116.931 318.200 C 116.933 319.740,117.005 320.321,117.092 319.491 C 117.179 318.661,117.177 317.401,117.089 316.691 C 117.000 315.981,116.929 316.660,116.931 318.200 M28.400 319.516 C 28.400 319.914,28.233 320.411,28.029 320.620 C 27.825 320.829,27.564 322.440,27.449 324.200 C 27.334 325.960,27.070 328.750,26.863 330.400 C 24.484 349.361,24.932 353.039,30.308 358.671 C 32.694 361.171,34.683 362.462,36.400 362.625 C 38.051 362.782,41.200 363.645,41.200 363.940 C 41.200 364.682,47.444 363.854,50.094 362.761 C 59.284 358.972,61.847 354.139,61.688 340.900 C 61.570 331.067,61.623 330.903,63.753 334.545 C 66.543 339.316,69.457 340.721,72.769 338.894 C 76.272 336.960,76.353 334.390,73.134 327.232 C 72.681 326.225,71.881 324.410,71.356 323.200 C 70.831 321.990,70.170 320.550,69.886 320.000 L 69.369 319.000 48.885 318.896 C 29.349 318.798,28.400 318.826,28.400 319.516 M116.531 330.200 C 116.533 331.740,116.605 332.321,116.692 331.491 C 116.779 330.661,116.777 329.401,116.689 328.691 C 116.600 327.981,116.529 328.660,116.531 330.200 " stroke="none" fill="#fbc4c3" fill-rule="evenodd"></path></g></svg>