<svg xmlns="http://www.w3.org/2000/svg" width="512" height="512" viewBox="0 0 512 512" version="1.1"><path d="M 264 1.819 C 256.634 4.260, 251.321 7.757, 242.384 16.043 C 236.400 21.592, 233.780 23.296, 229.207 24.613 C 201.525 32.589, 190.423 53.478, 199.035 81.383 C 200.593 86.430, 200.886 90.211, 200.712 103 C 200.543 115.379, 200.852 119.637, 202.248 124.145 C 204.792 132.366, 210.789 140.663, 219.153 147.538 C 227.808 154.651, 230.992 159.998, 231.017 167.462 C 231.041 174.273, 233.382 184.868, 235.994 189.989 C 240.317 198.461, 250.339 206.324, 260.647 209.330 L 265.794 210.831 267.885 205.165 C 270.758 197.387, 278.158 187.924, 289.192 177.921 C 305.860 162.812, 307.378 160.650, 307.432 151.945 C 307.483 143.778, 302.694 134.692, 293.089 124.733 L 285.500 116.863 278.076 123.558 C 266.608 133.901, 259.256 136.212, 251.086 132.044 C 245.861 129.378, 242.351 124.966, 237.927 115.500 C 232.201 103.250, 227.644 82.662, 225.464 59.194 L 224.786 51.888 230.143 55.309 C 242.818 63.403, 254.819 67.980, 263.460 68.017 C 265.682 68.027, 271.231 66.803, 275.790 65.298 C 286.550 61.746, 287.242 62.143, 288.280 72.479 C 289.418 83.815, 292.578 89.572, 303.994 101.100 C 314.538 111.749, 326.549 120.140, 347.503 131.500 C 358.266 137.335, 361.849 139.914, 369.036 147 C 377.745 155.586, 380.696 159.903, 385.065 170.442 L 387.465 176.234 391.890 171.367 C 397.071 165.668, 401.716 156.351, 402.603 149.879 C 403.568 142.842, 400.972 135.660, 394.590 127.704 C 391.592 123.966, 388.816 119.466, 388.421 117.704 C 388.027 115.942, 387.658 109.316, 387.602 102.979 C 387.505 92.076, 387.324 91.100, 384.213 84.782 C 380.769 77.785, 374.514 71.336, 367.884 67.945 C 362.953 65.423, 358.203 61.299, 356.582 58.131 C 355.841 56.684, 354.272 51.971, 353.095 47.657 C 350.383 37.718, 348.880 34.855, 343.163 28.743 C 337.644 22.843, 331.548 19.573, 321.285 17.009 C 315.939 15.673, 311.731 13.770, 307.093 10.592 C 295.646 2.747, 289.863 0.626, 279 0.290 C 271.863 0.070, 268.132 0.450, 264 1.819 M 157.660 222.988 C 143.343 225.567, 132.585 230.746, 127.381 237.565 C 124.920 240.789, 124.475 242.334, 124.327 248.155 C 124.227 252.133, 123.317 257.210, 122.142 260.349 C 115.001 279.435, 122.067 302.090, 140.880 320.432 C 145.932 325.357, 145.942 325.362, 148.073 323.434 C 150.746 321.014, 154.646 314.384, 155.546 310.727 C 156.141 308.309, 155.641 307.436, 151.645 303.919 C 145.110 298.167, 143.724 291.669, 147.861 286.184 C 150.212 283.068, 156.524 281.003, 160.348 282.100 C 163.724 283.068, 168.679 287.414, 169.556 290.176 C 170.236 292.320, 174.295 292.593, 177.893 290.735 C 182.384 288.417, 184 283.567, 184 272.402 L 184 262.273 189.250 263.239 C 192.137 263.770, 197.925 264.012, 202.110 263.776 C 216.589 262.960, 223.322 256.967, 224.694 243.678 C 225.757 233.372, 223.081 229.686, 216.523 232.426 L 213 233.898 213 229.649 C 213 227.312, 212.460 224.860, 211.800 224.200 C 209.814 222.214, 205.662 222.835, 200.951 225.823 L 196.500 228.645 190.060 225.639 C 184.367 222.982, 182.397 222.604, 173.060 222.375 C 167.252 222.233, 160.322 222.509, 157.660 222.988 M 135.939 348.376 C 131.360 351.513, 127.871 356.133, 123.644 364.661 C 115.683 380.719, 111.683 401.201, 110.005 434.500 C 109.153 451.404, 110.199 497.561, 111.585 504.238 L 112.154 506.976 73.327 507.238 L 34.500 507.500 34.180 509.750 L 33.861 512 256 512 L 478.139 512 477.820 509.750 L 477.500 507.500 350.834 507.500 C 281.168 507.500, 223.852 507.183, 223.464 506.796 C 223.076 506.409, 218.478 486.609, 213.244 462.796 C 208.011 438.983, 203.333 418.995, 202.849 418.378 C 202.364 417.761, 198.618 416.034, 194.524 414.541 C 189.818 412.825, 186.868 411.159, 186.504 410.014 C 185.578 407.094, 187.903 394.936, 190.461 389.325 C 193.362 382.962, 200.137 375.433, 203.786 374.518 L 206.500 373.836 203.347 371.019 C 194.589 363.193, 173.993 353.789, 155.500 349.172 C 141.583 345.697, 139.947 345.630, 135.939 348.376" stroke="none" fill="#512476" fill-rule="evenodd"/><path d="M 225.464 59.194 C 227.644 82.662, 232.201 103.250, 237.927 115.500 C 242.351 124.966, 245.861 129.378, 251.086 132.044 C 259.256 136.212, 266.608 133.901, 278.076 123.558 L 285.500 116.863 293.089 124.733 C 302.694 134.692, 307.483 143.778, 307.432 151.945 C 307.378 160.650, 305.860 162.812, 289.192 177.921 C 266.288 198.684, 260.350 214.702, 269.177 231.908 L 272.728 238.828 269.114 239.496 C 263.533 240.526, 250.156 247.197, 243.500 252.267 C 233.285 260.050, 226.008 270.212, 221 283.690 L 218.097 291.500 218.041 283 C 217.994 275.877, 216.477 262.144, 215.645 261.312 C 215.514 261.181, 213.219 261.732, 210.544 262.537 C 205.241 264.133, 194.957 264.388, 188.250 263.091 L 184 262.269 184 272.400 C 184 283.567, 182.385 288.417, 177.893 290.735 C 174.295 292.593, 170.236 292.320, 169.556 290.176 C 168.679 287.414, 163.724 283.068, 160.348 282.100 C 156.524 281.003, 150.212 283.068, 147.861 286.184 C 143.753 291.630, 145.114 298.170, 151.531 303.818 C 153.989 305.982, 155.990 308.370, 155.978 309.126 C 155.939 311.584, 152.334 318.549, 149.281 322.065 C 146.884 324.826, 146.170 326.772, 145.641 331.979 C 145.279 335.542, 144.141 340.159, 143.111 342.240 C 141.246 346.011, 141.246 346.023, 143.370 346.449 C 155.939 348.970, 166.764 352.179, 177.250 356.494 C 178.634 357.063, 179 356.706, 179 354.785 C 179 348.615, 185.978 336, 189.391 336 C 190.076 336, 193.011 335.295, 195.913 334.433 C 202.469 332.486, 209.470 326.290, 212.521 319.736 L 214.738 314.971 215.438 321.236 C 216.996 335.184, 223.157 348.104, 235.183 362.642 L 241.231 369.954 236.845 375.855 L 232.460 381.757 218.980 378.417 C 211.566 376.580, 204.545 375.060, 203.377 375.039 C 200.513 374.986, 193.424 382.827, 190.461 389.325 C 187.934 394.868, 185.574 407.083, 186.480 409.935 C 187.161 412.084, 203.274 418.526, 213.312 420.664 C 226.507 423.475, 243.582 420.370, 252.552 413.528 C 254.521 412.027, 256.439 411.106, 256.816 411.483 C 258.454 413.121, 256.851 435.142, 252.595 469.456 C 250.075 489.782, 248.372 506.772, 248.812 507.212 C 249.252 507.652, 284.462 507.897, 327.056 507.756 L 404.500 507.500 405.147 498 C 405.502 492.775, 406.125 467.575, 406.530 442 C 407.172 401.517, 407.056 394.077, 405.632 384.500 C 401.830 358.922, 393.288 337.913, 381.568 325.314 L 375.230 318.500 382.453 310.930 C 392.868 300.016, 397.962 288.428, 397.988 275.594 C 398.009 265.394, 389.062 181.771, 387.387 176.500 C 383.595 164.571, 378.790 156.789, 369.481 147.500 C 361.738 139.773, 358.633 137.510, 347.527 131.500 C 326.598 120.175, 314.554 111.765, 303.994 101.100 C 292.578 89.572, 289.418 83.815, 288.280 72.479 C 287.242 62.143, 286.550 61.746, 275.790 65.298 C 271.231 66.803, 265.682 68.027, 263.460 68.017 C 254.819 67.980, 242.818 63.403, 230.143 55.309 L 224.786 51.888 225.464 59.194" stroke="none" fill="#fb79af" fill-rule="evenodd"/></svg>