<?xml version="1.0" standalone="no"?>
<!DOCTYPE svg PUBLIC "-//W3C//DTD SVG 20010904//EN"
 "http://www.w3.org/TR/2001/REC-SVG-20010904/DTD/svg10.dtd">
<svg version="1.0" xmlns="http://www.w3.org/2000/svg"
 width="512.000000pt" height="512.000000pt" viewBox="0 0 512.000000 512.000000"
 preserveAspectRatio="xMidYMid meet">

<g transform="translate(0.000000,512.000000) scale(0.100000,-0.100000)"
fill="#000000" stroke="none">
<path d="M2415 4230 c-196 -31 -403 -124 -682 -308 -101 -66 -204 -130 -230
-142 -81 -38 -108 -25 -288 131 -126 109 -234 157 -375 166 -201 13 -403 -94
-482 -255 -31 -64 -33 -72 -32 -172 2 -89 9 -133 49 -290 51 -200 65 -318 46
-388 -7 -24 -31 -63 -56 -92 -54 -60 -59 -97 -19 -137 23 -23 31 -25 81 -20
30 3 80 18 110 33 67 32 159 108 193 157 19 29 32 37 55 37 25 0 34 -7 50 -36
24 -45 103 -116 158 -143 153 -74 328 -64 445 26 34 25 82 111 82 146 0 15 10
17 73 17 145 0 195 -30 307 -185 88 -120 116 -208 88 -275 -8 -19 -49 -78 -90
-130 -41 -52 -88 -120 -104 -150 -28 -53 -29 -59 -28 -195 2 -213 34 -371 144
-711 68 -207 90 -292 90 -347 0 -77 83 -115 135 -62 46 45 33 127 -68 445
-105 328 -132 451 -143 645 -8 135 -4 145 103 281 103 132 127 185 128 285 0
69 -4 83 -42 160 -65 130 -160 248 -357 444 -184 183 -350 322 -562 471 -136
96 -320 193 -380 201 -58 7 -134 -28 -187 -87 -122 -135 -74 -312 141 -524 65
-64 69 -71 59 -93 -11 -24 -14 -25 -77 -19 -58 6 -70 4 -93 -14 -15 -12 -27
-29 -27 -38 0 -9 -9 -28 -19 -41 -18 -23 -18 -23 -24 75 -4 67 -21 159 -52
284 -56 228 -65 311 -39 365 26 56 79 104 153 139 60 28 75 31 162 31 90 0 99
-2 170 -37 46 -23 113 -72 179 -129 137 -119 184 -143 275 -144 60 0 81 5 145
36 41 20 125 69 185 110 260 177 412 256 578 301 117 31 317 31 435 0 166 -45
315 -122 577 -301 61 -41 144 -90 185 -110 64 -31 85 -36 145 -36 92 1 138 25
275 144 66 57 133 106 179 129 71 35 80 37 170 37 87 0 102 -3 162 -31 72 -34
128 -86 155 -141 24 -52 14 -139 -41 -363 -31 -124 -48 -217 -52 -282 -3 -57
-10 -95 -15 -92 -5 4 -18 26 -28 49 -25 57 -45 67 -123 59 -59 -6 -63 -5 -74
17 -9 22 -3 32 73 111 207 215 247 375 127 508 -53 59 -129 94 -186 87 -172
-23 -668 -384 -1003 -730 -152 -157 -247 -281 -303 -397 -32 -66 -36 -84 -36
-150 0 -98 24 -151 128 -284 107 -136 111 -146 103 -281 -11 -194 -38 -317
-143 -645 -101 -318 -114 -400 -68 -445 52 -53 135 -15 135 62 0 55 22 139 89
346 109 336 143 501 145 707 1 165 -9 194 -127 344 -44 55 -86 117 -94 136
-29 67 -1 155 87 275 112 155 162 185 307 185 63 0 73 -2 73 -17 0 -35 48
-121 82 -146 117 -90 292 -100 445 -26 55 27 134 98 158 143 16 29 25 36 50
36 23 0 36 -8 55 -37 34 -49 126 -125 193 -157 30 -15 80 -30 110 -33 50 -5
58 -3 81 20 40 40 35 77 -19 137 -25 29 -49 68 -56 92 -19 70 -5 188 46 388
40 157 47 201 49 290 1 100 -1 108 -32 172 -79 161 -281 268 -482 255 -141 -9
-249 -57 -375 -166 -181 -157 -207 -169 -289 -130 -26 12 -123 72 -215 132
-273 180 -419 252 -601 297 -98 24 -294 34 -385 20z m-1552 -576 c121 -62 398
-262 602 -435 l110 -94 -53 -3 c-50 -3 -55 -1 -103 42 -107 97 -257 136 -400
105 l-53 -11 -98 100 c-144 148 -178 233 -119 293 36 36 48 36 114 3z m3508
-3 c59 -60 25 -145 -119 -293 l-98 -100 -53 11 c-143 31 -293 -8 -399 -104
-46 -42 -54 -45 -103 -45 l-54 1 45 40 c266 238 662 518 733 519 10 0 32 -13
48 -29z m-3131 -558 c53 -23 107 -75 116 -110 14 -53 -54 -101 -147 -102 -117
-2 -249 80 -249 155 0 25 34 57 75 73 43 16 153 7 205 -16z m2849 13 c46 -16
76 -56 67 -89 -3 -14 -21 -40 -38 -58 -86 -86 -260 -104 -335 -36 -28 25 -29
53 -5 89 56 86 208 131 311 94z"/>
<path d="M2301 3749 c-196 -17 -395 -66 -519 -126 -80 -39 -102 -62 -102 -106
0 -34 10 -43 155 -151 220 -163 386 -333 450 -460 l35 -69 0 -378 0 -379 -95
0 c-88 0 -98 -2 -120 -25 -30 -29 -30 -33 -5 -171 69 -374 140 -837 140 -917
0 -77 83 -115 135 -62 18 17 25 35 25 64 0 89 -39 349 -137 919 l-6 32 87 0
c79 0 89 2 111 25 l25 24 0 434 c0 501 0 504 -91 642 -63 96 -222 262 -354
368 -55 44 -104 84 -109 88 -13 11 114 47 254 71 106 18 165 22 380 22 274 0
419 -16 575 -65 l69 -21 -29 -22 c-153 -111 -369 -325 -445 -442 -90 -137 -90
-141 -90 -641 l0 -434 25 -24 c22 -23 32 -25 111 -25 l87 0 -6 -32 c-85 -481
-137 -833 -137 -919 0 -29 7 -47 25 -64 52 -53 135 -15 135 62 0 80 71 543
140 917 25 138 25 142 -5 171 -22 23 -32 25 -120 25 l-95 0 0 379 0 378 35 69
c65 129 247 313 469 474 117 85 136 104 136 135 0 41 -16 61 -72 93 -210 118
-657 177 -1067 141z"/>
</g>
</svg>
