<?xml version="1.0" standalone="no"?>
<!DOCTYPE svg PUBLIC "-//W3C//DTD SVG 20010904//EN"
 "http://www.w3.org/TR/2001/REC-SVG-20010904/DTD/svg10.dtd">
<svg version="1.0" xmlns="http://www.w3.org/2000/svg"
 width="512.000000pt" height="512.000000pt" viewBox="0 0 512.000000 512.000000"
 preserveAspectRatio="xMidYMid meet">

<g transform="translate(0.000000,512.000000) scale(0.100000,-0.100000)"
fill="#000000" stroke="none">
<path d="M1888 4809 c-234 -29 -488 -135 -566 -237 -15 -19 -47 -57 -71 -85
-125 -144 -150 -337 -73 -555 l28 -78 -39 -18 c-21 -10 -50 -36 -65 -59 -24
-36 -27 -50 -27 -121 0 -66 4 -90 25 -129 27 -55 102 -129 154 -154 29 -13 40
-28 61 -82 36 -89 94 -187 150 -249 l46 -51 -3 -117 -3 -117 -160 -58 c-173
-63 -195 -78 -216 -150 -12 -40 -15 -41 -198 -132 -236 -117 -345 -189 -446
-291 -82 -83 -126 -154 -161 -256 -17 -50 -19 -90 -19 -460 0 -404 0 -405 23
-448 17 -31 35 -49 65 -63 40 -18 82 -19 1099 -19 l1056 0 4 -242 c3 -220 5
-246 23 -275 40 -67 -23 -63 1115 -63 1125 0 1065 -3 1106 57 18 26 19 50 19
318 l0 290 -33 69 c-83 176 -311 311 -639 382 l-83 17 0 162 0 162 43 65 c24
36 52 88 62 116 12 32 26 54 38 58 31 10 97 75 120 118 43 83 20 200 -47 235
l-24 13 21 57 c15 42 21 81 21 156 1 94 -1 105 -31 165 -98 199 -343 320 -645
320 -223 0 -369 -66 -429 -194 -11 -22 -35 -63 -54 -89 -19 -27 -39 -65 -45
-85 -21 -76 -9 -227 25 -315 5 -12 -36 3 -146 56 -153 72 -154 73 -168 115
-22 70 -53 92 -222 153 l-154 55 -3 118 -3 118 41 44 c57 62 109 147 146 237
29 72 36 80 90 115 65 42 104 83 137 146 17 32 22 58 22 122 0 71 -3 85 -27
121 -16 24 -43 48 -67 59 -29 14 -39 23 -34 34 41 96 56 163 61 267 6 144 -16
222 -87 317 -27 36 -52 75 -56 88 -13 43 -75 125 -120 157 -106 76 -237 111
-430 116 -71 2 -164 -1 -207 -6z m407 -113 c140 -38 219 -97 254 -190 11 -31
38 -74 60 -97 56 -57 83 -134 84 -234 1 -98 -15 -166 -62 -270 l-36 -80 -6 80
c-4 51 -13 95 -27 121 -25 50 -86 105 -149 137 -62 32 -351 137 -374 137 -10
0 -26 -11 -34 -24 -15 -23 -14 -28 14 -84 16 -32 51 -89 76 -126 25 -38 45
-70 42 -72 -10 -11 -163 19 -238 46 -103 37 -203 94 -329 189 -52 39 -102 71
-112 71 -31 0 -48 -39 -38 -85 14 -61 12 -194 -6 -318 -24 -166 -23 -165 -78
-72 -70 120 -99 218 -100 340 -1 88 2 107 25 155 25 54 90 139 160 209 70 72
231 139 413 172 125 23 367 20 461 -5z m-27 -578 c92 -34 165 -78 196 -121 27
-37 32 -130 16 -275 -12 -101 -12 -115 2 -129 28 -27 63 -8 115 63 85 117 76
109 110 95 55 -23 69 -101 32 -178 -24 -49 -73 -93 -137 -123 -23 -11 -45 -28
-49 -38 -114 -332 -315 -502 -591 -502 -247 0 -470 174 -562 438 -26 75 -29
78 -81 104 -108 55 -171 157 -149 240 12 41 24 54 60 63 23 5 31 -1 73 -62 67
-99 91 -119 124 -107 24 8 30 19 45 84 27 114 48 254 56 362 l7 97 85 -56
c112 -74 231 -129 332 -155 66 -16 103 -20 199 -16 127 4 149 13 149 57 0 19
-14 40 -46 71 -61 60 -115 136 -88 126 10 -4 56 -21 102 -38z m1447 -1159
c290 -35 485 -189 485 -383 0 -60 -21 -140 -57 -209 -23 -46 -23 -50 -8 -73
11 -17 25 -24 48 -24 41 0 54 -9 62 -41 13 -53 -21 -102 -114 -162 -25 -16
-39 -37 -55 -82 -41 -114 -131 -215 -234 -263 -50 -24 -70 -27 -157 -27 -88 0
-107 3 -158 27 -107 50 -186 143 -236 279 -19 49 -28 60 -69 81 -57 29 -92 78
-92 127 0 45 14 61 56 61 33 0 64 21 64 44 0 7 -13 42 -29 78 -68 150 -60 290
23 367 14 13 28 37 31 53 15 68 121 131 250 148 87 11 91 11 190 -1z m-2021
-88 c176 -83 389 -80 565 8 l61 31 0 -74 c0 -67 -22 -271 -36 -336 -3 -14 -25
-40 -49 -59 -110 -82 -265 -111 -392 -73 -85 26 -190 92 -197 124 -28 127 -48
426 -28 416 4 -2 38 -19 76 -37z m-64 -985 c55 -396 98 -721 97 -722 -7 -7
-531 833 -534 855 -2 14 0 32 5 38 4 7 58 30 120 52 62 22 117 43 122 46 6 4
10 19 10 34 0 20 -28 61 -110 158 -113 136 -130 166 -108 195 7 10 74 39 148
66 l135 48 7 -26 c5 -14 53 -349 108 -744z m928 717 c143 -51 163 -66 143
-110 -6 -14 -55 -77 -109 -141 -55 -64 -104 -127 -111 -139 -21 -40 0 -58 116
-98 117 -41 143 -57 143 -88 0 -19 -531 -869 -538 -862 -8 8 204 1485 213
1485 6 0 70 -21 143 -47z m-1318 -290 l82 -96 -75 -27 c-95 -35 -121 -53 -142
-97 -38 -80 -37 -83 303 -618 l311 -490 -627 -3 c-345 -1 -636 0 -648 2 -41
10 -44 39 -44 419 0 395 4 431 58 531 40 73 131 166 230 234 78 53 162 102
177 102 3 0 5 -120 5 -268 l0 -267 -52 -13 c-90 -21 -158 -91 -177 -183 -6
-27 -11 -106 -11 -174 0 -158 5 -165 112 -165 78 0 108 15 108 55 0 33 -20 45
-72 45 l-48 0 0 108 c0 123 14 162 69 199 29 19 47 23 118 23 97 0 134 -14
163 -63 17 -27 20 -51 20 -149 l0 -118 -44 0 c-35 0 -48 -5 -60 -22 -20 -29
-20 -34 4 -58 26 -26 143 -29 178 -4 21 15 22 21 22 173 0 154 -1 160 -28 212
-32 62 -99 113 -162 124 l-40 7 0 297 0 297 83 41 c45 23 87 42 94 42 7 1 49
-42 93 -96z m1672 37 l124 -59 -4 -64 c-3 -53 0 -72 21 -114 26 -50 71 -96
113 -115 12 -6 31 -33 43 -64 13 -29 40 -81 62 -114 l39 -61 0 -163 0 -163
-62 -12 c-173 -33 -364 -106 -472 -180 -62 -41 -146 -135 -178 -197 l-33 -64
-178 0 c-168 0 -177 1 -168 18 5 10 145 231 310 492 175 275 303 488 307 508
9 46 -9 102 -44 135 -15 15 -61 39 -102 53 -41 15 -77 28 -78 30 -7 5 153 193
164 193 6 1 67 -26 136 -59z m-742 -676 c-49 -357 -92 -659 -95 -671 -5 -22
-10 -23 -113 -23 l-107 0 -94 671 c-51 369 -91 673 -88 675 3 3 28 -6 56 -20
79 -41 173 -59 266 -52 82 5 177 32 230 65 17 10 31 15 33 11 1 -3 -38 -299
-88 -656z m1395 -70 c107 -29 238 -14 343 40 l52 26 0 -124 0 -124 -52 -12
c-138 -30 -315 -30 -445 1 l-53 12 0 124 0 123 53 -26 c28 -15 75 -33 102 -40z
m-90 -294 c86 -19 121 -21 250 -17 108 4 171 11 225 26 l75 20 96 -19 c282
-58 486 -170 564 -311 l30 -54 3 -254 c2 -140 1 -265 -3 -278 l-5 -23 -1020 0
-1019 0 -11 21 c-8 14 -10 99 -8 267 4 267 6 279 65 365 54 78 202 169 361
221 101 34 250 67 277 61 11 -2 65 -13 120 -25z"/>
<path d="M3552 4801 c-326 -80 -543 -393 -501 -723 41 -326 325 -578 654 -578
180 0 331 65 465 199 135 135 193 275 193 461 -1 113 -20 196 -71 300 -48 100
-176 229 -278 283 -140 72 -313 94 -462 58z m332 -110 c166 -58 289 -181 351
-351 55 -151 33 -344 -55 -478 -119 -180 -293 -270 -505 -260 -470 23 -701
585 -383 933 83 91 197 155 318 179 56 11 216 -3 274 -23z"/>
<path d="M3678 4519 c-16 -9 -18 -28 -18 -159 l0 -150 -141 0 c-77 0 -149 -5
-160 -10 -22 -12 -26 -59 -7 -78 8 -8 58 -12 160 -12 l148 0 0 -148 c0 -155 4
-172 45 -172 41 0 45 17 45 172 l0 148 148 0 c102 0 152 4 160 12 19 19 15 66
-7 78 -11 5 -83 10 -160 10 l-141 0 0 150 c0 137 -2 150 -19 160 -24 12 -31
12 -53 -1z"/>
</g>
</svg>
